%TF.GenerationSoftware,KiCad,Pcbnew,5.1.10-88a1d61d58~88~ubuntu20.10.1*%
%TF.CreationDate,2021-05-16T15:10:54+02:00*%
%TF.ProjectId,eurorack-psu,6575726f-7261-4636-9b2d-7073752e6b69,v1.0.0*%
%TF.SameCoordinates,Original*%
%TF.FileFunction,Copper,L1,Top*%
%TF.FilePolarity,Positive*%
%FSLAX46Y46*%
G04 Gerber Fmt 4.6, Leading zero omitted, Abs format (unit mm)*
G04 Created by KiCad (PCBNEW 5.1.10-88a1d61d58~88~ubuntu20.10.1) date 2021-05-16 15:10:54*
%MOMM*%
%LPD*%
G01*
G04 APERTURE LIST*
%TA.AperFunction,ComponentPad*%
%ADD10C,1.600000*%
%TD*%
%TA.AperFunction,ComponentPad*%
%ADD11R,1.600000X1.600000*%
%TD*%
%TA.AperFunction,ComponentPad*%
%ADD12C,1.700000*%
%TD*%
%TA.AperFunction,ComponentPad*%
%ADD13C,2.750000*%
%TD*%
%TA.AperFunction,ComponentPad*%
%ADD14C,1.800000*%
%TD*%
%TA.AperFunction,ComponentPad*%
%ADD15R,1.800000X1.800000*%
%TD*%
%TA.AperFunction,ComponentPad*%
%ADD16R,3.500000X3.500000*%
%TD*%
%TA.AperFunction,ComponentPad*%
%ADD17O,1.905000X2.000000*%
%TD*%
%TA.AperFunction,ComponentPad*%
%ADD18R,1.905000X2.000000*%
%TD*%
%TA.AperFunction,ComponentPad*%
%ADD19O,1.600000X1.600000*%
%TD*%
%TA.AperFunction,ComponentPad*%
%ADD20O,2.200000X2.200000*%
%TD*%
%TA.AperFunction,ComponentPad*%
%ADD21R,2.200000X2.200000*%
%TD*%
%TA.AperFunction,ComponentPad*%
%ADD22C,2.400000*%
%TD*%
%TA.AperFunction,ComponentPad*%
%ADD23R,2.400000X2.400000*%
%TD*%
%TA.AperFunction,ViaPad*%
%ADD24C,3.500000*%
%TD*%
%TA.AperFunction,ViaPad*%
%ADD25C,3.200000*%
%TD*%
%TA.AperFunction,Conductor*%
%ADD26C,1.524000*%
%TD*%
%TA.AperFunction,Conductor*%
%ADD27C,0.254000*%
%TD*%
%TA.AperFunction,Conductor*%
%ADD28C,0.100000*%
%TD*%
G04 APERTURE END LIST*
D10*
%TO.P,C12,2*%
%TO.N,GND*%
X171000000Y-89500000D03*
D11*
%TO.P,C12,1*%
%TO.N,+5V*%
X171000000Y-92000000D03*
%TD*%
D10*
%TO.P,C10,2*%
%TO.N,-12V*%
X174000000Y-143500000D03*
D11*
%TO.P,C10,1*%
%TO.N,GND*%
X174000000Y-146000000D03*
%TD*%
D10*
%TO.P,C9,2*%
%TO.N,GND*%
X175000000Y-123500000D03*
D11*
%TO.P,C9,1*%
%TO.N,+12V*%
X175000000Y-121000000D03*
%TD*%
D10*
%TO.P,C7,2*%
%TO.N,GND*%
X138000000Y-125500000D03*
D11*
%TO.P,C7,1*%
%TO.N,Net-(C1-Pad1)*%
X138000000Y-123000000D03*
%TD*%
D12*
%TO.P,J4,10*%
%TO.N,+12V*%
X182945202Y-128840000D03*
%TO.P,J4,8*%
%TO.N,GND*%
X182945202Y-131380000D03*
%TO.P,J4,6*%
X182945202Y-133920000D03*
%TO.P,J4,4*%
X182945202Y-136460000D03*
%TO.P,J4,2*%
%TO.N,-12V*%
X182945202Y-139000000D03*
%TO.P,J4,9*%
%TO.N,+12V*%
X185485202Y-128840000D03*
%TO.P,J4,7*%
%TO.N,GND*%
X185485202Y-131380000D03*
%TO.P,J4,5*%
X185485202Y-133920000D03*
%TO.P,J4,3*%
X185485202Y-136460000D03*
%TO.P,J4,1*%
%TO.N,-12V*%
%TA.AperFunction,ComponentPad*%
G36*
G01*
X186335202Y-138400000D02*
X186335202Y-139600000D01*
G75*
G02*
X186085202Y-139850000I-250000J0D01*
G01*
X184885202Y-139850000D01*
G75*
G02*
X184635202Y-139600000I0J250000D01*
G01*
X184635202Y-138400000D01*
G75*
G02*
X184885202Y-138150000I250000J0D01*
G01*
X186085202Y-138150000D01*
G75*
G02*
X186335202Y-138400000I0J-250000D01*
G01*
G37*
%TD.AperFunction*%
%TD*%
D13*
%TO.P,J3,2*%
%TO.N,GND*%
X80800000Y-97100000D03*
%TO.P,J3,1*%
%TO.N,Net-(D1-Pad2)*%
%TA.AperFunction,ComponentPad*%
G36*
G01*
X81925002Y-103875000D02*
X79674998Y-103875000D01*
G75*
G02*
X79425000Y-103625002I0J249998D01*
G01*
X79425000Y-101374998D01*
G75*
G02*
X79674998Y-101125000I249998J0D01*
G01*
X81925002Y-101125000D01*
G75*
G02*
X82175000Y-101374998I0J-249998D01*
G01*
X82175000Y-103625002D01*
G75*
G02*
X81925002Y-103875000I-249998J0D01*
G01*
G37*
%TD.AperFunction*%
%TD*%
D10*
%TO.P,C11,2*%
%TO.N,GND*%
X138000000Y-101500000D03*
D11*
%TO.P,C11,1*%
%TO.N,+12V*%
X138000000Y-99000000D03*
%TD*%
D14*
%TO.P,D9,2*%
%TO.N,Net-(D9-Pad2)*%
X174540000Y-98000000D03*
D15*
%TO.P,D9,1*%
%TO.N,GND*%
X172000000Y-98000000D03*
%TD*%
%TO.P,J1,3*%
%TO.N,N/C*%
%TA.AperFunction,ComponentPad*%
G36*
G01*
X83250000Y-122575000D02*
X83250000Y-120825000D01*
G75*
G02*
X84125000Y-119950000I875000J0D01*
G01*
X85875000Y-119950000D01*
G75*
G02*
X86750000Y-120825000I0J-875000D01*
G01*
X86750000Y-122575000D01*
G75*
G02*
X85875000Y-123450000I-875000J0D01*
G01*
X84125000Y-123450000D01*
G75*
G02*
X83250000Y-122575000I0J875000D01*
G01*
G37*
%TD.AperFunction*%
%TO.P,J1,2*%
%TO.N,GND*%
%TA.AperFunction,ComponentPad*%
G36*
G01*
X80500000Y-118000000D02*
X80500000Y-116000000D01*
G75*
G02*
X81250000Y-115250000I750000J0D01*
G01*
X82750000Y-115250000D01*
G75*
G02*
X83500000Y-116000000I0J-750000D01*
G01*
X83500000Y-118000000D01*
G75*
G02*
X82750000Y-118750000I-750000J0D01*
G01*
X81250000Y-118750000D01*
G75*
G02*
X80500000Y-118000000I0J750000D01*
G01*
G37*
%TD.AperFunction*%
D16*
%TO.P,J1,1*%
%TO.N,Net-(D1-Pad2)*%
X88000000Y-117000000D03*
%TD*%
D17*
%TO.P,U3,3*%
%TO.N,+5V*%
X152080000Y-98000000D03*
%TO.P,U3,2*%
%TO.N,GND*%
X149540000Y-98000000D03*
D18*
%TO.P,U3,1*%
%TO.N,+12V*%
X147000000Y-98000000D03*
%TD*%
D17*
%TO.P,U2,3*%
%TO.N,-12V*%
X152080000Y-146000000D03*
%TO.P,U2,2*%
%TO.N,Net-(C2-Pad2)*%
X149540000Y-146000000D03*
D18*
%TO.P,U2,1*%
%TO.N,GND*%
X147000000Y-146000000D03*
%TD*%
D17*
%TO.P,U1,3*%
%TO.N,+12V*%
X152080000Y-122000000D03*
%TO.P,U1,2*%
%TO.N,GND*%
X149540000Y-122000000D03*
D18*
%TO.P,U1,1*%
%TO.N,Net-(C1-Pad1)*%
X147000000Y-122000000D03*
%TD*%
D19*
%TO.P,R3,2*%
%TO.N,+5V*%
X175200000Y-114960000D03*
D10*
%TO.P,R3,1*%
%TO.N,Net-(D9-Pad2)*%
X175200000Y-104800000D03*
%TD*%
D19*
%TO.P,R2,2*%
%TO.N,GND*%
X174000000Y-128840000D03*
D10*
%TO.P,R2,1*%
%TO.N,-12V*%
X174000000Y-139000000D03*
%TD*%
D19*
%TO.P,R1,2*%
%TO.N,GND*%
X171000000Y-104840000D03*
D10*
%TO.P,R1,1*%
%TO.N,+12V*%
X171000000Y-115000000D03*
%TD*%
D12*
%TO.P,J2,16*%
%TO.N,Net-(J2-Pad16)*%
X182960000Y-95220000D03*
%TO.P,J2,14*%
%TO.N,Net-(J2-Pad14)*%
X182960000Y-97760000D03*
%TO.P,J2,12*%
%TO.N,+5V*%
X182960000Y-100300000D03*
%TO.P,J2,10*%
%TO.N,+12V*%
X182960000Y-102840000D03*
%TO.P,J2,8*%
%TO.N,GND*%
X182960000Y-105380000D03*
%TO.P,J2,6*%
X182960000Y-107920000D03*
%TO.P,J2,4*%
X182960000Y-110460000D03*
%TO.P,J2,2*%
%TO.N,-12V*%
X182960000Y-113000000D03*
%TO.P,J2,15*%
%TO.N,Net-(J2-Pad15)*%
X185500000Y-95220000D03*
%TO.P,J2,13*%
%TO.N,Net-(J2-Pad13)*%
X185500000Y-97760000D03*
%TO.P,J2,11*%
%TO.N,+5V*%
X185500000Y-100300000D03*
%TO.P,J2,9*%
%TO.N,+12V*%
X185500000Y-102840000D03*
%TO.P,J2,7*%
%TO.N,GND*%
X185500000Y-105380000D03*
%TO.P,J2,5*%
X185500000Y-107920000D03*
%TO.P,J2,3*%
X185500000Y-110460000D03*
%TO.P,J2,1*%
%TO.N,-12V*%
%TA.AperFunction,ComponentPad*%
G36*
G01*
X186350000Y-112400000D02*
X186350000Y-113600000D01*
G75*
G02*
X186100000Y-113850000I-250000J0D01*
G01*
X184900000Y-113850000D01*
G75*
G02*
X184650000Y-113600000I0J250000D01*
G01*
X184650000Y-112400000D01*
G75*
G02*
X184900000Y-112150000I250000J0D01*
G01*
X186100000Y-112150000D01*
G75*
G02*
X186350000Y-112400000I0J-250000D01*
G01*
G37*
%TD.AperFunction*%
%TD*%
D20*
%TO.P,D8,2*%
%TO.N,GND*%
X168160000Y-98000000D03*
D21*
%TO.P,D8,1*%
%TO.N,+5V*%
X158000000Y-98000000D03*
%TD*%
D20*
%TO.P,D7,2*%
%TO.N,+5V*%
X154160000Y-102000000D03*
D21*
%TO.P,D7,1*%
%TO.N,+12V*%
X144000000Y-102000000D03*
%TD*%
D20*
%TO.P,D6,2*%
%TO.N,-12V*%
X157840000Y-146000000D03*
D21*
%TO.P,D6,1*%
%TO.N,GND*%
X168000000Y-146000000D03*
%TD*%
D20*
%TO.P,D5,2*%
%TO.N,GND*%
X168160000Y-122000000D03*
D21*
%TO.P,D5,1*%
%TO.N,+12V*%
X158000000Y-122000000D03*
%TD*%
D20*
%TO.P,D4,2*%
%TO.N,Net-(C2-Pad2)*%
X143840000Y-150000000D03*
D21*
%TO.P,D4,1*%
%TO.N,-12V*%
X154000000Y-150000000D03*
%TD*%
D20*
%TO.P,D3,2*%
%TO.N,+12V*%
X154160000Y-126000000D03*
D21*
%TO.P,D3,1*%
%TO.N,Net-(C1-Pad1)*%
X144000000Y-126000000D03*
%TD*%
D20*
%TO.P,D2,2*%
%TO.N,Net-(C2-Pad2)*%
X88700000Y-136460000D03*
D21*
%TO.P,D2,1*%
%TO.N,Net-(D1-Pad2)*%
X88700000Y-126300000D03*
%TD*%
D20*
%TO.P,D1,2*%
%TO.N,Net-(D1-Pad2)*%
X88800000Y-108160000D03*
D21*
%TO.P,D1,1*%
%TO.N,Net-(C1-Pad1)*%
X88800000Y-98000000D03*
%TD*%
D10*
%TO.P,C8,2*%
%TO.N,Net-(C2-Pad2)*%
X138000000Y-148500000D03*
D11*
%TO.P,C8,1*%
%TO.N,GND*%
X138000000Y-146000000D03*
%TD*%
D22*
%TO.P,C6,2*%
%TO.N,Net-(C2-Pad2)*%
X123500000Y-144500000D03*
D23*
%TO.P,C6,1*%
%TO.N,GND*%
X123500000Y-137000000D03*
%TD*%
D22*
%TO.P,C5,2*%
%TO.N,GND*%
X101500000Y-96500000D03*
D23*
%TO.P,C5,1*%
%TO.N,Net-(C1-Pad1)*%
X101500000Y-89000000D03*
%TD*%
D22*
%TO.P,C4,2*%
%TO.N,Net-(C2-Pad2)*%
X101500000Y-144500000D03*
D23*
%TO.P,C4,1*%
%TO.N,GND*%
X101500000Y-137000000D03*
%TD*%
D22*
%TO.P,C3,2*%
%TO.N,GND*%
X123500000Y-96500000D03*
D23*
%TO.P,C3,1*%
%TO.N,Net-(C1-Pad1)*%
X123500000Y-89000000D03*
%TD*%
D22*
%TO.P,C2,2*%
%TO.N,Net-(C2-Pad2)*%
X101500000Y-120500000D03*
D23*
%TO.P,C2,1*%
%TO.N,GND*%
X101500000Y-113000000D03*
%TD*%
D22*
%TO.P,C1,2*%
%TO.N,GND*%
X123500000Y-120500000D03*
D23*
%TO.P,C1,1*%
%TO.N,Net-(C1-Pad1)*%
X123500000Y-113000000D03*
%TD*%
D24*
%TO.N,*%
X78000000Y-85000000D03*
X187000000Y-85000000D03*
X187000000Y-149000000D03*
X78000000Y-149000000D03*
D25*
X137100000Y-140500000D03*
X162500000Y-140500000D03*
X162400000Y-116500000D03*
X137100000Y-116500000D03*
X162400000Y-92500000D03*
X137000000Y-92500000D03*
%TD*%
D26*
%TO.N,+5V*%
X181757919Y-100300000D02*
X182960000Y-100300000D01*
X176962001Y-105095918D02*
X181757919Y-100300000D01*
X176962001Y-113197999D02*
X176962001Y-105095918D01*
X175200000Y-114960000D02*
X176962001Y-113197999D01*
%TD*%
D27*
%TO.N,GND*%
X186160810Y-82233561D02*
X185637229Y-82450435D01*
X185166019Y-82765288D01*
X184765288Y-83166019D01*
X184450435Y-83637229D01*
X184233561Y-84160810D01*
X184123000Y-84716640D01*
X184123000Y-85283360D01*
X184233561Y-85839190D01*
X184450435Y-86362771D01*
X184765288Y-86833981D01*
X185166019Y-87234712D01*
X185637229Y-87549565D01*
X186160810Y-87766439D01*
X186716640Y-87877000D01*
X187283360Y-87877000D01*
X187839190Y-87766439D01*
X188362771Y-87549565D01*
X188833981Y-87234712D01*
X189234712Y-86833981D01*
X189549565Y-86362771D01*
X189766439Y-85839190D01*
X189848000Y-85429153D01*
X189848001Y-148570851D01*
X189766439Y-148160810D01*
X189549565Y-147637229D01*
X189234712Y-147166019D01*
X188833981Y-146765288D01*
X188362771Y-146450435D01*
X187839190Y-146233561D01*
X187283360Y-146123000D01*
X186716640Y-146123000D01*
X186160810Y-146233561D01*
X185637229Y-146450435D01*
X185166019Y-146765288D01*
X184765288Y-147166019D01*
X184450435Y-147637229D01*
X184233561Y-148160810D01*
X184123000Y-148716640D01*
X184123000Y-149283360D01*
X184233561Y-149839190D01*
X184450435Y-150362771D01*
X184765288Y-150833981D01*
X185166019Y-151234712D01*
X185637229Y-151549565D01*
X186160810Y-151766439D01*
X186570847Y-151848000D01*
X155944068Y-151848000D01*
X156041600Y-151729157D01*
X156146250Y-151533371D01*
X156210693Y-151320931D01*
X156232453Y-151100000D01*
X156232453Y-148900000D01*
X156210693Y-148679069D01*
X156146250Y-148466629D01*
X156041600Y-148270843D01*
X155900765Y-148099235D01*
X155729157Y-147958400D01*
X155533371Y-147853750D01*
X155320931Y-147789307D01*
X155100000Y-147767547D01*
X153262050Y-147767547D01*
X153557543Y-147525043D01*
X153817406Y-147208398D01*
X154010503Y-146847139D01*
X154129411Y-146455152D01*
X154159500Y-146149651D01*
X154159500Y-145850348D01*
X154152637Y-145780660D01*
X155613000Y-145780660D01*
X155613000Y-146219340D01*
X155698582Y-146649592D01*
X155866458Y-147054880D01*
X156110176Y-147419630D01*
X156420370Y-147729824D01*
X156785120Y-147973542D01*
X157190408Y-148141418D01*
X157620660Y-148227000D01*
X158059340Y-148227000D01*
X158489592Y-148141418D01*
X158894880Y-147973542D01*
X159259630Y-147729824D01*
X159569824Y-147419630D01*
X159783393Y-147100000D01*
X166261928Y-147100000D01*
X166274188Y-147224482D01*
X166310498Y-147344180D01*
X166369463Y-147454494D01*
X166448815Y-147551185D01*
X166545506Y-147630537D01*
X166655820Y-147689502D01*
X166775518Y-147725812D01*
X166900000Y-147738072D01*
X167714250Y-147735000D01*
X167873000Y-147576250D01*
X167873000Y-146127000D01*
X168127000Y-146127000D01*
X168127000Y-147576250D01*
X168285750Y-147735000D01*
X169100000Y-147738072D01*
X169224482Y-147725812D01*
X169344180Y-147689502D01*
X169454494Y-147630537D01*
X169551185Y-147551185D01*
X169630537Y-147454494D01*
X169689502Y-147344180D01*
X169725812Y-147224482D01*
X169738072Y-147100000D01*
X169736941Y-146800000D01*
X172561928Y-146800000D01*
X172574188Y-146924482D01*
X172610498Y-147044180D01*
X172669463Y-147154494D01*
X172748815Y-147251185D01*
X172845506Y-147330537D01*
X172955820Y-147389502D01*
X173075518Y-147425812D01*
X173200000Y-147438072D01*
X173714250Y-147435000D01*
X173873000Y-147276250D01*
X173873000Y-146127000D01*
X174127000Y-146127000D01*
X174127000Y-147276250D01*
X174285750Y-147435000D01*
X174800000Y-147438072D01*
X174924482Y-147425812D01*
X175044180Y-147389502D01*
X175154494Y-147330537D01*
X175251185Y-147251185D01*
X175330537Y-147154494D01*
X175389502Y-147044180D01*
X175425812Y-146924482D01*
X175438072Y-146800000D01*
X175435000Y-146285750D01*
X175276250Y-146127000D01*
X174127000Y-146127000D01*
X173873000Y-146127000D01*
X172723750Y-146127000D01*
X172565000Y-146285750D01*
X172561928Y-146800000D01*
X169736941Y-146800000D01*
X169735000Y-146285750D01*
X169576250Y-146127000D01*
X168127000Y-146127000D01*
X167873000Y-146127000D01*
X166423750Y-146127000D01*
X166265000Y-146285750D01*
X166261928Y-147100000D01*
X159783393Y-147100000D01*
X159813542Y-147054880D01*
X159981418Y-146649592D01*
X160067000Y-146219340D01*
X160067000Y-145780660D01*
X159981418Y-145350408D01*
X159813542Y-144945120D01*
X159783394Y-144900000D01*
X166261928Y-144900000D01*
X166265000Y-145714250D01*
X166423750Y-145873000D01*
X167873000Y-145873000D01*
X167873000Y-144423750D01*
X168127000Y-144423750D01*
X168127000Y-145873000D01*
X169576250Y-145873000D01*
X169735000Y-145714250D01*
X169738072Y-144900000D01*
X169725812Y-144775518D01*
X169689502Y-144655820D01*
X169630537Y-144545506D01*
X169551185Y-144448815D01*
X169454494Y-144369463D01*
X169344180Y-144310498D01*
X169224482Y-144274188D01*
X169100000Y-144261928D01*
X168285750Y-144265000D01*
X168127000Y-144423750D01*
X167873000Y-144423750D01*
X167714250Y-144265000D01*
X166900000Y-144261928D01*
X166775518Y-144274188D01*
X166655820Y-144310498D01*
X166545506Y-144369463D01*
X166448815Y-144448815D01*
X166369463Y-144545506D01*
X166310498Y-144655820D01*
X166274188Y-144775518D01*
X166261928Y-144900000D01*
X159783394Y-144900000D01*
X159569824Y-144580370D01*
X159259630Y-144270176D01*
X158894880Y-144026458D01*
X158489592Y-143858582D01*
X158059340Y-143773000D01*
X157620660Y-143773000D01*
X157190408Y-143858582D01*
X156785120Y-144026458D01*
X156420370Y-144270176D01*
X156110176Y-144580370D01*
X155866458Y-144945120D01*
X155698582Y-145350408D01*
X155613000Y-145780660D01*
X154152637Y-145780660D01*
X154129411Y-145544847D01*
X154010503Y-145152860D01*
X153817406Y-144791602D01*
X153557543Y-144474957D01*
X153240898Y-144215094D01*
X152879639Y-144021997D01*
X152487652Y-143903089D01*
X152080000Y-143862939D01*
X151672347Y-143903089D01*
X151280360Y-144021997D01*
X150919102Y-144215094D01*
X150810000Y-144304631D01*
X150700898Y-144215094D01*
X150339639Y-144021997D01*
X149947652Y-143903089D01*
X149540000Y-143862939D01*
X149132347Y-143903089D01*
X148740360Y-144021997D01*
X148379102Y-144215094D01*
X148156027Y-144398166D01*
X148076982Y-144374188D01*
X147952500Y-144361928D01*
X147285750Y-144365000D01*
X147127000Y-144523750D01*
X147127000Y-145873000D01*
X147147000Y-145873000D01*
X147147000Y-146127000D01*
X147127000Y-146127000D01*
X147127000Y-147476250D01*
X147285750Y-147635000D01*
X147952500Y-147638072D01*
X148076982Y-147625812D01*
X148156027Y-147601834D01*
X148379102Y-147784906D01*
X148740361Y-147978003D01*
X149132348Y-148096911D01*
X149540000Y-148137061D01*
X149947653Y-148096911D01*
X150339640Y-147978003D01*
X150700898Y-147784906D01*
X150810000Y-147695369D01*
X150919102Y-147784906D01*
X151280361Y-147978003D01*
X151672348Y-148096911D01*
X152069075Y-148135985D01*
X151958400Y-148270843D01*
X151853750Y-148466629D01*
X151789307Y-148679069D01*
X151767547Y-148900000D01*
X151767547Y-151100000D01*
X151789307Y-151320931D01*
X151853750Y-151533371D01*
X151958400Y-151729157D01*
X152055932Y-151848000D01*
X145082767Y-151848000D01*
X145259630Y-151729824D01*
X145569824Y-151419630D01*
X145813542Y-151054880D01*
X145981418Y-150649592D01*
X146067000Y-150219340D01*
X146067000Y-149780660D01*
X145981418Y-149350408D01*
X145813542Y-148945120D01*
X145569824Y-148580370D01*
X145259630Y-148270176D01*
X144894880Y-148026458D01*
X144489592Y-147858582D01*
X144059340Y-147773000D01*
X143620660Y-147773000D01*
X143190408Y-147858582D01*
X142785120Y-148026458D01*
X142420370Y-148270176D01*
X142110176Y-148580370D01*
X141866458Y-148945120D01*
X141698582Y-149350408D01*
X141613000Y-149780660D01*
X141613000Y-150219340D01*
X141698582Y-150649592D01*
X141866458Y-151054880D01*
X142110176Y-151419630D01*
X142420370Y-151729824D01*
X142597233Y-151848000D01*
X78429153Y-151848000D01*
X78839190Y-151766439D01*
X79362771Y-151549565D01*
X79833981Y-151234712D01*
X80234712Y-150833981D01*
X80549565Y-150362771D01*
X80766439Y-149839190D01*
X80877000Y-149283360D01*
X80877000Y-148716640D01*
X80796156Y-148310207D01*
X136073000Y-148310207D01*
X136073000Y-148689793D01*
X136147053Y-149062085D01*
X136292315Y-149412777D01*
X136503201Y-149728391D01*
X136771609Y-149996799D01*
X137087223Y-150207685D01*
X137437915Y-150352947D01*
X137810207Y-150427000D01*
X138189793Y-150427000D01*
X138562085Y-150352947D01*
X138912777Y-150207685D01*
X139228391Y-149996799D01*
X139496799Y-149728391D01*
X139707685Y-149412777D01*
X139852947Y-149062085D01*
X139927000Y-148689793D01*
X139927000Y-148310207D01*
X139852947Y-147937915D01*
X139707685Y-147587223D01*
X139496799Y-147271609D01*
X139347656Y-147122466D01*
X139389502Y-147044180D01*
X139402903Y-147000000D01*
X145409428Y-147000000D01*
X145421688Y-147124482D01*
X145457998Y-147244180D01*
X145516963Y-147354494D01*
X145596315Y-147451185D01*
X145693006Y-147530537D01*
X145803320Y-147589502D01*
X145923018Y-147625812D01*
X146047500Y-147638072D01*
X146714250Y-147635000D01*
X146873000Y-147476250D01*
X146873000Y-146127000D01*
X145571250Y-146127000D01*
X145412500Y-146285750D01*
X145409428Y-147000000D01*
X139402903Y-147000000D01*
X139425812Y-146924482D01*
X139438072Y-146800000D01*
X139435000Y-146285750D01*
X139276250Y-146127000D01*
X138127000Y-146127000D01*
X138127000Y-146147000D01*
X137873000Y-146147000D01*
X137873000Y-146127000D01*
X136723750Y-146127000D01*
X136565000Y-146285750D01*
X136561928Y-146800000D01*
X136574188Y-146924482D01*
X136610498Y-147044180D01*
X136652344Y-147122466D01*
X136503201Y-147271609D01*
X136292315Y-147587223D01*
X136147053Y-147937915D01*
X136073000Y-148310207D01*
X80796156Y-148310207D01*
X80766439Y-148160810D01*
X80549565Y-147637229D01*
X80234712Y-147166019D01*
X79833981Y-146765288D01*
X79362771Y-146450435D01*
X78839190Y-146233561D01*
X78283360Y-146123000D01*
X77716640Y-146123000D01*
X77160810Y-146233561D01*
X76637229Y-146450435D01*
X76166019Y-146765288D01*
X75765288Y-147166019D01*
X75450435Y-147637229D01*
X75233561Y-148160810D01*
X75152000Y-148570847D01*
X75152000Y-144270811D01*
X99173000Y-144270811D01*
X99173000Y-144729189D01*
X99262426Y-145178761D01*
X99437840Y-145602248D01*
X99692501Y-145983376D01*
X100016624Y-146307499D01*
X100397752Y-146562160D01*
X100821239Y-146737574D01*
X101270811Y-146827000D01*
X101729189Y-146827000D01*
X102178761Y-146737574D01*
X102602248Y-146562160D01*
X102983376Y-146307499D01*
X103307499Y-145983376D01*
X103562160Y-145602248D01*
X103737574Y-145178761D01*
X103827000Y-144729189D01*
X103827000Y-144270811D01*
X121173000Y-144270811D01*
X121173000Y-144729189D01*
X121262426Y-145178761D01*
X121437840Y-145602248D01*
X121692501Y-145983376D01*
X122016624Y-146307499D01*
X122397752Y-146562160D01*
X122821239Y-146737574D01*
X123270811Y-146827000D01*
X123729189Y-146827000D01*
X124178761Y-146737574D01*
X124602248Y-146562160D01*
X124983376Y-146307499D01*
X125307499Y-145983376D01*
X125562160Y-145602248D01*
X125728776Y-145200000D01*
X136561928Y-145200000D01*
X136565000Y-145714250D01*
X136723750Y-145873000D01*
X137873000Y-145873000D01*
X137873000Y-144723750D01*
X138127000Y-144723750D01*
X138127000Y-145873000D01*
X139276250Y-145873000D01*
X139435000Y-145714250D01*
X139438072Y-145200000D01*
X139425812Y-145075518D01*
X139402904Y-145000000D01*
X145409428Y-145000000D01*
X145412500Y-145714250D01*
X145571250Y-145873000D01*
X146873000Y-145873000D01*
X146873000Y-144523750D01*
X146714250Y-144365000D01*
X146047500Y-144361928D01*
X145923018Y-144374188D01*
X145803320Y-144410498D01*
X145693006Y-144469463D01*
X145596315Y-144548815D01*
X145516963Y-144645506D01*
X145457998Y-144755820D01*
X145421688Y-144875518D01*
X145409428Y-145000000D01*
X139402904Y-145000000D01*
X139389502Y-144955820D01*
X139330537Y-144845506D01*
X139251185Y-144748815D01*
X139154494Y-144669463D01*
X139044180Y-144610498D01*
X138924482Y-144574188D01*
X138800000Y-144561928D01*
X138285750Y-144565000D01*
X138127000Y-144723750D01*
X137873000Y-144723750D01*
X137714250Y-144565000D01*
X137200000Y-144561928D01*
X137075518Y-144574188D01*
X136955820Y-144610498D01*
X136845506Y-144669463D01*
X136748815Y-144748815D01*
X136669463Y-144845506D01*
X136610498Y-144955820D01*
X136574188Y-145075518D01*
X136561928Y-145200000D01*
X125728776Y-145200000D01*
X125737574Y-145178761D01*
X125827000Y-144729189D01*
X125827000Y-144270811D01*
X125737574Y-143821239D01*
X125562160Y-143397752D01*
X125503665Y-143310207D01*
X172073000Y-143310207D01*
X172073000Y-143689793D01*
X172147053Y-144062085D01*
X172292315Y-144412777D01*
X172503201Y-144728391D01*
X172652344Y-144877534D01*
X172610498Y-144955820D01*
X172574188Y-145075518D01*
X172561928Y-145200000D01*
X172565000Y-145714250D01*
X172723750Y-145873000D01*
X173873000Y-145873000D01*
X173873000Y-145853000D01*
X174127000Y-145853000D01*
X174127000Y-145873000D01*
X175276250Y-145873000D01*
X175435000Y-145714250D01*
X175438072Y-145200000D01*
X175425812Y-145075518D01*
X175389502Y-144955820D01*
X175347656Y-144877534D01*
X175496799Y-144728391D01*
X175707685Y-144412777D01*
X175852947Y-144062085D01*
X175927000Y-143689793D01*
X175927000Y-143310207D01*
X175852947Y-142937915D01*
X175707685Y-142587223D01*
X175496799Y-142271609D01*
X175228391Y-142003201D01*
X174912777Y-141792315D01*
X174562085Y-141647053D01*
X174189793Y-141573000D01*
X173810207Y-141573000D01*
X173437915Y-141647053D01*
X173087223Y-141792315D01*
X172771609Y-142003201D01*
X172503201Y-142271609D01*
X172292315Y-142587223D01*
X172147053Y-142937915D01*
X172073000Y-143310207D01*
X125503665Y-143310207D01*
X125307499Y-143016624D01*
X124983376Y-142692501D01*
X124602248Y-142437840D01*
X124178761Y-142262426D01*
X123729189Y-142173000D01*
X123270811Y-142173000D01*
X122821239Y-142262426D01*
X122397752Y-142437840D01*
X122016624Y-142692501D01*
X121692501Y-143016624D01*
X121437840Y-143397752D01*
X121262426Y-143821239D01*
X121173000Y-144270811D01*
X103827000Y-144270811D01*
X103737574Y-143821239D01*
X103562160Y-143397752D01*
X103307499Y-143016624D01*
X102983376Y-142692501D01*
X102602248Y-142437840D01*
X102178761Y-142262426D01*
X101729189Y-142173000D01*
X101270811Y-142173000D01*
X100821239Y-142262426D01*
X100397752Y-142437840D01*
X100016624Y-142692501D01*
X99692501Y-143016624D01*
X99437840Y-143397752D01*
X99262426Y-143821239D01*
X99173000Y-144270811D01*
X75152000Y-144270811D01*
X75152000Y-140231414D01*
X134373000Y-140231414D01*
X134373000Y-140768586D01*
X134477797Y-141295437D01*
X134683364Y-141791719D01*
X134981801Y-142238361D01*
X135361639Y-142618199D01*
X135808281Y-142916636D01*
X136304563Y-143122203D01*
X136831414Y-143227000D01*
X137368586Y-143227000D01*
X137895437Y-143122203D01*
X138391719Y-142916636D01*
X138838361Y-142618199D01*
X139218199Y-142238361D01*
X139516636Y-141791719D01*
X139722203Y-141295437D01*
X139827000Y-140768586D01*
X139827000Y-140231414D01*
X159773000Y-140231414D01*
X159773000Y-140768586D01*
X159877797Y-141295437D01*
X160083364Y-141791719D01*
X160381801Y-142238361D01*
X160761639Y-142618199D01*
X161208281Y-142916636D01*
X161704563Y-143122203D01*
X162231414Y-143227000D01*
X162768586Y-143227000D01*
X163295437Y-143122203D01*
X163791719Y-142916636D01*
X164238361Y-142618199D01*
X164618199Y-142238361D01*
X164916636Y-141791719D01*
X165122203Y-141295437D01*
X165227000Y-140768586D01*
X165227000Y-140231414D01*
X165122203Y-139704563D01*
X164916636Y-139208281D01*
X164650652Y-138810207D01*
X172073000Y-138810207D01*
X172073000Y-139189793D01*
X172147053Y-139562085D01*
X172292315Y-139912777D01*
X172503201Y-140228391D01*
X172771609Y-140496799D01*
X173087223Y-140707685D01*
X173437915Y-140852947D01*
X173810207Y-140927000D01*
X174189793Y-140927000D01*
X174562085Y-140852947D01*
X174912777Y-140707685D01*
X175228391Y-140496799D01*
X175496799Y-140228391D01*
X175707685Y-139912777D01*
X175852947Y-139562085D01*
X175927000Y-139189793D01*
X175927000Y-138810207D01*
X175926021Y-138805282D01*
X180968202Y-138805282D01*
X180968202Y-139194718D01*
X181044177Y-139576670D01*
X181193207Y-139936461D01*
X181409566Y-140260264D01*
X181684938Y-140535636D01*
X182008741Y-140751995D01*
X182368532Y-140901025D01*
X182750484Y-140977000D01*
X183139920Y-140977000D01*
X183521872Y-140901025D01*
X183881663Y-140751995D01*
X184013165Y-140664128D01*
X184117152Y-140749468D01*
X184356160Y-140877220D01*
X184615499Y-140955890D01*
X184885202Y-140982453D01*
X186085202Y-140982453D01*
X186354905Y-140955890D01*
X186614244Y-140877220D01*
X186853252Y-140749468D01*
X187062744Y-140577542D01*
X187234670Y-140368050D01*
X187362422Y-140129042D01*
X187441092Y-139869703D01*
X187467655Y-139600000D01*
X187467655Y-138400000D01*
X187441092Y-138130297D01*
X187362422Y-137870958D01*
X187234670Y-137631950D01*
X187062744Y-137422458D01*
X186853252Y-137250532D01*
X186773708Y-137208015D01*
X186888573Y-136967117D01*
X186960541Y-136683589D01*
X186975813Y-136391469D01*
X186933801Y-136101981D01*
X186836121Y-135826253D01*
X186762674Y-135688843D01*
X186513599Y-135611208D01*
X185664807Y-136460000D01*
X185678950Y-136474143D01*
X185499345Y-136653748D01*
X185485202Y-136639605D01*
X185471060Y-136653748D01*
X185291455Y-136474143D01*
X185305597Y-136460000D01*
X184456805Y-135611208D01*
X184215202Y-135686514D01*
X183973599Y-135611208D01*
X183124807Y-136460000D01*
X183138950Y-136474143D01*
X182959345Y-136653748D01*
X182945202Y-136639605D01*
X182931060Y-136653748D01*
X182751455Y-136474143D01*
X182765597Y-136460000D01*
X181916805Y-135611208D01*
X181667730Y-135688843D01*
X181541831Y-135952883D01*
X181469863Y-136236411D01*
X181454591Y-136528531D01*
X181496603Y-136818019D01*
X181594283Y-137093747D01*
X181667730Y-137231157D01*
X181916803Y-137308791D01*
X181914859Y-137310735D01*
X181684938Y-137464364D01*
X181409566Y-137739736D01*
X181193207Y-138063539D01*
X181044177Y-138423330D01*
X180968202Y-138805282D01*
X175926021Y-138805282D01*
X175852947Y-138437915D01*
X175707685Y-138087223D01*
X175496799Y-137771609D01*
X175228391Y-137503201D01*
X174912777Y-137292315D01*
X174562085Y-137147053D01*
X174189793Y-137073000D01*
X173810207Y-137073000D01*
X173437915Y-137147053D01*
X173087223Y-137292315D01*
X172771609Y-137503201D01*
X172503201Y-137771609D01*
X172292315Y-138087223D01*
X172147053Y-138437915D01*
X172073000Y-138810207D01*
X164650652Y-138810207D01*
X164618199Y-138761639D01*
X164238361Y-138381801D01*
X163791719Y-138083364D01*
X163295437Y-137877797D01*
X162768586Y-137773000D01*
X162231414Y-137773000D01*
X161704563Y-137877797D01*
X161208281Y-138083364D01*
X160761639Y-138381801D01*
X160381801Y-138761639D01*
X160083364Y-139208281D01*
X159877797Y-139704563D01*
X159773000Y-140231414D01*
X139827000Y-140231414D01*
X139722203Y-139704563D01*
X139516636Y-139208281D01*
X139218199Y-138761639D01*
X138838361Y-138381801D01*
X138391719Y-138083364D01*
X137895437Y-137877797D01*
X137368586Y-137773000D01*
X136831414Y-137773000D01*
X136304563Y-137877797D01*
X135808281Y-138083364D01*
X135361639Y-138381801D01*
X134981801Y-138761639D01*
X134683364Y-139208281D01*
X134477797Y-139704563D01*
X134373000Y-140231414D01*
X75152000Y-140231414D01*
X75152000Y-136240660D01*
X86473000Y-136240660D01*
X86473000Y-136679340D01*
X86558582Y-137109592D01*
X86726458Y-137514880D01*
X86970176Y-137879630D01*
X87280370Y-138189824D01*
X87645120Y-138433542D01*
X88050408Y-138601418D01*
X88480660Y-138687000D01*
X88919340Y-138687000D01*
X89349592Y-138601418D01*
X89754880Y-138433542D01*
X90104400Y-138200000D01*
X99661928Y-138200000D01*
X99674188Y-138324482D01*
X99710498Y-138444180D01*
X99769463Y-138554494D01*
X99848815Y-138651185D01*
X99945506Y-138730537D01*
X100055820Y-138789502D01*
X100175518Y-138825812D01*
X100300000Y-138838072D01*
X101214250Y-138835000D01*
X101373000Y-138676250D01*
X101373000Y-137127000D01*
X101627000Y-137127000D01*
X101627000Y-138676250D01*
X101785750Y-138835000D01*
X102700000Y-138838072D01*
X102824482Y-138825812D01*
X102944180Y-138789502D01*
X103054494Y-138730537D01*
X103151185Y-138651185D01*
X103230537Y-138554494D01*
X103289502Y-138444180D01*
X103325812Y-138324482D01*
X103338072Y-138200000D01*
X121661928Y-138200000D01*
X121674188Y-138324482D01*
X121710498Y-138444180D01*
X121769463Y-138554494D01*
X121848815Y-138651185D01*
X121945506Y-138730537D01*
X122055820Y-138789502D01*
X122175518Y-138825812D01*
X122300000Y-138838072D01*
X123214250Y-138835000D01*
X123373000Y-138676250D01*
X123373000Y-137127000D01*
X123627000Y-137127000D01*
X123627000Y-138676250D01*
X123785750Y-138835000D01*
X124700000Y-138838072D01*
X124824482Y-138825812D01*
X124944180Y-138789502D01*
X125054494Y-138730537D01*
X125151185Y-138651185D01*
X125230537Y-138554494D01*
X125289502Y-138444180D01*
X125325812Y-138324482D01*
X125338072Y-138200000D01*
X125335000Y-137285750D01*
X125176250Y-137127000D01*
X123627000Y-137127000D01*
X123373000Y-137127000D01*
X121823750Y-137127000D01*
X121665000Y-137285750D01*
X121661928Y-138200000D01*
X103338072Y-138200000D01*
X103335000Y-137285750D01*
X103176250Y-137127000D01*
X101627000Y-137127000D01*
X101373000Y-137127000D01*
X99823750Y-137127000D01*
X99665000Y-137285750D01*
X99661928Y-138200000D01*
X90104400Y-138200000D01*
X90119630Y-138189824D01*
X90429824Y-137879630D01*
X90673542Y-137514880D01*
X90841418Y-137109592D01*
X90927000Y-136679340D01*
X90927000Y-136240660D01*
X90841418Y-135810408D01*
X90837107Y-135800000D01*
X99661928Y-135800000D01*
X99665000Y-136714250D01*
X99823750Y-136873000D01*
X101373000Y-136873000D01*
X101373000Y-135323750D01*
X101627000Y-135323750D01*
X101627000Y-136873000D01*
X103176250Y-136873000D01*
X103335000Y-136714250D01*
X103338072Y-135800000D01*
X121661928Y-135800000D01*
X121665000Y-136714250D01*
X121823750Y-136873000D01*
X123373000Y-136873000D01*
X123373000Y-135323750D01*
X123627000Y-135323750D01*
X123627000Y-136873000D01*
X125176250Y-136873000D01*
X125335000Y-136714250D01*
X125338072Y-135800000D01*
X125325812Y-135675518D01*
X125289502Y-135555820D01*
X125230537Y-135445506D01*
X125151185Y-135348815D01*
X125054494Y-135269463D01*
X124944180Y-135210498D01*
X124824482Y-135174188D01*
X124700000Y-135161928D01*
X123785750Y-135165000D01*
X123627000Y-135323750D01*
X123373000Y-135323750D01*
X123214250Y-135165000D01*
X122300000Y-135161928D01*
X122175518Y-135174188D01*
X122055820Y-135210498D01*
X121945506Y-135269463D01*
X121848815Y-135348815D01*
X121769463Y-135445506D01*
X121710498Y-135555820D01*
X121674188Y-135675518D01*
X121661928Y-135800000D01*
X103338072Y-135800000D01*
X103325812Y-135675518D01*
X103289502Y-135555820D01*
X103230537Y-135445506D01*
X103151185Y-135348815D01*
X103054494Y-135269463D01*
X102944180Y-135210498D01*
X102824482Y-135174188D01*
X102700000Y-135161928D01*
X101785750Y-135165000D01*
X101627000Y-135323750D01*
X101373000Y-135323750D01*
X101214250Y-135165000D01*
X100300000Y-135161928D01*
X100175518Y-135174188D01*
X100055820Y-135210498D01*
X99945506Y-135269463D01*
X99848815Y-135348815D01*
X99769463Y-135445506D01*
X99710498Y-135555820D01*
X99674188Y-135675518D01*
X99661928Y-135800000D01*
X90837107Y-135800000D01*
X90673542Y-135405120D01*
X90429824Y-135040370D01*
X90337851Y-134948397D01*
X182096410Y-134948397D01*
X182171716Y-135190000D01*
X182096410Y-135431603D01*
X182945202Y-136280395D01*
X183793994Y-135431603D01*
X183718688Y-135190000D01*
X183793994Y-134948397D01*
X184636410Y-134948397D01*
X184711716Y-135190000D01*
X184636410Y-135431603D01*
X185485202Y-136280395D01*
X186333994Y-135431603D01*
X186258688Y-135190000D01*
X186333994Y-134948397D01*
X185485202Y-134099605D01*
X184636410Y-134948397D01*
X183793994Y-134948397D01*
X182945202Y-134099605D01*
X182096410Y-134948397D01*
X90337851Y-134948397D01*
X90119630Y-134730176D01*
X89754880Y-134486458D01*
X89349592Y-134318582D01*
X88919340Y-134233000D01*
X88480660Y-134233000D01*
X88050408Y-134318582D01*
X87645120Y-134486458D01*
X87280370Y-134730176D01*
X86970176Y-135040370D01*
X86726458Y-135405120D01*
X86558582Y-135810408D01*
X86473000Y-136240660D01*
X75152000Y-136240660D01*
X75152000Y-133988531D01*
X181454591Y-133988531D01*
X181496603Y-134278019D01*
X181594283Y-134553747D01*
X181667730Y-134691157D01*
X181916805Y-134768792D01*
X182765597Y-133920000D01*
X183124807Y-133920000D01*
X183973599Y-134768792D01*
X184215202Y-134693486D01*
X184456805Y-134768792D01*
X185305597Y-133920000D01*
X185664807Y-133920000D01*
X186513599Y-134768792D01*
X186762674Y-134691157D01*
X186888573Y-134427117D01*
X186960541Y-134143589D01*
X186975813Y-133851469D01*
X186933801Y-133561981D01*
X186836121Y-133286253D01*
X186762674Y-133148843D01*
X186513599Y-133071208D01*
X185664807Y-133920000D01*
X185305597Y-133920000D01*
X184456805Y-133071208D01*
X184215202Y-133146514D01*
X183973599Y-133071208D01*
X183124807Y-133920000D01*
X182765597Y-133920000D01*
X181916805Y-133071208D01*
X181667730Y-133148843D01*
X181541831Y-133412883D01*
X181469863Y-133696411D01*
X181454591Y-133988531D01*
X75152000Y-133988531D01*
X75152000Y-132408397D01*
X182096410Y-132408397D01*
X182171716Y-132650000D01*
X182096410Y-132891603D01*
X182945202Y-133740395D01*
X183793994Y-132891603D01*
X183718688Y-132650000D01*
X183793994Y-132408397D01*
X184636410Y-132408397D01*
X184711716Y-132650000D01*
X184636410Y-132891603D01*
X185485202Y-133740395D01*
X186333994Y-132891603D01*
X186258688Y-132650000D01*
X186333994Y-132408397D01*
X185485202Y-131559605D01*
X184636410Y-132408397D01*
X183793994Y-132408397D01*
X182945202Y-131559605D01*
X182096410Y-132408397D01*
X75152000Y-132408397D01*
X75152000Y-129189040D01*
X172608091Y-129189040D01*
X172702930Y-129453881D01*
X172847615Y-129695131D01*
X173036586Y-129903519D01*
X173262580Y-130071037D01*
X173516913Y-130191246D01*
X173650961Y-130231904D01*
X173873000Y-130109915D01*
X173873000Y-128967000D01*
X174127000Y-128967000D01*
X174127000Y-130109915D01*
X174349039Y-130231904D01*
X174483087Y-130191246D01*
X174737420Y-130071037D01*
X174963414Y-129903519D01*
X175152385Y-129695131D01*
X175297070Y-129453881D01*
X175391909Y-129189040D01*
X175270624Y-128967000D01*
X174127000Y-128967000D01*
X173873000Y-128967000D01*
X172729376Y-128967000D01*
X172608091Y-129189040D01*
X75152000Y-129189040D01*
X75152000Y-125200000D01*
X86467547Y-125200000D01*
X86467547Y-127400000D01*
X86489307Y-127620931D01*
X86553750Y-127833371D01*
X86658400Y-128029157D01*
X86799235Y-128200765D01*
X86970843Y-128341600D01*
X87166629Y-128446250D01*
X87379069Y-128510693D01*
X87600000Y-128532453D01*
X89800000Y-128532453D01*
X90020931Y-128510693D01*
X90085981Y-128490960D01*
X172608091Y-128490960D01*
X172729376Y-128713000D01*
X173873000Y-128713000D01*
X173873000Y-127570085D01*
X174127000Y-127570085D01*
X174127000Y-128713000D01*
X175270624Y-128713000D01*
X175307613Y-128645282D01*
X180968202Y-128645282D01*
X180968202Y-129034718D01*
X181044177Y-129416670D01*
X181193207Y-129776461D01*
X181409566Y-130100264D01*
X181684938Y-130375636D01*
X181914859Y-130529265D01*
X181916803Y-130531209D01*
X181667730Y-130608843D01*
X181541831Y-130872883D01*
X181469863Y-131156411D01*
X181454591Y-131448531D01*
X181496603Y-131738019D01*
X181594283Y-132013747D01*
X181667730Y-132151157D01*
X181916805Y-132228792D01*
X182765597Y-131380000D01*
X182751455Y-131365858D01*
X182931060Y-131186253D01*
X182945202Y-131200395D01*
X182959345Y-131186253D01*
X183138950Y-131365858D01*
X183124807Y-131380000D01*
X183973599Y-132228792D01*
X184215202Y-132153486D01*
X184456805Y-132228792D01*
X185305597Y-131380000D01*
X185291455Y-131365858D01*
X185471060Y-131186253D01*
X185485202Y-131200395D01*
X185499345Y-131186253D01*
X185678950Y-131365858D01*
X185664807Y-131380000D01*
X186513599Y-132228792D01*
X186762674Y-132151157D01*
X186888573Y-131887117D01*
X186960541Y-131603589D01*
X186975813Y-131311469D01*
X186933801Y-131021981D01*
X186836121Y-130746253D01*
X186762674Y-130608843D01*
X186513601Y-130531209D01*
X186515545Y-130529265D01*
X186745466Y-130375636D01*
X187020838Y-130100264D01*
X187237197Y-129776461D01*
X187386227Y-129416670D01*
X187462202Y-129034718D01*
X187462202Y-128645282D01*
X187386227Y-128263330D01*
X187237197Y-127903539D01*
X187020838Y-127579736D01*
X186745466Y-127304364D01*
X186421663Y-127088005D01*
X186061872Y-126938975D01*
X185679920Y-126863000D01*
X185290484Y-126863000D01*
X184908532Y-126938975D01*
X184548741Y-127088005D01*
X184224938Y-127304364D01*
X184215202Y-127314100D01*
X184205466Y-127304364D01*
X183881663Y-127088005D01*
X183521872Y-126938975D01*
X183139920Y-126863000D01*
X182750484Y-126863000D01*
X182368532Y-126938975D01*
X182008741Y-127088005D01*
X181684938Y-127304364D01*
X181409566Y-127579736D01*
X181193207Y-127903539D01*
X181044177Y-128263330D01*
X180968202Y-128645282D01*
X175307613Y-128645282D01*
X175391909Y-128490960D01*
X175297070Y-128226119D01*
X175152385Y-127984869D01*
X174963414Y-127776481D01*
X174737420Y-127608963D01*
X174483087Y-127488754D01*
X174349039Y-127448096D01*
X174127000Y-127570085D01*
X173873000Y-127570085D01*
X173650961Y-127448096D01*
X173516913Y-127488754D01*
X173262580Y-127608963D01*
X173036586Y-127776481D01*
X172847615Y-127984869D01*
X172702930Y-128226119D01*
X172608091Y-128490960D01*
X90085981Y-128490960D01*
X90233371Y-128446250D01*
X90429157Y-128341600D01*
X90600765Y-128200765D01*
X90741600Y-128029157D01*
X90846250Y-127833371D01*
X90910693Y-127620931D01*
X90932453Y-127400000D01*
X90932453Y-126492702D01*
X137186903Y-126492702D01*
X137258486Y-126736671D01*
X137513996Y-126857571D01*
X137788184Y-126926300D01*
X138070512Y-126940217D01*
X138350130Y-126898787D01*
X138616292Y-126803603D01*
X138741514Y-126736671D01*
X138813097Y-126492702D01*
X138000000Y-125679605D01*
X137186903Y-126492702D01*
X90932453Y-126492702D01*
X90932453Y-125200000D01*
X90910693Y-124979069D01*
X90846250Y-124766629D01*
X90741600Y-124570843D01*
X90600765Y-124399235D01*
X90429157Y-124258400D01*
X90233371Y-124153750D01*
X90020931Y-124089307D01*
X89800000Y-124067547D01*
X87600000Y-124067547D01*
X87379069Y-124089307D01*
X87166629Y-124153750D01*
X86970843Y-124258400D01*
X86799235Y-124399235D01*
X86658400Y-124570843D01*
X86553750Y-124766629D01*
X86489307Y-124979069D01*
X86467547Y-125200000D01*
X75152000Y-125200000D01*
X75152000Y-120825000D01*
X82117547Y-120825000D01*
X82117547Y-122575000D01*
X82156120Y-122966635D01*
X82270355Y-123343219D01*
X82455864Y-123690281D01*
X82705516Y-123994484D01*
X83009719Y-124244136D01*
X83356781Y-124429645D01*
X83733365Y-124543880D01*
X84125000Y-124582453D01*
X85875000Y-124582453D01*
X86266635Y-124543880D01*
X86643219Y-124429645D01*
X86990281Y-124244136D01*
X87294484Y-123994484D01*
X87544136Y-123690281D01*
X87729645Y-123343219D01*
X87843880Y-122966635D01*
X87882453Y-122575000D01*
X87882453Y-120825000D01*
X87843880Y-120433365D01*
X87794571Y-120270811D01*
X99173000Y-120270811D01*
X99173000Y-120729189D01*
X99262426Y-121178761D01*
X99437840Y-121602248D01*
X99692501Y-121983376D01*
X100016624Y-122307499D01*
X100397752Y-122562160D01*
X100821239Y-122737574D01*
X101270811Y-122827000D01*
X101729189Y-122827000D01*
X102178761Y-122737574D01*
X102602248Y-122562160D01*
X102983376Y-122307499D01*
X103307499Y-121983376D01*
X103444739Y-121777980D01*
X122401626Y-121777980D01*
X122521514Y-122062836D01*
X122845210Y-122223699D01*
X123194069Y-122318322D01*
X123554684Y-122343067D01*
X123913198Y-122296985D01*
X124201809Y-122200000D01*
X136067547Y-122200000D01*
X136067547Y-123800000D01*
X136089307Y-124020931D01*
X136153750Y-124233371D01*
X136258400Y-124429157D01*
X136399235Y-124600765D01*
X136570843Y-124741600D01*
X136730851Y-124827126D01*
X136642429Y-125013996D01*
X136573700Y-125288184D01*
X136559783Y-125570512D01*
X136601213Y-125850130D01*
X136696397Y-126116292D01*
X136763329Y-126241514D01*
X137007298Y-126313097D01*
X137820395Y-125500000D01*
X137806253Y-125485858D01*
X137985858Y-125306253D01*
X138000000Y-125320395D01*
X138014143Y-125306253D01*
X138193748Y-125485858D01*
X138179605Y-125500000D01*
X138992702Y-126313097D01*
X139236671Y-126241514D01*
X139357571Y-125986004D01*
X139426300Y-125711816D01*
X139440217Y-125429488D01*
X139398787Y-125149870D01*
X139309430Y-124900000D01*
X141767547Y-124900000D01*
X141767547Y-127100000D01*
X141789307Y-127320931D01*
X141853750Y-127533371D01*
X141958400Y-127729157D01*
X142099235Y-127900765D01*
X142270843Y-128041600D01*
X142466629Y-128146250D01*
X142679069Y-128210693D01*
X142900000Y-128232453D01*
X145100000Y-128232453D01*
X145320931Y-128210693D01*
X145533371Y-128146250D01*
X145729157Y-128041600D01*
X145900765Y-127900765D01*
X146041600Y-127729157D01*
X146146250Y-127533371D01*
X146210693Y-127320931D01*
X146232453Y-127100000D01*
X146232453Y-125780660D01*
X151933000Y-125780660D01*
X151933000Y-126219340D01*
X152018582Y-126649592D01*
X152186458Y-127054880D01*
X152430176Y-127419630D01*
X152740370Y-127729824D01*
X153105120Y-127973542D01*
X153510408Y-128141418D01*
X153940660Y-128227000D01*
X154379340Y-128227000D01*
X154809592Y-128141418D01*
X155214880Y-127973542D01*
X155579630Y-127729824D01*
X155889824Y-127419630D01*
X156133542Y-127054880D01*
X156301418Y-126649592D01*
X156387000Y-126219340D01*
X156387000Y-125780660D01*
X156301418Y-125350408D01*
X156133542Y-124945120D01*
X155889824Y-124580370D01*
X155802156Y-124492702D01*
X174186903Y-124492702D01*
X174258486Y-124736671D01*
X174513996Y-124857571D01*
X174788184Y-124926300D01*
X175070512Y-124940217D01*
X175350130Y-124898787D01*
X175616292Y-124803603D01*
X175741514Y-124736671D01*
X175813097Y-124492702D01*
X175000000Y-123679605D01*
X174186903Y-124492702D01*
X155802156Y-124492702D01*
X155579630Y-124270176D01*
X155214880Y-124026458D01*
X154809592Y-123858582D01*
X154379340Y-123773000D01*
X153940660Y-123773000D01*
X153510408Y-123858582D01*
X153105120Y-124026458D01*
X152740370Y-124270176D01*
X152430176Y-124580370D01*
X152186458Y-124945120D01*
X152018582Y-125350408D01*
X151933000Y-125780660D01*
X146232453Y-125780660D01*
X146232453Y-124900000D01*
X146210693Y-124679069D01*
X146146250Y-124466629D01*
X146041600Y-124270843D01*
X145917520Y-124119651D01*
X146047500Y-124132453D01*
X147952500Y-124132453D01*
X148173431Y-124110693D01*
X148385871Y-124046250D01*
X148581657Y-123941600D01*
X148753265Y-123800765D01*
X148894100Y-123629157D01*
X148952117Y-123520616D01*
X149167020Y-123590563D01*
X149413000Y-123470594D01*
X149413000Y-122127000D01*
X149393000Y-122127000D01*
X149393000Y-121873000D01*
X149413000Y-121873000D01*
X149413000Y-120529406D01*
X149667000Y-120529406D01*
X149667000Y-121873000D01*
X149687000Y-121873000D01*
X149687000Y-122127000D01*
X149667000Y-122127000D01*
X149667000Y-123470594D01*
X149912980Y-123590563D01*
X150131094Y-123519571D01*
X150406923Y-123375969D01*
X150451049Y-123340551D01*
X150602457Y-123525043D01*
X150919102Y-123784906D01*
X151280361Y-123978003D01*
X151672348Y-124096911D01*
X152080000Y-124137061D01*
X152487653Y-124096911D01*
X152879640Y-123978003D01*
X153240898Y-123784906D01*
X153557543Y-123525043D01*
X153817406Y-123208398D01*
X154010503Y-122847139D01*
X154129411Y-122455152D01*
X154159500Y-122149651D01*
X154159500Y-121850348D01*
X154129411Y-121544847D01*
X154010503Y-121152860D01*
X153875347Y-120900000D01*
X155767547Y-120900000D01*
X155767547Y-123100000D01*
X155789307Y-123320931D01*
X155853750Y-123533371D01*
X155958400Y-123729157D01*
X156099235Y-123900765D01*
X156270843Y-124041600D01*
X156466629Y-124146250D01*
X156679069Y-124210693D01*
X156900000Y-124232453D01*
X159100000Y-124232453D01*
X159320931Y-124210693D01*
X159533371Y-124146250D01*
X159729157Y-124041600D01*
X159900765Y-123900765D01*
X160041600Y-123729157D01*
X160146250Y-123533371D01*
X160210693Y-123320931D01*
X160232453Y-123100000D01*
X160232453Y-122396122D01*
X166470825Y-122396122D01*
X166535425Y-122609094D01*
X166685469Y-122914329D01*
X166892178Y-123184427D01*
X167147609Y-123409008D01*
X167441946Y-123579442D01*
X167763877Y-123689179D01*
X168033000Y-123571600D01*
X168033000Y-122127000D01*
X168287000Y-122127000D01*
X168287000Y-123571600D01*
X168556123Y-123689179D01*
X168878054Y-123579442D01*
X169172391Y-123409008D01*
X169427822Y-123184427D01*
X169634531Y-122914329D01*
X169784575Y-122609094D01*
X169849175Y-122396122D01*
X169731125Y-122127000D01*
X168287000Y-122127000D01*
X168033000Y-122127000D01*
X166588875Y-122127000D01*
X166470825Y-122396122D01*
X160232453Y-122396122D01*
X160232453Y-121603878D01*
X166470825Y-121603878D01*
X166588875Y-121873000D01*
X168033000Y-121873000D01*
X168033000Y-120428400D01*
X168287000Y-120428400D01*
X168287000Y-121873000D01*
X169731125Y-121873000D01*
X169849175Y-121603878D01*
X169784575Y-121390906D01*
X169634531Y-121085671D01*
X169427822Y-120815573D01*
X169172391Y-120590992D01*
X168878054Y-120420558D01*
X168556123Y-120310821D01*
X168287000Y-120428400D01*
X168033000Y-120428400D01*
X167763877Y-120310821D01*
X167441946Y-120420558D01*
X167147609Y-120590992D01*
X166892178Y-120815573D01*
X166685469Y-121085671D01*
X166535425Y-121390906D01*
X166470825Y-121603878D01*
X160232453Y-121603878D01*
X160232453Y-120900000D01*
X160210693Y-120679069D01*
X160146250Y-120466629D01*
X160041600Y-120270843D01*
X159983461Y-120200000D01*
X173067547Y-120200000D01*
X173067547Y-121800000D01*
X173089307Y-122020931D01*
X173153750Y-122233371D01*
X173258400Y-122429157D01*
X173399235Y-122600765D01*
X173570843Y-122741600D01*
X173730851Y-122827126D01*
X173642429Y-123013996D01*
X173573700Y-123288184D01*
X173559783Y-123570512D01*
X173601213Y-123850130D01*
X173696397Y-124116292D01*
X173763329Y-124241514D01*
X174007298Y-124313097D01*
X174820395Y-123500000D01*
X174806253Y-123485858D01*
X174985858Y-123306253D01*
X175000000Y-123320395D01*
X175014143Y-123306253D01*
X175193748Y-123485858D01*
X175179605Y-123500000D01*
X175992702Y-124313097D01*
X176236671Y-124241514D01*
X176357571Y-123986004D01*
X176426300Y-123711816D01*
X176440217Y-123429488D01*
X176398787Y-123149870D01*
X176303603Y-122883708D01*
X176272424Y-122825376D01*
X176429157Y-122741600D01*
X176600765Y-122600765D01*
X176741600Y-122429157D01*
X176846250Y-122233371D01*
X176910693Y-122020931D01*
X176932453Y-121800000D01*
X176932453Y-120200000D01*
X176910693Y-119979069D01*
X176846250Y-119766629D01*
X176741600Y-119570843D01*
X176600765Y-119399235D01*
X176429157Y-119258400D01*
X176233371Y-119153750D01*
X176020931Y-119089307D01*
X175800000Y-119067547D01*
X174200000Y-119067547D01*
X173979069Y-119089307D01*
X173766629Y-119153750D01*
X173570843Y-119258400D01*
X173399235Y-119399235D01*
X173258400Y-119570843D01*
X173153750Y-119766629D01*
X173089307Y-119979069D01*
X173067547Y-120200000D01*
X159983461Y-120200000D01*
X159900765Y-120099235D01*
X159729157Y-119958400D01*
X159533371Y-119853750D01*
X159320931Y-119789307D01*
X159100000Y-119767547D01*
X156900000Y-119767547D01*
X156679069Y-119789307D01*
X156466629Y-119853750D01*
X156270843Y-119958400D01*
X156099235Y-120099235D01*
X155958400Y-120270843D01*
X155853750Y-120466629D01*
X155789307Y-120679069D01*
X155767547Y-120900000D01*
X153875347Y-120900000D01*
X153817406Y-120791602D01*
X153557543Y-120474957D01*
X153240898Y-120215094D01*
X152879639Y-120021997D01*
X152487652Y-119903089D01*
X152080000Y-119862939D01*
X151672347Y-119903089D01*
X151280360Y-120021997D01*
X150919102Y-120215094D01*
X150602457Y-120474957D01*
X150451049Y-120659449D01*
X150406923Y-120624031D01*
X150131094Y-120480429D01*
X149912980Y-120409437D01*
X149667000Y-120529406D01*
X149413000Y-120529406D01*
X149167020Y-120409437D01*
X148952117Y-120479384D01*
X148894100Y-120370843D01*
X148753265Y-120199235D01*
X148581657Y-120058400D01*
X148385871Y-119953750D01*
X148173431Y-119889307D01*
X147952500Y-119867547D01*
X146047500Y-119867547D01*
X145826569Y-119889307D01*
X145614129Y-119953750D01*
X145418343Y-120058400D01*
X145246735Y-120199235D01*
X145105900Y-120370843D01*
X145001250Y-120566629D01*
X144936807Y-120779069D01*
X144915047Y-121000000D01*
X144915047Y-123000000D01*
X144936807Y-123220931D01*
X145001250Y-123433371D01*
X145105900Y-123629157D01*
X145229980Y-123780349D01*
X145100000Y-123767547D01*
X142900000Y-123767547D01*
X142679069Y-123789307D01*
X142466629Y-123853750D01*
X142270843Y-123958400D01*
X142099235Y-124099235D01*
X141958400Y-124270843D01*
X141853750Y-124466629D01*
X141789307Y-124679069D01*
X141767547Y-124900000D01*
X139309430Y-124900000D01*
X139303603Y-124883708D01*
X139272424Y-124825376D01*
X139429157Y-124741600D01*
X139600765Y-124600765D01*
X139741600Y-124429157D01*
X139846250Y-124233371D01*
X139910693Y-124020931D01*
X139932453Y-123800000D01*
X139932453Y-122200000D01*
X139910693Y-121979069D01*
X139846250Y-121766629D01*
X139741600Y-121570843D01*
X139600765Y-121399235D01*
X139429157Y-121258400D01*
X139233371Y-121153750D01*
X139020931Y-121089307D01*
X138800000Y-121067547D01*
X137200000Y-121067547D01*
X136979069Y-121089307D01*
X136766629Y-121153750D01*
X136570843Y-121258400D01*
X136399235Y-121399235D01*
X136258400Y-121570843D01*
X136153750Y-121766629D01*
X136089307Y-121979069D01*
X136067547Y-122200000D01*
X124201809Y-122200000D01*
X124255833Y-122181846D01*
X124478486Y-122062836D01*
X124598374Y-121777980D01*
X123500000Y-120679605D01*
X122401626Y-121777980D01*
X103444739Y-121777980D01*
X103562160Y-121602248D01*
X103737574Y-121178761D01*
X103827000Y-120729189D01*
X103827000Y-120554684D01*
X121656933Y-120554684D01*
X121703015Y-120913198D01*
X121818154Y-121255833D01*
X121937164Y-121478486D01*
X122222020Y-121598374D01*
X123320395Y-120500000D01*
X123679605Y-120500000D01*
X124777980Y-121598374D01*
X125062836Y-121478486D01*
X125223699Y-121154790D01*
X125318322Y-120805931D01*
X125343067Y-120445316D01*
X125296985Y-120086802D01*
X125181846Y-119744167D01*
X125062836Y-119521514D01*
X124777980Y-119401626D01*
X123679605Y-120500000D01*
X123320395Y-120500000D01*
X122222020Y-119401626D01*
X121937164Y-119521514D01*
X121776301Y-119845210D01*
X121681678Y-120194069D01*
X121656933Y-120554684D01*
X103827000Y-120554684D01*
X103827000Y-120270811D01*
X103737574Y-119821239D01*
X103562160Y-119397752D01*
X103444740Y-119222020D01*
X122401626Y-119222020D01*
X123500000Y-120320395D01*
X124598374Y-119222020D01*
X124478486Y-118937164D01*
X124154790Y-118776301D01*
X123805931Y-118681678D01*
X123445316Y-118656933D01*
X123086802Y-118703015D01*
X122744167Y-118818154D01*
X122521514Y-118937164D01*
X122401626Y-119222020D01*
X103444740Y-119222020D01*
X103307499Y-119016624D01*
X102983376Y-118692501D01*
X102602248Y-118437840D01*
X102178761Y-118262426D01*
X101729189Y-118173000D01*
X101270811Y-118173000D01*
X100821239Y-118262426D01*
X100397752Y-118437840D01*
X100016624Y-118692501D01*
X99692501Y-119016624D01*
X99437840Y-119397752D01*
X99262426Y-119821239D01*
X99173000Y-120270811D01*
X87794571Y-120270811D01*
X87729645Y-120056781D01*
X87636464Y-119882453D01*
X89750000Y-119882453D01*
X89970931Y-119860693D01*
X90183371Y-119796250D01*
X90379157Y-119691600D01*
X90550765Y-119550765D01*
X90691600Y-119379157D01*
X90796250Y-119183371D01*
X90860693Y-118970931D01*
X90882453Y-118750000D01*
X90882453Y-116231414D01*
X134373000Y-116231414D01*
X134373000Y-116768586D01*
X134477797Y-117295437D01*
X134683364Y-117791719D01*
X134981801Y-118238361D01*
X135361639Y-118618199D01*
X135808281Y-118916636D01*
X136304563Y-119122203D01*
X136831414Y-119227000D01*
X137368586Y-119227000D01*
X137895437Y-119122203D01*
X138391719Y-118916636D01*
X138838361Y-118618199D01*
X139218199Y-118238361D01*
X139516636Y-117791719D01*
X139722203Y-117295437D01*
X139827000Y-116768586D01*
X139827000Y-116231414D01*
X159673000Y-116231414D01*
X159673000Y-116768586D01*
X159777797Y-117295437D01*
X159983364Y-117791719D01*
X160281801Y-118238361D01*
X160661639Y-118618199D01*
X161108281Y-118916636D01*
X161604563Y-119122203D01*
X162131414Y-119227000D01*
X162668586Y-119227000D01*
X163195437Y-119122203D01*
X163691719Y-118916636D01*
X164138361Y-118618199D01*
X164518199Y-118238361D01*
X164816636Y-117791719D01*
X165022203Y-117295437D01*
X165127000Y-116768586D01*
X165127000Y-116231414D01*
X165022203Y-115704563D01*
X164816636Y-115208281D01*
X164550652Y-114810207D01*
X169073000Y-114810207D01*
X169073000Y-115189793D01*
X169147053Y-115562085D01*
X169292315Y-115912777D01*
X169503201Y-116228391D01*
X169771609Y-116496799D01*
X170087223Y-116707685D01*
X170437915Y-116852947D01*
X170810207Y-116927000D01*
X171189793Y-116927000D01*
X171562085Y-116852947D01*
X171912777Y-116707685D01*
X172228391Y-116496799D01*
X172496799Y-116228391D01*
X172707685Y-115912777D01*
X172852947Y-115562085D01*
X172927000Y-115189793D01*
X172927000Y-114810207D01*
X172852947Y-114437915D01*
X172707685Y-114087223D01*
X172496799Y-113771609D01*
X172228391Y-113503201D01*
X171912777Y-113292315D01*
X171562085Y-113147053D01*
X171189793Y-113073000D01*
X170810207Y-113073000D01*
X170437915Y-113147053D01*
X170087223Y-113292315D01*
X169771609Y-113503201D01*
X169503201Y-113771609D01*
X169292315Y-114087223D01*
X169147053Y-114437915D01*
X169073000Y-114810207D01*
X164550652Y-114810207D01*
X164518199Y-114761639D01*
X164138361Y-114381801D01*
X163691719Y-114083364D01*
X163195437Y-113877797D01*
X162668586Y-113773000D01*
X162131414Y-113773000D01*
X161604563Y-113877797D01*
X161108281Y-114083364D01*
X160661639Y-114381801D01*
X160281801Y-114761639D01*
X159983364Y-115208281D01*
X159777797Y-115704563D01*
X159673000Y-116231414D01*
X139827000Y-116231414D01*
X139722203Y-115704563D01*
X139516636Y-115208281D01*
X139218199Y-114761639D01*
X138838361Y-114381801D01*
X138391719Y-114083364D01*
X137895437Y-113877797D01*
X137368586Y-113773000D01*
X136831414Y-113773000D01*
X136304563Y-113877797D01*
X135808281Y-114083364D01*
X135361639Y-114381801D01*
X134981801Y-114761639D01*
X134683364Y-115208281D01*
X134477797Y-115704563D01*
X134373000Y-116231414D01*
X90882453Y-116231414D01*
X90882453Y-115250000D01*
X90860693Y-115029069D01*
X90796250Y-114816629D01*
X90691600Y-114620843D01*
X90550765Y-114449235D01*
X90379157Y-114308400D01*
X90183371Y-114203750D01*
X90171009Y-114200000D01*
X99661928Y-114200000D01*
X99674188Y-114324482D01*
X99710498Y-114444180D01*
X99769463Y-114554494D01*
X99848815Y-114651185D01*
X99945506Y-114730537D01*
X100055820Y-114789502D01*
X100175518Y-114825812D01*
X100300000Y-114838072D01*
X101214250Y-114835000D01*
X101373000Y-114676250D01*
X101373000Y-113127000D01*
X101627000Y-113127000D01*
X101627000Y-114676250D01*
X101785750Y-114835000D01*
X102700000Y-114838072D01*
X102824482Y-114825812D01*
X102944180Y-114789502D01*
X103054494Y-114730537D01*
X103151185Y-114651185D01*
X103230537Y-114554494D01*
X103289502Y-114444180D01*
X103325812Y-114324482D01*
X103338072Y-114200000D01*
X103335000Y-113285750D01*
X103176250Y-113127000D01*
X101627000Y-113127000D01*
X101373000Y-113127000D01*
X99823750Y-113127000D01*
X99665000Y-113285750D01*
X99661928Y-114200000D01*
X90171009Y-114200000D01*
X89970931Y-114139307D01*
X89750000Y-114117547D01*
X86250000Y-114117547D01*
X86029069Y-114139307D01*
X85816629Y-114203750D01*
X85620843Y-114308400D01*
X85449235Y-114449235D01*
X85308400Y-114620843D01*
X85203750Y-114816629D01*
X85139307Y-115029069D01*
X85117547Y-115250000D01*
X85117547Y-118750000D01*
X85124200Y-118817547D01*
X84131419Y-118817547D01*
X84138072Y-118750000D01*
X84135000Y-117285750D01*
X83976250Y-117127000D01*
X82127000Y-117127000D01*
X82127000Y-119226250D01*
X82285750Y-119385000D01*
X82729148Y-119386122D01*
X82705516Y-119405516D01*
X82455864Y-119709719D01*
X82270355Y-120056781D01*
X82156120Y-120433365D01*
X82117547Y-120825000D01*
X75152000Y-120825000D01*
X75152000Y-118750000D01*
X79861928Y-118750000D01*
X79874188Y-118874482D01*
X79910498Y-118994180D01*
X79969463Y-119104494D01*
X80048815Y-119201185D01*
X80145506Y-119280537D01*
X80255820Y-119339502D01*
X80375518Y-119375812D01*
X80500000Y-119388072D01*
X81714250Y-119385000D01*
X81873000Y-119226250D01*
X81873000Y-117127000D01*
X80023750Y-117127000D01*
X79865000Y-117285750D01*
X79861928Y-118750000D01*
X75152000Y-118750000D01*
X75152000Y-115250000D01*
X79861928Y-115250000D01*
X79865000Y-116714250D01*
X80023750Y-116873000D01*
X81873000Y-116873000D01*
X81873000Y-114773750D01*
X82127000Y-114773750D01*
X82127000Y-116873000D01*
X83976250Y-116873000D01*
X84135000Y-116714250D01*
X84138072Y-115250000D01*
X84125812Y-115125518D01*
X84089502Y-115005820D01*
X84030537Y-114895506D01*
X83951185Y-114798815D01*
X83854494Y-114719463D01*
X83744180Y-114660498D01*
X83624482Y-114624188D01*
X83500000Y-114611928D01*
X82285750Y-114615000D01*
X82127000Y-114773750D01*
X81873000Y-114773750D01*
X81714250Y-114615000D01*
X80500000Y-114611928D01*
X80375518Y-114624188D01*
X80255820Y-114660498D01*
X80145506Y-114719463D01*
X80048815Y-114798815D01*
X79969463Y-114895506D01*
X79910498Y-115005820D01*
X79874188Y-115125518D01*
X79861928Y-115250000D01*
X75152000Y-115250000D01*
X75152000Y-111800000D01*
X99661928Y-111800000D01*
X99665000Y-112714250D01*
X99823750Y-112873000D01*
X101373000Y-112873000D01*
X101373000Y-111323750D01*
X101627000Y-111323750D01*
X101627000Y-112873000D01*
X103176250Y-112873000D01*
X103335000Y-112714250D01*
X103338072Y-111800000D01*
X121167547Y-111800000D01*
X121167547Y-114200000D01*
X121189307Y-114420931D01*
X121253750Y-114633371D01*
X121358400Y-114829157D01*
X121499235Y-115000765D01*
X121670843Y-115141600D01*
X121866629Y-115246250D01*
X122079069Y-115310693D01*
X122300000Y-115332453D01*
X124700000Y-115332453D01*
X124920931Y-115310693D01*
X125133371Y-115246250D01*
X125329157Y-115141600D01*
X125500765Y-115000765D01*
X125641600Y-114829157D01*
X125746250Y-114633371D01*
X125810693Y-114420931D01*
X125832453Y-114200000D01*
X125832453Y-111800000D01*
X125810693Y-111579069D01*
X125746250Y-111366629D01*
X125641600Y-111170843D01*
X125500765Y-110999235D01*
X125329157Y-110858400D01*
X125133371Y-110753750D01*
X124920931Y-110689307D01*
X124700000Y-110667547D01*
X122300000Y-110667547D01*
X122079069Y-110689307D01*
X121866629Y-110753750D01*
X121670843Y-110858400D01*
X121499235Y-110999235D01*
X121358400Y-111170843D01*
X121253750Y-111366629D01*
X121189307Y-111579069D01*
X121167547Y-111800000D01*
X103338072Y-111800000D01*
X103325812Y-111675518D01*
X103289502Y-111555820D01*
X103230537Y-111445506D01*
X103151185Y-111348815D01*
X103054494Y-111269463D01*
X102944180Y-111210498D01*
X102824482Y-111174188D01*
X102700000Y-111161928D01*
X101785750Y-111165000D01*
X101627000Y-111323750D01*
X101373000Y-111323750D01*
X101214250Y-111165000D01*
X100300000Y-111161928D01*
X100175518Y-111174188D01*
X100055820Y-111210498D01*
X99945506Y-111269463D01*
X99848815Y-111348815D01*
X99769463Y-111445506D01*
X99710498Y-111555820D01*
X99674188Y-111675518D01*
X99661928Y-111800000D01*
X75152000Y-111800000D01*
X75152000Y-107940660D01*
X86573000Y-107940660D01*
X86573000Y-108379340D01*
X86658582Y-108809592D01*
X86826458Y-109214880D01*
X87070176Y-109579630D01*
X87380370Y-109889824D01*
X87745120Y-110133542D01*
X88150408Y-110301418D01*
X88580660Y-110387000D01*
X89019340Y-110387000D01*
X89449592Y-110301418D01*
X89854880Y-110133542D01*
X90219630Y-109889824D01*
X90529824Y-109579630D01*
X90773542Y-109214880D01*
X90941418Y-108809592D01*
X91027000Y-108379340D01*
X91027000Y-107940660D01*
X90941418Y-107510408D01*
X90773542Y-107105120D01*
X90529824Y-106740370D01*
X90219630Y-106430176D01*
X89854880Y-106186458D01*
X89449592Y-106018582D01*
X89019340Y-105933000D01*
X88580660Y-105933000D01*
X88150408Y-106018582D01*
X87745120Y-106186458D01*
X87380370Y-106430176D01*
X87070176Y-106740370D01*
X86826458Y-107105120D01*
X86658582Y-107510408D01*
X86573000Y-107940660D01*
X75152000Y-107940660D01*
X75152000Y-105189040D01*
X169608091Y-105189040D01*
X169702930Y-105453881D01*
X169847615Y-105695131D01*
X170036586Y-105903519D01*
X170262580Y-106071037D01*
X170516913Y-106191246D01*
X170650961Y-106231904D01*
X170873000Y-106109915D01*
X170873000Y-104967000D01*
X171127000Y-104967000D01*
X171127000Y-106109915D01*
X171349039Y-106231904D01*
X171483087Y-106191246D01*
X171737420Y-106071037D01*
X171963414Y-105903519D01*
X172152385Y-105695131D01*
X172297070Y-105453881D01*
X172391909Y-105189040D01*
X172270624Y-104967000D01*
X171127000Y-104967000D01*
X170873000Y-104967000D01*
X169729376Y-104967000D01*
X169608091Y-105189040D01*
X75152000Y-105189040D01*
X75152000Y-101374998D01*
X78292547Y-101374998D01*
X78292547Y-103625002D01*
X78319110Y-103894705D01*
X78397780Y-104154043D01*
X78525532Y-104393051D01*
X78697458Y-104602542D01*
X78906949Y-104774468D01*
X79145957Y-104902220D01*
X79405295Y-104980890D01*
X79674998Y-105007453D01*
X81925002Y-105007453D01*
X82194705Y-104980890D01*
X82454043Y-104902220D01*
X82693051Y-104774468D01*
X82902542Y-104602542D01*
X82994115Y-104490960D01*
X169608091Y-104490960D01*
X169729376Y-104713000D01*
X170873000Y-104713000D01*
X170873000Y-103570085D01*
X171127000Y-103570085D01*
X171127000Y-104713000D01*
X172270624Y-104713000D01*
X172326772Y-104610207D01*
X173273000Y-104610207D01*
X173273000Y-104989793D01*
X173347053Y-105362085D01*
X173492315Y-105712777D01*
X173703201Y-106028391D01*
X173971609Y-106296799D01*
X174287223Y-106507685D01*
X174637915Y-106652947D01*
X175010207Y-106727000D01*
X175073002Y-106727000D01*
X175073001Y-112415550D01*
X174133568Y-113354984D01*
X173971609Y-113463201D01*
X173703201Y-113731609D01*
X173492315Y-114047223D01*
X173347053Y-114397915D01*
X173273000Y-114770207D01*
X173273000Y-115149793D01*
X173347053Y-115522085D01*
X173492315Y-115872777D01*
X173703201Y-116188391D01*
X173971609Y-116456799D01*
X174287223Y-116667685D01*
X174637915Y-116812947D01*
X175010207Y-116887000D01*
X175389793Y-116887000D01*
X175762085Y-116812947D01*
X176112777Y-116667685D01*
X176428391Y-116456799D01*
X176696799Y-116188391D01*
X176805016Y-116026432D01*
X178232106Y-114599344D01*
X178304189Y-114540187D01*
X178540247Y-114252549D01*
X178715654Y-113924386D01*
X178823669Y-113568308D01*
X178851001Y-113290800D01*
X178851001Y-113290799D01*
X178860141Y-113197999D01*
X178851001Y-113105198D01*
X178851001Y-112805282D01*
X180983000Y-112805282D01*
X180983000Y-113194718D01*
X181058975Y-113576670D01*
X181208005Y-113936461D01*
X181424364Y-114260264D01*
X181699736Y-114535636D01*
X182023539Y-114751995D01*
X182383330Y-114901025D01*
X182765282Y-114977000D01*
X183154718Y-114977000D01*
X183536670Y-114901025D01*
X183896461Y-114751995D01*
X184027963Y-114664128D01*
X184131950Y-114749468D01*
X184370958Y-114877220D01*
X184630297Y-114955890D01*
X184900000Y-114982453D01*
X186100000Y-114982453D01*
X186369703Y-114955890D01*
X186629042Y-114877220D01*
X186868050Y-114749468D01*
X187077542Y-114577542D01*
X187249468Y-114368050D01*
X187377220Y-114129042D01*
X187455890Y-113869703D01*
X187482453Y-113600000D01*
X187482453Y-112400000D01*
X187455890Y-112130297D01*
X187377220Y-111870958D01*
X187249468Y-111631950D01*
X187077542Y-111422458D01*
X186868050Y-111250532D01*
X186788506Y-111208015D01*
X186903371Y-110967117D01*
X186975339Y-110683589D01*
X186990611Y-110391469D01*
X186948599Y-110101981D01*
X186850919Y-109826253D01*
X186777472Y-109688843D01*
X186528397Y-109611208D01*
X185679605Y-110460000D01*
X185693748Y-110474143D01*
X185514143Y-110653748D01*
X185500000Y-110639605D01*
X185485858Y-110653748D01*
X185306253Y-110474143D01*
X185320395Y-110460000D01*
X184471603Y-109611208D01*
X184230000Y-109686514D01*
X183988397Y-109611208D01*
X183139605Y-110460000D01*
X183153748Y-110474143D01*
X182974143Y-110653748D01*
X182960000Y-110639605D01*
X182945858Y-110653748D01*
X182766253Y-110474143D01*
X182780395Y-110460000D01*
X181931603Y-109611208D01*
X181682528Y-109688843D01*
X181556629Y-109952883D01*
X181484661Y-110236411D01*
X181469389Y-110528531D01*
X181511401Y-110818019D01*
X181609081Y-111093747D01*
X181682528Y-111231157D01*
X181931601Y-111308791D01*
X181929657Y-111310735D01*
X181699736Y-111464364D01*
X181424364Y-111739736D01*
X181208005Y-112063539D01*
X181058975Y-112423330D01*
X180983000Y-112805282D01*
X178851001Y-112805282D01*
X178851001Y-108948397D01*
X182111208Y-108948397D01*
X182186514Y-109190000D01*
X182111208Y-109431603D01*
X182960000Y-110280395D01*
X183808792Y-109431603D01*
X183733486Y-109190000D01*
X183808792Y-108948397D01*
X184651208Y-108948397D01*
X184726514Y-109190000D01*
X184651208Y-109431603D01*
X185500000Y-110280395D01*
X186348792Y-109431603D01*
X186273486Y-109190000D01*
X186348792Y-108948397D01*
X185500000Y-108099605D01*
X184651208Y-108948397D01*
X183808792Y-108948397D01*
X182960000Y-108099605D01*
X182111208Y-108948397D01*
X178851001Y-108948397D01*
X178851001Y-107988531D01*
X181469389Y-107988531D01*
X181511401Y-108278019D01*
X181609081Y-108553747D01*
X181682528Y-108691157D01*
X181931603Y-108768792D01*
X182780395Y-107920000D01*
X183139605Y-107920000D01*
X183988397Y-108768792D01*
X184230000Y-108693486D01*
X184471603Y-108768792D01*
X185320395Y-107920000D01*
X185679605Y-107920000D01*
X186528397Y-108768792D01*
X186777472Y-108691157D01*
X186903371Y-108427117D01*
X186975339Y-108143589D01*
X186990611Y-107851469D01*
X186948599Y-107561981D01*
X186850919Y-107286253D01*
X186777472Y-107148843D01*
X186528397Y-107071208D01*
X185679605Y-107920000D01*
X185320395Y-107920000D01*
X184471603Y-107071208D01*
X184230000Y-107146514D01*
X183988397Y-107071208D01*
X183139605Y-107920000D01*
X182780395Y-107920000D01*
X181931603Y-107071208D01*
X181682528Y-107148843D01*
X181556629Y-107412883D01*
X181484661Y-107696411D01*
X181469389Y-107988531D01*
X178851001Y-107988531D01*
X178851001Y-106408397D01*
X182111208Y-106408397D01*
X182186514Y-106650000D01*
X182111208Y-106891603D01*
X182960000Y-107740395D01*
X183808792Y-106891603D01*
X183733486Y-106650000D01*
X183808792Y-106408397D01*
X184651208Y-106408397D01*
X184726514Y-106650000D01*
X184651208Y-106891603D01*
X185500000Y-107740395D01*
X186348792Y-106891603D01*
X186273486Y-106650000D01*
X186348792Y-106408397D01*
X185500000Y-105559605D01*
X184651208Y-106408397D01*
X183808792Y-106408397D01*
X182960000Y-105559605D01*
X182111208Y-106408397D01*
X178851001Y-106408397D01*
X178851001Y-105878366D01*
X181133289Y-103596079D01*
X181208005Y-103776461D01*
X181424364Y-104100264D01*
X181699736Y-104375636D01*
X181929657Y-104529265D01*
X181931601Y-104531209D01*
X181682528Y-104608843D01*
X181556629Y-104872883D01*
X181484661Y-105156411D01*
X181469389Y-105448531D01*
X181511401Y-105738019D01*
X181609081Y-106013747D01*
X181682528Y-106151157D01*
X181931603Y-106228792D01*
X182780395Y-105380000D01*
X182766253Y-105365858D01*
X182945858Y-105186253D01*
X182960000Y-105200395D01*
X182974143Y-105186253D01*
X183153748Y-105365858D01*
X183139605Y-105380000D01*
X183988397Y-106228792D01*
X184230000Y-106153486D01*
X184471603Y-106228792D01*
X185320395Y-105380000D01*
X185306253Y-105365858D01*
X185485858Y-105186253D01*
X185500000Y-105200395D01*
X185514143Y-105186253D01*
X185693748Y-105365858D01*
X185679605Y-105380000D01*
X186528397Y-106228792D01*
X186777472Y-106151157D01*
X186903371Y-105887117D01*
X186975339Y-105603589D01*
X186990611Y-105311469D01*
X186948599Y-105021981D01*
X186850919Y-104746253D01*
X186777472Y-104608843D01*
X186528399Y-104531209D01*
X186530343Y-104529265D01*
X186760264Y-104375636D01*
X187035636Y-104100264D01*
X187251995Y-103776461D01*
X187401025Y-103416670D01*
X187477000Y-103034718D01*
X187477000Y-102645282D01*
X187401025Y-102263330D01*
X187251995Y-101903539D01*
X187035636Y-101579736D01*
X187025900Y-101570000D01*
X187035636Y-101560264D01*
X187251995Y-101236461D01*
X187401025Y-100876670D01*
X187477000Y-100494718D01*
X187477000Y-100105282D01*
X187401025Y-99723330D01*
X187251995Y-99363539D01*
X187035636Y-99039736D01*
X187025900Y-99030000D01*
X187035636Y-99020264D01*
X187251995Y-98696461D01*
X187401025Y-98336670D01*
X187477000Y-97954718D01*
X187477000Y-97565282D01*
X187401025Y-97183330D01*
X187251995Y-96823539D01*
X187035636Y-96499736D01*
X187025900Y-96490000D01*
X187035636Y-96480264D01*
X187251995Y-96156461D01*
X187401025Y-95796670D01*
X187477000Y-95414718D01*
X187477000Y-95025282D01*
X187401025Y-94643330D01*
X187251995Y-94283539D01*
X187035636Y-93959736D01*
X186760264Y-93684364D01*
X186436461Y-93468005D01*
X186076670Y-93318975D01*
X185694718Y-93243000D01*
X185305282Y-93243000D01*
X184923330Y-93318975D01*
X184563539Y-93468005D01*
X184239736Y-93684364D01*
X184230000Y-93694100D01*
X184220264Y-93684364D01*
X183896461Y-93468005D01*
X183536670Y-93318975D01*
X183154718Y-93243000D01*
X182765282Y-93243000D01*
X182383330Y-93318975D01*
X182023539Y-93468005D01*
X181699736Y-93684364D01*
X181424364Y-93959736D01*
X181208005Y-94283539D01*
X181058975Y-94643330D01*
X180983000Y-95025282D01*
X180983000Y-95414718D01*
X181058975Y-95796670D01*
X181208005Y-96156461D01*
X181424364Y-96480264D01*
X181434100Y-96490000D01*
X181424364Y-96499736D01*
X181208005Y-96823539D01*
X181058975Y-97183330D01*
X180983000Y-97565282D01*
X180983000Y-97954718D01*
X181058975Y-98336670D01*
X181133068Y-98515546D01*
X181031532Y-98546347D01*
X180703369Y-98721754D01*
X180415731Y-98957812D01*
X180356570Y-99029900D01*
X176221506Y-103164965D01*
X176112777Y-103092315D01*
X175762085Y-102947053D01*
X175389793Y-102873000D01*
X175010207Y-102873000D01*
X174637915Y-102947053D01*
X174287223Y-103092315D01*
X173971609Y-103303201D01*
X173703201Y-103571609D01*
X173492315Y-103887223D01*
X173347053Y-104237915D01*
X173273000Y-104610207D01*
X172326772Y-104610207D01*
X172391909Y-104490960D01*
X172297070Y-104226119D01*
X172152385Y-103984869D01*
X171963414Y-103776481D01*
X171737420Y-103608963D01*
X171483087Y-103488754D01*
X171349039Y-103448096D01*
X171127000Y-103570085D01*
X170873000Y-103570085D01*
X170650961Y-103448096D01*
X170516913Y-103488754D01*
X170262580Y-103608963D01*
X170036586Y-103776481D01*
X169847615Y-103984869D01*
X169702930Y-104226119D01*
X169608091Y-104490960D01*
X82994115Y-104490960D01*
X83074468Y-104393051D01*
X83202220Y-104154043D01*
X83280890Y-103894705D01*
X83307453Y-103625002D01*
X83307453Y-102492702D01*
X137186903Y-102492702D01*
X137258486Y-102736671D01*
X137513996Y-102857571D01*
X137788184Y-102926300D01*
X138070512Y-102940217D01*
X138350130Y-102898787D01*
X138616292Y-102803603D01*
X138741514Y-102736671D01*
X138813097Y-102492702D01*
X138000000Y-101679605D01*
X137186903Y-102492702D01*
X83307453Y-102492702D01*
X83307453Y-101374998D01*
X83280890Y-101105295D01*
X83202220Y-100845957D01*
X83074468Y-100606949D01*
X82902542Y-100397458D01*
X82693051Y-100225532D01*
X82454043Y-100097780D01*
X82194705Y-100019110D01*
X81925002Y-99992547D01*
X79674998Y-99992547D01*
X79405295Y-100019110D01*
X79145957Y-100097780D01*
X78906949Y-100225532D01*
X78697458Y-100397458D01*
X78525532Y-100606949D01*
X78397780Y-100845957D01*
X78319110Y-101105295D01*
X78292547Y-101374998D01*
X75152000Y-101374998D01*
X75152000Y-98502643D01*
X79576962Y-98502643D01*
X79717929Y-98805408D01*
X80071430Y-98983741D01*
X80452929Y-99089682D01*
X80847765Y-99119160D01*
X81240766Y-99071044D01*
X81616828Y-98947181D01*
X81882071Y-98805408D01*
X82023038Y-98502643D01*
X80800000Y-97279605D01*
X79576962Y-98502643D01*
X75152000Y-98502643D01*
X75152000Y-97147765D01*
X78780840Y-97147765D01*
X78828956Y-97540766D01*
X78952819Y-97916828D01*
X79094592Y-98182071D01*
X79397357Y-98323038D01*
X80620395Y-97100000D01*
X80979605Y-97100000D01*
X82202643Y-98323038D01*
X82505408Y-98182071D01*
X82683741Y-97828570D01*
X82789682Y-97447071D01*
X82819160Y-97052235D01*
X82800522Y-96900000D01*
X86567547Y-96900000D01*
X86567547Y-99100000D01*
X86589307Y-99320931D01*
X86653750Y-99533371D01*
X86758400Y-99729157D01*
X86899235Y-99900765D01*
X87070843Y-100041600D01*
X87266629Y-100146250D01*
X87479069Y-100210693D01*
X87700000Y-100232453D01*
X89900000Y-100232453D01*
X90120931Y-100210693D01*
X90333371Y-100146250D01*
X90529157Y-100041600D01*
X90700765Y-99900765D01*
X90841600Y-99729157D01*
X90946250Y-99533371D01*
X91010693Y-99320931D01*
X91032453Y-99100000D01*
X91032453Y-97777980D01*
X100401626Y-97777980D01*
X100521514Y-98062836D01*
X100845210Y-98223699D01*
X101194069Y-98318322D01*
X101554684Y-98343067D01*
X101913198Y-98296985D01*
X102255833Y-98181846D01*
X102478486Y-98062836D01*
X102598374Y-97777980D01*
X122401626Y-97777980D01*
X122521514Y-98062836D01*
X122845210Y-98223699D01*
X123194069Y-98318322D01*
X123554684Y-98343067D01*
X123913198Y-98296985D01*
X124201809Y-98200000D01*
X136067547Y-98200000D01*
X136067547Y-99800000D01*
X136089307Y-100020931D01*
X136153750Y-100233371D01*
X136258400Y-100429157D01*
X136399235Y-100600765D01*
X136570843Y-100741600D01*
X136730851Y-100827126D01*
X136642429Y-101013996D01*
X136573700Y-101288184D01*
X136559783Y-101570512D01*
X136601213Y-101850130D01*
X136696397Y-102116292D01*
X136763329Y-102241514D01*
X137007298Y-102313097D01*
X137820395Y-101500000D01*
X137806253Y-101485858D01*
X137985858Y-101306253D01*
X138000000Y-101320395D01*
X138014143Y-101306253D01*
X138193748Y-101485858D01*
X138179605Y-101500000D01*
X138992702Y-102313097D01*
X139236671Y-102241514D01*
X139357571Y-101986004D01*
X139426300Y-101711816D01*
X139440217Y-101429488D01*
X139398787Y-101149870D01*
X139309430Y-100900000D01*
X141767547Y-100900000D01*
X141767547Y-103100000D01*
X141789307Y-103320931D01*
X141853750Y-103533371D01*
X141958400Y-103729157D01*
X142099235Y-103900765D01*
X142270843Y-104041600D01*
X142466629Y-104146250D01*
X142679069Y-104210693D01*
X142900000Y-104232453D01*
X145100000Y-104232453D01*
X145320931Y-104210693D01*
X145533371Y-104146250D01*
X145729157Y-104041600D01*
X145900765Y-103900765D01*
X146041600Y-103729157D01*
X146146250Y-103533371D01*
X146210693Y-103320931D01*
X146232453Y-103100000D01*
X146232453Y-101780660D01*
X151933000Y-101780660D01*
X151933000Y-102219340D01*
X152018582Y-102649592D01*
X152186458Y-103054880D01*
X152430176Y-103419630D01*
X152740370Y-103729824D01*
X153105120Y-103973542D01*
X153510408Y-104141418D01*
X153940660Y-104227000D01*
X154379340Y-104227000D01*
X154809592Y-104141418D01*
X155214880Y-103973542D01*
X155579630Y-103729824D01*
X155889824Y-103419630D01*
X156133542Y-103054880D01*
X156301418Y-102649592D01*
X156387000Y-102219340D01*
X156387000Y-101780660D01*
X156301418Y-101350408D01*
X156133542Y-100945120D01*
X155889824Y-100580370D01*
X155579630Y-100270176D01*
X155214880Y-100026458D01*
X154809592Y-99858582D01*
X154379340Y-99773000D01*
X153940660Y-99773000D01*
X153510408Y-99858582D01*
X153105120Y-100026458D01*
X152740370Y-100270176D01*
X152430176Y-100580370D01*
X152186458Y-100945120D01*
X152018582Y-101350408D01*
X151933000Y-101780660D01*
X146232453Y-101780660D01*
X146232453Y-100900000D01*
X146210693Y-100679069D01*
X146146250Y-100466629D01*
X146041600Y-100270843D01*
X145917520Y-100119651D01*
X146047500Y-100132453D01*
X147952500Y-100132453D01*
X148173431Y-100110693D01*
X148385871Y-100046250D01*
X148581657Y-99941600D01*
X148753265Y-99800765D01*
X148894100Y-99629157D01*
X148952117Y-99520616D01*
X149167020Y-99590563D01*
X149413000Y-99470594D01*
X149413000Y-98127000D01*
X149393000Y-98127000D01*
X149393000Y-97873000D01*
X149413000Y-97873000D01*
X149413000Y-96529406D01*
X149667000Y-96529406D01*
X149667000Y-97873000D01*
X149687000Y-97873000D01*
X149687000Y-98127000D01*
X149667000Y-98127000D01*
X149667000Y-99470594D01*
X149912980Y-99590563D01*
X150131094Y-99519571D01*
X150406923Y-99375969D01*
X150451049Y-99340551D01*
X150602457Y-99525043D01*
X150919102Y-99784906D01*
X151280361Y-99978003D01*
X151672348Y-100096911D01*
X152080000Y-100137061D01*
X152487653Y-100096911D01*
X152879640Y-99978003D01*
X153240898Y-99784906D01*
X153557543Y-99525043D01*
X153817406Y-99208398D01*
X154010503Y-98847139D01*
X154129411Y-98455152D01*
X154159500Y-98149651D01*
X154159500Y-97850348D01*
X154129411Y-97544847D01*
X154010503Y-97152860D01*
X153875347Y-96900000D01*
X155767547Y-96900000D01*
X155767547Y-99100000D01*
X155789307Y-99320931D01*
X155853750Y-99533371D01*
X155958400Y-99729157D01*
X156099235Y-99900765D01*
X156270843Y-100041600D01*
X156466629Y-100146250D01*
X156679069Y-100210693D01*
X156900000Y-100232453D01*
X159100000Y-100232453D01*
X159320931Y-100210693D01*
X159533371Y-100146250D01*
X159729157Y-100041600D01*
X159900765Y-99900765D01*
X160041600Y-99729157D01*
X160146250Y-99533371D01*
X160210693Y-99320931D01*
X160232453Y-99100000D01*
X160232453Y-98396122D01*
X166470825Y-98396122D01*
X166535425Y-98609094D01*
X166685469Y-98914329D01*
X166892178Y-99184427D01*
X167147609Y-99409008D01*
X167441946Y-99579442D01*
X167763877Y-99689179D01*
X168033000Y-99571600D01*
X168033000Y-98127000D01*
X168287000Y-98127000D01*
X168287000Y-99571600D01*
X168556123Y-99689179D01*
X168878054Y-99579442D01*
X169172391Y-99409008D01*
X169427822Y-99184427D01*
X169634531Y-98914329D01*
X169641574Y-98900000D01*
X170461928Y-98900000D01*
X170474188Y-99024482D01*
X170510498Y-99144180D01*
X170569463Y-99254494D01*
X170648815Y-99351185D01*
X170745506Y-99430537D01*
X170855820Y-99489502D01*
X170975518Y-99525812D01*
X171100000Y-99538072D01*
X171714250Y-99535000D01*
X171873000Y-99376250D01*
X171873000Y-98127000D01*
X170623750Y-98127000D01*
X170465000Y-98285750D01*
X170461928Y-98900000D01*
X169641574Y-98900000D01*
X169784575Y-98609094D01*
X169849175Y-98396122D01*
X169731125Y-98127000D01*
X168287000Y-98127000D01*
X168033000Y-98127000D01*
X166588875Y-98127000D01*
X166470825Y-98396122D01*
X160232453Y-98396122D01*
X160232453Y-97603878D01*
X166470825Y-97603878D01*
X166588875Y-97873000D01*
X168033000Y-97873000D01*
X168033000Y-96428400D01*
X168287000Y-96428400D01*
X168287000Y-97873000D01*
X169731125Y-97873000D01*
X169849175Y-97603878D01*
X169784575Y-97390906D01*
X169641575Y-97100000D01*
X170461928Y-97100000D01*
X170465000Y-97714250D01*
X170623750Y-97873000D01*
X171873000Y-97873000D01*
X171873000Y-96623750D01*
X172127000Y-96623750D01*
X172127000Y-97873000D01*
X172147000Y-97873000D01*
X172147000Y-98127000D01*
X172127000Y-98127000D01*
X172127000Y-99376250D01*
X172285750Y-99535000D01*
X172900000Y-99538072D01*
X173024482Y-99525812D01*
X173144180Y-99489502D01*
X173156373Y-99482984D01*
X173247863Y-99574474D01*
X173579855Y-99796304D01*
X173948746Y-99949104D01*
X174340358Y-100027000D01*
X174739642Y-100027000D01*
X175131254Y-99949104D01*
X175500145Y-99796304D01*
X175832137Y-99574474D01*
X176114474Y-99292137D01*
X176336304Y-98960145D01*
X176489104Y-98591254D01*
X176567000Y-98199642D01*
X176567000Y-97800358D01*
X176489104Y-97408746D01*
X176336304Y-97039855D01*
X176114474Y-96707863D01*
X175832137Y-96425526D01*
X175500145Y-96203696D01*
X175131254Y-96050896D01*
X174739642Y-95973000D01*
X174340358Y-95973000D01*
X173948746Y-96050896D01*
X173579855Y-96203696D01*
X173247863Y-96425526D01*
X173156373Y-96517016D01*
X173144180Y-96510498D01*
X173024482Y-96474188D01*
X172900000Y-96461928D01*
X172285750Y-96465000D01*
X172127000Y-96623750D01*
X171873000Y-96623750D01*
X171714250Y-96465000D01*
X171100000Y-96461928D01*
X170975518Y-96474188D01*
X170855820Y-96510498D01*
X170745506Y-96569463D01*
X170648815Y-96648815D01*
X170569463Y-96745506D01*
X170510498Y-96855820D01*
X170474188Y-96975518D01*
X170461928Y-97100000D01*
X169641575Y-97100000D01*
X169634531Y-97085671D01*
X169427822Y-96815573D01*
X169172391Y-96590992D01*
X168878054Y-96420558D01*
X168556123Y-96310821D01*
X168287000Y-96428400D01*
X168033000Y-96428400D01*
X167763877Y-96310821D01*
X167441946Y-96420558D01*
X167147609Y-96590992D01*
X166892178Y-96815573D01*
X166685469Y-97085671D01*
X166535425Y-97390906D01*
X166470825Y-97603878D01*
X160232453Y-97603878D01*
X160232453Y-96900000D01*
X160210693Y-96679069D01*
X160146250Y-96466629D01*
X160041600Y-96270843D01*
X159900765Y-96099235D01*
X159729157Y-95958400D01*
X159533371Y-95853750D01*
X159320931Y-95789307D01*
X159100000Y-95767547D01*
X156900000Y-95767547D01*
X156679069Y-95789307D01*
X156466629Y-95853750D01*
X156270843Y-95958400D01*
X156099235Y-96099235D01*
X155958400Y-96270843D01*
X155853750Y-96466629D01*
X155789307Y-96679069D01*
X155767547Y-96900000D01*
X153875347Y-96900000D01*
X153817406Y-96791602D01*
X153557543Y-96474957D01*
X153240898Y-96215094D01*
X152879639Y-96021997D01*
X152487652Y-95903089D01*
X152080000Y-95862939D01*
X151672347Y-95903089D01*
X151280360Y-96021997D01*
X150919102Y-96215094D01*
X150602457Y-96474957D01*
X150451049Y-96659449D01*
X150406923Y-96624031D01*
X150131094Y-96480429D01*
X149912980Y-96409437D01*
X149667000Y-96529406D01*
X149413000Y-96529406D01*
X149167020Y-96409437D01*
X148952117Y-96479384D01*
X148894100Y-96370843D01*
X148753265Y-96199235D01*
X148581657Y-96058400D01*
X148385871Y-95953750D01*
X148173431Y-95889307D01*
X147952500Y-95867547D01*
X146047500Y-95867547D01*
X145826569Y-95889307D01*
X145614129Y-95953750D01*
X145418343Y-96058400D01*
X145246735Y-96199235D01*
X145105900Y-96370843D01*
X145001250Y-96566629D01*
X144936807Y-96779069D01*
X144915047Y-97000000D01*
X144915047Y-99000000D01*
X144936807Y-99220931D01*
X145001250Y-99433371D01*
X145105900Y-99629157D01*
X145229980Y-99780349D01*
X145100000Y-99767547D01*
X142900000Y-99767547D01*
X142679069Y-99789307D01*
X142466629Y-99853750D01*
X142270843Y-99958400D01*
X142099235Y-100099235D01*
X141958400Y-100270843D01*
X141853750Y-100466629D01*
X141789307Y-100679069D01*
X141767547Y-100900000D01*
X139309430Y-100900000D01*
X139303603Y-100883708D01*
X139272424Y-100825376D01*
X139429157Y-100741600D01*
X139600765Y-100600765D01*
X139741600Y-100429157D01*
X139846250Y-100233371D01*
X139910693Y-100020931D01*
X139932453Y-99800000D01*
X139932453Y-98200000D01*
X139910693Y-97979069D01*
X139846250Y-97766629D01*
X139741600Y-97570843D01*
X139600765Y-97399235D01*
X139429157Y-97258400D01*
X139233371Y-97153750D01*
X139020931Y-97089307D01*
X138800000Y-97067547D01*
X137200000Y-97067547D01*
X136979069Y-97089307D01*
X136766629Y-97153750D01*
X136570843Y-97258400D01*
X136399235Y-97399235D01*
X136258400Y-97570843D01*
X136153750Y-97766629D01*
X136089307Y-97979069D01*
X136067547Y-98200000D01*
X124201809Y-98200000D01*
X124255833Y-98181846D01*
X124478486Y-98062836D01*
X124598374Y-97777980D01*
X123500000Y-96679605D01*
X122401626Y-97777980D01*
X102598374Y-97777980D01*
X101500000Y-96679605D01*
X100401626Y-97777980D01*
X91032453Y-97777980D01*
X91032453Y-96900000D01*
X91010693Y-96679069D01*
X90972962Y-96554684D01*
X99656933Y-96554684D01*
X99703015Y-96913198D01*
X99818154Y-97255833D01*
X99937164Y-97478486D01*
X100222020Y-97598374D01*
X101320395Y-96500000D01*
X101679605Y-96500000D01*
X102777980Y-97598374D01*
X103062836Y-97478486D01*
X103223699Y-97154790D01*
X103318322Y-96805931D01*
X103335562Y-96554684D01*
X121656933Y-96554684D01*
X121703015Y-96913198D01*
X121818154Y-97255833D01*
X121937164Y-97478486D01*
X122222020Y-97598374D01*
X123320395Y-96500000D01*
X123679605Y-96500000D01*
X124777980Y-97598374D01*
X125062836Y-97478486D01*
X125223699Y-97154790D01*
X125318322Y-96805931D01*
X125343067Y-96445316D01*
X125296985Y-96086802D01*
X125181846Y-95744167D01*
X125062836Y-95521514D01*
X124777980Y-95401626D01*
X123679605Y-96500000D01*
X123320395Y-96500000D01*
X122222020Y-95401626D01*
X121937164Y-95521514D01*
X121776301Y-95845210D01*
X121681678Y-96194069D01*
X121656933Y-96554684D01*
X103335562Y-96554684D01*
X103343067Y-96445316D01*
X103296985Y-96086802D01*
X103181846Y-95744167D01*
X103062836Y-95521514D01*
X102777980Y-95401626D01*
X101679605Y-96500000D01*
X101320395Y-96500000D01*
X100222020Y-95401626D01*
X99937164Y-95521514D01*
X99776301Y-95845210D01*
X99681678Y-96194069D01*
X99656933Y-96554684D01*
X90972962Y-96554684D01*
X90946250Y-96466629D01*
X90841600Y-96270843D01*
X90700765Y-96099235D01*
X90529157Y-95958400D01*
X90333371Y-95853750D01*
X90120931Y-95789307D01*
X89900000Y-95767547D01*
X87700000Y-95767547D01*
X87479069Y-95789307D01*
X87266629Y-95853750D01*
X87070843Y-95958400D01*
X86899235Y-96099235D01*
X86758400Y-96270843D01*
X86653750Y-96466629D01*
X86589307Y-96679069D01*
X86567547Y-96900000D01*
X82800522Y-96900000D01*
X82771044Y-96659234D01*
X82647181Y-96283172D01*
X82505408Y-96017929D01*
X82202643Y-95876962D01*
X80979605Y-97100000D01*
X80620395Y-97100000D01*
X79397357Y-95876962D01*
X79094592Y-96017929D01*
X78916259Y-96371430D01*
X78810318Y-96752929D01*
X78780840Y-97147765D01*
X75152000Y-97147765D01*
X75152000Y-95697357D01*
X79576962Y-95697357D01*
X80800000Y-96920395D01*
X82023038Y-95697357D01*
X81882071Y-95394592D01*
X81539990Y-95222020D01*
X100401626Y-95222020D01*
X101500000Y-96320395D01*
X102598374Y-95222020D01*
X122401626Y-95222020D01*
X123500000Y-96320395D01*
X124598374Y-95222020D01*
X124478486Y-94937164D01*
X124154790Y-94776301D01*
X123805931Y-94681678D01*
X123445316Y-94656933D01*
X123086802Y-94703015D01*
X122744167Y-94818154D01*
X122521514Y-94937164D01*
X122401626Y-95222020D01*
X102598374Y-95222020D01*
X102478486Y-94937164D01*
X102154790Y-94776301D01*
X101805931Y-94681678D01*
X101445316Y-94656933D01*
X101086802Y-94703015D01*
X100744167Y-94818154D01*
X100521514Y-94937164D01*
X100401626Y-95222020D01*
X81539990Y-95222020D01*
X81528570Y-95216259D01*
X81147071Y-95110318D01*
X80752235Y-95080840D01*
X80359234Y-95128956D01*
X79983172Y-95252819D01*
X79717929Y-95394592D01*
X79576962Y-95697357D01*
X75152000Y-95697357D01*
X75152000Y-92231414D01*
X134273000Y-92231414D01*
X134273000Y-92768586D01*
X134377797Y-93295437D01*
X134583364Y-93791719D01*
X134881801Y-94238361D01*
X135261639Y-94618199D01*
X135708281Y-94916636D01*
X136204563Y-95122203D01*
X136731414Y-95227000D01*
X137268586Y-95227000D01*
X137795437Y-95122203D01*
X138291719Y-94916636D01*
X138738361Y-94618199D01*
X139118199Y-94238361D01*
X139416636Y-93791719D01*
X139622203Y-93295437D01*
X139727000Y-92768586D01*
X139727000Y-92231414D01*
X159673000Y-92231414D01*
X159673000Y-92768586D01*
X159777797Y-93295437D01*
X159983364Y-93791719D01*
X160281801Y-94238361D01*
X160661639Y-94618199D01*
X161108281Y-94916636D01*
X161604563Y-95122203D01*
X162131414Y-95227000D01*
X162668586Y-95227000D01*
X163195437Y-95122203D01*
X163691719Y-94916636D01*
X164138361Y-94618199D01*
X164518199Y-94238361D01*
X164816636Y-93791719D01*
X165022203Y-93295437D01*
X165127000Y-92768586D01*
X165127000Y-92231414D01*
X165022203Y-91704563D01*
X164816636Y-91208281D01*
X164811103Y-91200000D01*
X169067547Y-91200000D01*
X169067547Y-92800000D01*
X169089307Y-93020931D01*
X169153750Y-93233371D01*
X169258400Y-93429157D01*
X169399235Y-93600765D01*
X169570843Y-93741600D01*
X169766629Y-93846250D01*
X169979069Y-93910693D01*
X170200000Y-93932453D01*
X171800000Y-93932453D01*
X172020931Y-93910693D01*
X172233371Y-93846250D01*
X172429157Y-93741600D01*
X172600765Y-93600765D01*
X172741600Y-93429157D01*
X172846250Y-93233371D01*
X172910693Y-93020931D01*
X172932453Y-92800000D01*
X172932453Y-91200000D01*
X172910693Y-90979069D01*
X172846250Y-90766629D01*
X172741600Y-90570843D01*
X172600765Y-90399235D01*
X172429157Y-90258400D01*
X172269149Y-90172874D01*
X172357571Y-89986004D01*
X172426300Y-89711816D01*
X172440217Y-89429488D01*
X172398787Y-89149870D01*
X172303603Y-88883708D01*
X172236671Y-88758486D01*
X171992702Y-88686903D01*
X171179605Y-89500000D01*
X171193748Y-89514143D01*
X171014143Y-89693748D01*
X171000000Y-89679605D01*
X170985858Y-89693748D01*
X170806253Y-89514143D01*
X170820395Y-89500000D01*
X170007298Y-88686903D01*
X169763329Y-88758486D01*
X169642429Y-89013996D01*
X169573700Y-89288184D01*
X169559783Y-89570512D01*
X169601213Y-89850130D01*
X169696397Y-90116292D01*
X169727576Y-90174624D01*
X169570843Y-90258400D01*
X169399235Y-90399235D01*
X169258400Y-90570843D01*
X169153750Y-90766629D01*
X169089307Y-90979069D01*
X169067547Y-91200000D01*
X164811103Y-91200000D01*
X164518199Y-90761639D01*
X164138361Y-90381801D01*
X163691719Y-90083364D01*
X163195437Y-89877797D01*
X162668586Y-89773000D01*
X162131414Y-89773000D01*
X161604563Y-89877797D01*
X161108281Y-90083364D01*
X160661639Y-90381801D01*
X160281801Y-90761639D01*
X159983364Y-91208281D01*
X159777797Y-91704563D01*
X159673000Y-92231414D01*
X139727000Y-92231414D01*
X139622203Y-91704563D01*
X139416636Y-91208281D01*
X139118199Y-90761639D01*
X138738361Y-90381801D01*
X138291719Y-90083364D01*
X137795437Y-89877797D01*
X137268586Y-89773000D01*
X136731414Y-89773000D01*
X136204563Y-89877797D01*
X135708281Y-90083364D01*
X135261639Y-90381801D01*
X134881801Y-90761639D01*
X134583364Y-91208281D01*
X134377797Y-91704563D01*
X134273000Y-92231414D01*
X75152000Y-92231414D01*
X75152000Y-85429153D01*
X75233561Y-85839190D01*
X75450435Y-86362771D01*
X75765288Y-86833981D01*
X76166019Y-87234712D01*
X76637229Y-87549565D01*
X77160810Y-87766439D01*
X77716640Y-87877000D01*
X78283360Y-87877000D01*
X78670466Y-87800000D01*
X99167547Y-87800000D01*
X99167547Y-90200000D01*
X99189307Y-90420931D01*
X99253750Y-90633371D01*
X99358400Y-90829157D01*
X99499235Y-91000765D01*
X99670843Y-91141600D01*
X99866629Y-91246250D01*
X100079069Y-91310693D01*
X100300000Y-91332453D01*
X102700000Y-91332453D01*
X102920931Y-91310693D01*
X103133371Y-91246250D01*
X103329157Y-91141600D01*
X103500765Y-91000765D01*
X103641600Y-90829157D01*
X103746250Y-90633371D01*
X103810693Y-90420931D01*
X103832453Y-90200000D01*
X103832453Y-87800000D01*
X121167547Y-87800000D01*
X121167547Y-90200000D01*
X121189307Y-90420931D01*
X121253750Y-90633371D01*
X121358400Y-90829157D01*
X121499235Y-91000765D01*
X121670843Y-91141600D01*
X121866629Y-91246250D01*
X122079069Y-91310693D01*
X122300000Y-91332453D01*
X124700000Y-91332453D01*
X124920931Y-91310693D01*
X125133371Y-91246250D01*
X125329157Y-91141600D01*
X125500765Y-91000765D01*
X125641600Y-90829157D01*
X125746250Y-90633371D01*
X125810693Y-90420931D01*
X125832453Y-90200000D01*
X125832453Y-88507298D01*
X170186903Y-88507298D01*
X171000000Y-89320395D01*
X171813097Y-88507298D01*
X171741514Y-88263329D01*
X171486004Y-88142429D01*
X171211816Y-88073700D01*
X170929488Y-88059783D01*
X170649870Y-88101213D01*
X170383708Y-88196397D01*
X170258486Y-88263329D01*
X170186903Y-88507298D01*
X125832453Y-88507298D01*
X125832453Y-87800000D01*
X125810693Y-87579069D01*
X125746250Y-87366629D01*
X125641600Y-87170843D01*
X125500765Y-86999235D01*
X125329157Y-86858400D01*
X125133371Y-86753750D01*
X124920931Y-86689307D01*
X124700000Y-86667547D01*
X122300000Y-86667547D01*
X122079069Y-86689307D01*
X121866629Y-86753750D01*
X121670843Y-86858400D01*
X121499235Y-86999235D01*
X121358400Y-87170843D01*
X121253750Y-87366629D01*
X121189307Y-87579069D01*
X121167547Y-87800000D01*
X103832453Y-87800000D01*
X103810693Y-87579069D01*
X103746250Y-87366629D01*
X103641600Y-87170843D01*
X103500765Y-86999235D01*
X103329157Y-86858400D01*
X103133371Y-86753750D01*
X102920931Y-86689307D01*
X102700000Y-86667547D01*
X100300000Y-86667547D01*
X100079069Y-86689307D01*
X99866629Y-86753750D01*
X99670843Y-86858400D01*
X99499235Y-86999235D01*
X99358400Y-87170843D01*
X99253750Y-87366629D01*
X99189307Y-87579069D01*
X99167547Y-87800000D01*
X78670466Y-87800000D01*
X78839190Y-87766439D01*
X79362771Y-87549565D01*
X79833981Y-87234712D01*
X80234712Y-86833981D01*
X80549565Y-86362771D01*
X80766439Y-85839190D01*
X80877000Y-85283360D01*
X80877000Y-84716640D01*
X80766439Y-84160810D01*
X80549565Y-83637229D01*
X80234712Y-83166019D01*
X79833981Y-82765288D01*
X79362771Y-82450435D01*
X78839190Y-82233561D01*
X78429153Y-82152000D01*
X186570847Y-82152000D01*
X186160810Y-82233561D01*
%TA.AperFunction,Conductor*%
D28*
G36*
X186160810Y-82233561D02*
G01*
X185637229Y-82450435D01*
X185166019Y-82765288D01*
X184765288Y-83166019D01*
X184450435Y-83637229D01*
X184233561Y-84160810D01*
X184123000Y-84716640D01*
X184123000Y-85283360D01*
X184233561Y-85839190D01*
X184450435Y-86362771D01*
X184765288Y-86833981D01*
X185166019Y-87234712D01*
X185637229Y-87549565D01*
X186160810Y-87766439D01*
X186716640Y-87877000D01*
X187283360Y-87877000D01*
X187839190Y-87766439D01*
X188362771Y-87549565D01*
X188833981Y-87234712D01*
X189234712Y-86833981D01*
X189549565Y-86362771D01*
X189766439Y-85839190D01*
X189848000Y-85429153D01*
X189848001Y-148570851D01*
X189766439Y-148160810D01*
X189549565Y-147637229D01*
X189234712Y-147166019D01*
X188833981Y-146765288D01*
X188362771Y-146450435D01*
X187839190Y-146233561D01*
X187283360Y-146123000D01*
X186716640Y-146123000D01*
X186160810Y-146233561D01*
X185637229Y-146450435D01*
X185166019Y-146765288D01*
X184765288Y-147166019D01*
X184450435Y-147637229D01*
X184233561Y-148160810D01*
X184123000Y-148716640D01*
X184123000Y-149283360D01*
X184233561Y-149839190D01*
X184450435Y-150362771D01*
X184765288Y-150833981D01*
X185166019Y-151234712D01*
X185637229Y-151549565D01*
X186160810Y-151766439D01*
X186570847Y-151848000D01*
X155944068Y-151848000D01*
X156041600Y-151729157D01*
X156146250Y-151533371D01*
X156210693Y-151320931D01*
X156232453Y-151100000D01*
X156232453Y-148900000D01*
X156210693Y-148679069D01*
X156146250Y-148466629D01*
X156041600Y-148270843D01*
X155900765Y-148099235D01*
X155729157Y-147958400D01*
X155533371Y-147853750D01*
X155320931Y-147789307D01*
X155100000Y-147767547D01*
X153262050Y-147767547D01*
X153557543Y-147525043D01*
X153817406Y-147208398D01*
X154010503Y-146847139D01*
X154129411Y-146455152D01*
X154159500Y-146149651D01*
X154159500Y-145850348D01*
X154152637Y-145780660D01*
X155613000Y-145780660D01*
X155613000Y-146219340D01*
X155698582Y-146649592D01*
X155866458Y-147054880D01*
X156110176Y-147419630D01*
X156420370Y-147729824D01*
X156785120Y-147973542D01*
X157190408Y-148141418D01*
X157620660Y-148227000D01*
X158059340Y-148227000D01*
X158489592Y-148141418D01*
X158894880Y-147973542D01*
X159259630Y-147729824D01*
X159569824Y-147419630D01*
X159783393Y-147100000D01*
X166261928Y-147100000D01*
X166274188Y-147224482D01*
X166310498Y-147344180D01*
X166369463Y-147454494D01*
X166448815Y-147551185D01*
X166545506Y-147630537D01*
X166655820Y-147689502D01*
X166775518Y-147725812D01*
X166900000Y-147738072D01*
X167714250Y-147735000D01*
X167873000Y-147576250D01*
X167873000Y-146127000D01*
X168127000Y-146127000D01*
X168127000Y-147576250D01*
X168285750Y-147735000D01*
X169100000Y-147738072D01*
X169224482Y-147725812D01*
X169344180Y-147689502D01*
X169454494Y-147630537D01*
X169551185Y-147551185D01*
X169630537Y-147454494D01*
X169689502Y-147344180D01*
X169725812Y-147224482D01*
X169738072Y-147100000D01*
X169736941Y-146800000D01*
X172561928Y-146800000D01*
X172574188Y-146924482D01*
X172610498Y-147044180D01*
X172669463Y-147154494D01*
X172748815Y-147251185D01*
X172845506Y-147330537D01*
X172955820Y-147389502D01*
X173075518Y-147425812D01*
X173200000Y-147438072D01*
X173714250Y-147435000D01*
X173873000Y-147276250D01*
X173873000Y-146127000D01*
X174127000Y-146127000D01*
X174127000Y-147276250D01*
X174285750Y-147435000D01*
X174800000Y-147438072D01*
X174924482Y-147425812D01*
X175044180Y-147389502D01*
X175154494Y-147330537D01*
X175251185Y-147251185D01*
X175330537Y-147154494D01*
X175389502Y-147044180D01*
X175425812Y-146924482D01*
X175438072Y-146800000D01*
X175435000Y-146285750D01*
X175276250Y-146127000D01*
X174127000Y-146127000D01*
X173873000Y-146127000D01*
X172723750Y-146127000D01*
X172565000Y-146285750D01*
X172561928Y-146800000D01*
X169736941Y-146800000D01*
X169735000Y-146285750D01*
X169576250Y-146127000D01*
X168127000Y-146127000D01*
X167873000Y-146127000D01*
X166423750Y-146127000D01*
X166265000Y-146285750D01*
X166261928Y-147100000D01*
X159783393Y-147100000D01*
X159813542Y-147054880D01*
X159981418Y-146649592D01*
X160067000Y-146219340D01*
X160067000Y-145780660D01*
X159981418Y-145350408D01*
X159813542Y-144945120D01*
X159783394Y-144900000D01*
X166261928Y-144900000D01*
X166265000Y-145714250D01*
X166423750Y-145873000D01*
X167873000Y-145873000D01*
X167873000Y-144423750D01*
X168127000Y-144423750D01*
X168127000Y-145873000D01*
X169576250Y-145873000D01*
X169735000Y-145714250D01*
X169738072Y-144900000D01*
X169725812Y-144775518D01*
X169689502Y-144655820D01*
X169630537Y-144545506D01*
X169551185Y-144448815D01*
X169454494Y-144369463D01*
X169344180Y-144310498D01*
X169224482Y-144274188D01*
X169100000Y-144261928D01*
X168285750Y-144265000D01*
X168127000Y-144423750D01*
X167873000Y-144423750D01*
X167714250Y-144265000D01*
X166900000Y-144261928D01*
X166775518Y-144274188D01*
X166655820Y-144310498D01*
X166545506Y-144369463D01*
X166448815Y-144448815D01*
X166369463Y-144545506D01*
X166310498Y-144655820D01*
X166274188Y-144775518D01*
X166261928Y-144900000D01*
X159783394Y-144900000D01*
X159569824Y-144580370D01*
X159259630Y-144270176D01*
X158894880Y-144026458D01*
X158489592Y-143858582D01*
X158059340Y-143773000D01*
X157620660Y-143773000D01*
X157190408Y-143858582D01*
X156785120Y-144026458D01*
X156420370Y-144270176D01*
X156110176Y-144580370D01*
X155866458Y-144945120D01*
X155698582Y-145350408D01*
X155613000Y-145780660D01*
X154152637Y-145780660D01*
X154129411Y-145544847D01*
X154010503Y-145152860D01*
X153817406Y-144791602D01*
X153557543Y-144474957D01*
X153240898Y-144215094D01*
X152879639Y-144021997D01*
X152487652Y-143903089D01*
X152080000Y-143862939D01*
X151672347Y-143903089D01*
X151280360Y-144021997D01*
X150919102Y-144215094D01*
X150810000Y-144304631D01*
X150700898Y-144215094D01*
X150339639Y-144021997D01*
X149947652Y-143903089D01*
X149540000Y-143862939D01*
X149132347Y-143903089D01*
X148740360Y-144021997D01*
X148379102Y-144215094D01*
X148156027Y-144398166D01*
X148076982Y-144374188D01*
X147952500Y-144361928D01*
X147285750Y-144365000D01*
X147127000Y-144523750D01*
X147127000Y-145873000D01*
X147147000Y-145873000D01*
X147147000Y-146127000D01*
X147127000Y-146127000D01*
X147127000Y-147476250D01*
X147285750Y-147635000D01*
X147952500Y-147638072D01*
X148076982Y-147625812D01*
X148156027Y-147601834D01*
X148379102Y-147784906D01*
X148740361Y-147978003D01*
X149132348Y-148096911D01*
X149540000Y-148137061D01*
X149947653Y-148096911D01*
X150339640Y-147978003D01*
X150700898Y-147784906D01*
X150810000Y-147695369D01*
X150919102Y-147784906D01*
X151280361Y-147978003D01*
X151672348Y-148096911D01*
X152069075Y-148135985D01*
X151958400Y-148270843D01*
X151853750Y-148466629D01*
X151789307Y-148679069D01*
X151767547Y-148900000D01*
X151767547Y-151100000D01*
X151789307Y-151320931D01*
X151853750Y-151533371D01*
X151958400Y-151729157D01*
X152055932Y-151848000D01*
X145082767Y-151848000D01*
X145259630Y-151729824D01*
X145569824Y-151419630D01*
X145813542Y-151054880D01*
X145981418Y-150649592D01*
X146067000Y-150219340D01*
X146067000Y-149780660D01*
X145981418Y-149350408D01*
X145813542Y-148945120D01*
X145569824Y-148580370D01*
X145259630Y-148270176D01*
X144894880Y-148026458D01*
X144489592Y-147858582D01*
X144059340Y-147773000D01*
X143620660Y-147773000D01*
X143190408Y-147858582D01*
X142785120Y-148026458D01*
X142420370Y-148270176D01*
X142110176Y-148580370D01*
X141866458Y-148945120D01*
X141698582Y-149350408D01*
X141613000Y-149780660D01*
X141613000Y-150219340D01*
X141698582Y-150649592D01*
X141866458Y-151054880D01*
X142110176Y-151419630D01*
X142420370Y-151729824D01*
X142597233Y-151848000D01*
X78429153Y-151848000D01*
X78839190Y-151766439D01*
X79362771Y-151549565D01*
X79833981Y-151234712D01*
X80234712Y-150833981D01*
X80549565Y-150362771D01*
X80766439Y-149839190D01*
X80877000Y-149283360D01*
X80877000Y-148716640D01*
X80796156Y-148310207D01*
X136073000Y-148310207D01*
X136073000Y-148689793D01*
X136147053Y-149062085D01*
X136292315Y-149412777D01*
X136503201Y-149728391D01*
X136771609Y-149996799D01*
X137087223Y-150207685D01*
X137437915Y-150352947D01*
X137810207Y-150427000D01*
X138189793Y-150427000D01*
X138562085Y-150352947D01*
X138912777Y-150207685D01*
X139228391Y-149996799D01*
X139496799Y-149728391D01*
X139707685Y-149412777D01*
X139852947Y-149062085D01*
X139927000Y-148689793D01*
X139927000Y-148310207D01*
X139852947Y-147937915D01*
X139707685Y-147587223D01*
X139496799Y-147271609D01*
X139347656Y-147122466D01*
X139389502Y-147044180D01*
X139402903Y-147000000D01*
X145409428Y-147000000D01*
X145421688Y-147124482D01*
X145457998Y-147244180D01*
X145516963Y-147354494D01*
X145596315Y-147451185D01*
X145693006Y-147530537D01*
X145803320Y-147589502D01*
X145923018Y-147625812D01*
X146047500Y-147638072D01*
X146714250Y-147635000D01*
X146873000Y-147476250D01*
X146873000Y-146127000D01*
X145571250Y-146127000D01*
X145412500Y-146285750D01*
X145409428Y-147000000D01*
X139402903Y-147000000D01*
X139425812Y-146924482D01*
X139438072Y-146800000D01*
X139435000Y-146285750D01*
X139276250Y-146127000D01*
X138127000Y-146127000D01*
X138127000Y-146147000D01*
X137873000Y-146147000D01*
X137873000Y-146127000D01*
X136723750Y-146127000D01*
X136565000Y-146285750D01*
X136561928Y-146800000D01*
X136574188Y-146924482D01*
X136610498Y-147044180D01*
X136652344Y-147122466D01*
X136503201Y-147271609D01*
X136292315Y-147587223D01*
X136147053Y-147937915D01*
X136073000Y-148310207D01*
X80796156Y-148310207D01*
X80766439Y-148160810D01*
X80549565Y-147637229D01*
X80234712Y-147166019D01*
X79833981Y-146765288D01*
X79362771Y-146450435D01*
X78839190Y-146233561D01*
X78283360Y-146123000D01*
X77716640Y-146123000D01*
X77160810Y-146233561D01*
X76637229Y-146450435D01*
X76166019Y-146765288D01*
X75765288Y-147166019D01*
X75450435Y-147637229D01*
X75233561Y-148160810D01*
X75152000Y-148570847D01*
X75152000Y-144270811D01*
X99173000Y-144270811D01*
X99173000Y-144729189D01*
X99262426Y-145178761D01*
X99437840Y-145602248D01*
X99692501Y-145983376D01*
X100016624Y-146307499D01*
X100397752Y-146562160D01*
X100821239Y-146737574D01*
X101270811Y-146827000D01*
X101729189Y-146827000D01*
X102178761Y-146737574D01*
X102602248Y-146562160D01*
X102983376Y-146307499D01*
X103307499Y-145983376D01*
X103562160Y-145602248D01*
X103737574Y-145178761D01*
X103827000Y-144729189D01*
X103827000Y-144270811D01*
X121173000Y-144270811D01*
X121173000Y-144729189D01*
X121262426Y-145178761D01*
X121437840Y-145602248D01*
X121692501Y-145983376D01*
X122016624Y-146307499D01*
X122397752Y-146562160D01*
X122821239Y-146737574D01*
X123270811Y-146827000D01*
X123729189Y-146827000D01*
X124178761Y-146737574D01*
X124602248Y-146562160D01*
X124983376Y-146307499D01*
X125307499Y-145983376D01*
X125562160Y-145602248D01*
X125728776Y-145200000D01*
X136561928Y-145200000D01*
X136565000Y-145714250D01*
X136723750Y-145873000D01*
X137873000Y-145873000D01*
X137873000Y-144723750D01*
X138127000Y-144723750D01*
X138127000Y-145873000D01*
X139276250Y-145873000D01*
X139435000Y-145714250D01*
X139438072Y-145200000D01*
X139425812Y-145075518D01*
X139402904Y-145000000D01*
X145409428Y-145000000D01*
X145412500Y-145714250D01*
X145571250Y-145873000D01*
X146873000Y-145873000D01*
X146873000Y-144523750D01*
X146714250Y-144365000D01*
X146047500Y-144361928D01*
X145923018Y-144374188D01*
X145803320Y-144410498D01*
X145693006Y-144469463D01*
X145596315Y-144548815D01*
X145516963Y-144645506D01*
X145457998Y-144755820D01*
X145421688Y-144875518D01*
X145409428Y-145000000D01*
X139402904Y-145000000D01*
X139389502Y-144955820D01*
X139330537Y-144845506D01*
X139251185Y-144748815D01*
X139154494Y-144669463D01*
X139044180Y-144610498D01*
X138924482Y-144574188D01*
X138800000Y-144561928D01*
X138285750Y-144565000D01*
X138127000Y-144723750D01*
X137873000Y-144723750D01*
X137714250Y-144565000D01*
X137200000Y-144561928D01*
X137075518Y-144574188D01*
X136955820Y-144610498D01*
X136845506Y-144669463D01*
X136748815Y-144748815D01*
X136669463Y-144845506D01*
X136610498Y-144955820D01*
X136574188Y-145075518D01*
X136561928Y-145200000D01*
X125728776Y-145200000D01*
X125737574Y-145178761D01*
X125827000Y-144729189D01*
X125827000Y-144270811D01*
X125737574Y-143821239D01*
X125562160Y-143397752D01*
X125503665Y-143310207D01*
X172073000Y-143310207D01*
X172073000Y-143689793D01*
X172147053Y-144062085D01*
X172292315Y-144412777D01*
X172503201Y-144728391D01*
X172652344Y-144877534D01*
X172610498Y-144955820D01*
X172574188Y-145075518D01*
X172561928Y-145200000D01*
X172565000Y-145714250D01*
X172723750Y-145873000D01*
X173873000Y-145873000D01*
X173873000Y-145853000D01*
X174127000Y-145853000D01*
X174127000Y-145873000D01*
X175276250Y-145873000D01*
X175435000Y-145714250D01*
X175438072Y-145200000D01*
X175425812Y-145075518D01*
X175389502Y-144955820D01*
X175347656Y-144877534D01*
X175496799Y-144728391D01*
X175707685Y-144412777D01*
X175852947Y-144062085D01*
X175927000Y-143689793D01*
X175927000Y-143310207D01*
X175852947Y-142937915D01*
X175707685Y-142587223D01*
X175496799Y-142271609D01*
X175228391Y-142003201D01*
X174912777Y-141792315D01*
X174562085Y-141647053D01*
X174189793Y-141573000D01*
X173810207Y-141573000D01*
X173437915Y-141647053D01*
X173087223Y-141792315D01*
X172771609Y-142003201D01*
X172503201Y-142271609D01*
X172292315Y-142587223D01*
X172147053Y-142937915D01*
X172073000Y-143310207D01*
X125503665Y-143310207D01*
X125307499Y-143016624D01*
X124983376Y-142692501D01*
X124602248Y-142437840D01*
X124178761Y-142262426D01*
X123729189Y-142173000D01*
X123270811Y-142173000D01*
X122821239Y-142262426D01*
X122397752Y-142437840D01*
X122016624Y-142692501D01*
X121692501Y-143016624D01*
X121437840Y-143397752D01*
X121262426Y-143821239D01*
X121173000Y-144270811D01*
X103827000Y-144270811D01*
X103737574Y-143821239D01*
X103562160Y-143397752D01*
X103307499Y-143016624D01*
X102983376Y-142692501D01*
X102602248Y-142437840D01*
X102178761Y-142262426D01*
X101729189Y-142173000D01*
X101270811Y-142173000D01*
X100821239Y-142262426D01*
X100397752Y-142437840D01*
X100016624Y-142692501D01*
X99692501Y-143016624D01*
X99437840Y-143397752D01*
X99262426Y-143821239D01*
X99173000Y-144270811D01*
X75152000Y-144270811D01*
X75152000Y-140231414D01*
X134373000Y-140231414D01*
X134373000Y-140768586D01*
X134477797Y-141295437D01*
X134683364Y-141791719D01*
X134981801Y-142238361D01*
X135361639Y-142618199D01*
X135808281Y-142916636D01*
X136304563Y-143122203D01*
X136831414Y-143227000D01*
X137368586Y-143227000D01*
X137895437Y-143122203D01*
X138391719Y-142916636D01*
X138838361Y-142618199D01*
X139218199Y-142238361D01*
X139516636Y-141791719D01*
X139722203Y-141295437D01*
X139827000Y-140768586D01*
X139827000Y-140231414D01*
X159773000Y-140231414D01*
X159773000Y-140768586D01*
X159877797Y-141295437D01*
X160083364Y-141791719D01*
X160381801Y-142238361D01*
X160761639Y-142618199D01*
X161208281Y-142916636D01*
X161704563Y-143122203D01*
X162231414Y-143227000D01*
X162768586Y-143227000D01*
X163295437Y-143122203D01*
X163791719Y-142916636D01*
X164238361Y-142618199D01*
X164618199Y-142238361D01*
X164916636Y-141791719D01*
X165122203Y-141295437D01*
X165227000Y-140768586D01*
X165227000Y-140231414D01*
X165122203Y-139704563D01*
X164916636Y-139208281D01*
X164650652Y-138810207D01*
X172073000Y-138810207D01*
X172073000Y-139189793D01*
X172147053Y-139562085D01*
X172292315Y-139912777D01*
X172503201Y-140228391D01*
X172771609Y-140496799D01*
X173087223Y-140707685D01*
X173437915Y-140852947D01*
X173810207Y-140927000D01*
X174189793Y-140927000D01*
X174562085Y-140852947D01*
X174912777Y-140707685D01*
X175228391Y-140496799D01*
X175496799Y-140228391D01*
X175707685Y-139912777D01*
X175852947Y-139562085D01*
X175927000Y-139189793D01*
X175927000Y-138810207D01*
X175926021Y-138805282D01*
X180968202Y-138805282D01*
X180968202Y-139194718D01*
X181044177Y-139576670D01*
X181193207Y-139936461D01*
X181409566Y-140260264D01*
X181684938Y-140535636D01*
X182008741Y-140751995D01*
X182368532Y-140901025D01*
X182750484Y-140977000D01*
X183139920Y-140977000D01*
X183521872Y-140901025D01*
X183881663Y-140751995D01*
X184013165Y-140664128D01*
X184117152Y-140749468D01*
X184356160Y-140877220D01*
X184615499Y-140955890D01*
X184885202Y-140982453D01*
X186085202Y-140982453D01*
X186354905Y-140955890D01*
X186614244Y-140877220D01*
X186853252Y-140749468D01*
X187062744Y-140577542D01*
X187234670Y-140368050D01*
X187362422Y-140129042D01*
X187441092Y-139869703D01*
X187467655Y-139600000D01*
X187467655Y-138400000D01*
X187441092Y-138130297D01*
X187362422Y-137870958D01*
X187234670Y-137631950D01*
X187062744Y-137422458D01*
X186853252Y-137250532D01*
X186773708Y-137208015D01*
X186888573Y-136967117D01*
X186960541Y-136683589D01*
X186975813Y-136391469D01*
X186933801Y-136101981D01*
X186836121Y-135826253D01*
X186762674Y-135688843D01*
X186513599Y-135611208D01*
X185664807Y-136460000D01*
X185678950Y-136474143D01*
X185499345Y-136653748D01*
X185485202Y-136639605D01*
X185471060Y-136653748D01*
X185291455Y-136474143D01*
X185305597Y-136460000D01*
X184456805Y-135611208D01*
X184215202Y-135686514D01*
X183973599Y-135611208D01*
X183124807Y-136460000D01*
X183138950Y-136474143D01*
X182959345Y-136653748D01*
X182945202Y-136639605D01*
X182931060Y-136653748D01*
X182751455Y-136474143D01*
X182765597Y-136460000D01*
X181916805Y-135611208D01*
X181667730Y-135688843D01*
X181541831Y-135952883D01*
X181469863Y-136236411D01*
X181454591Y-136528531D01*
X181496603Y-136818019D01*
X181594283Y-137093747D01*
X181667730Y-137231157D01*
X181916803Y-137308791D01*
X181914859Y-137310735D01*
X181684938Y-137464364D01*
X181409566Y-137739736D01*
X181193207Y-138063539D01*
X181044177Y-138423330D01*
X180968202Y-138805282D01*
X175926021Y-138805282D01*
X175852947Y-138437915D01*
X175707685Y-138087223D01*
X175496799Y-137771609D01*
X175228391Y-137503201D01*
X174912777Y-137292315D01*
X174562085Y-137147053D01*
X174189793Y-137073000D01*
X173810207Y-137073000D01*
X173437915Y-137147053D01*
X173087223Y-137292315D01*
X172771609Y-137503201D01*
X172503201Y-137771609D01*
X172292315Y-138087223D01*
X172147053Y-138437915D01*
X172073000Y-138810207D01*
X164650652Y-138810207D01*
X164618199Y-138761639D01*
X164238361Y-138381801D01*
X163791719Y-138083364D01*
X163295437Y-137877797D01*
X162768586Y-137773000D01*
X162231414Y-137773000D01*
X161704563Y-137877797D01*
X161208281Y-138083364D01*
X160761639Y-138381801D01*
X160381801Y-138761639D01*
X160083364Y-139208281D01*
X159877797Y-139704563D01*
X159773000Y-140231414D01*
X139827000Y-140231414D01*
X139722203Y-139704563D01*
X139516636Y-139208281D01*
X139218199Y-138761639D01*
X138838361Y-138381801D01*
X138391719Y-138083364D01*
X137895437Y-137877797D01*
X137368586Y-137773000D01*
X136831414Y-137773000D01*
X136304563Y-137877797D01*
X135808281Y-138083364D01*
X135361639Y-138381801D01*
X134981801Y-138761639D01*
X134683364Y-139208281D01*
X134477797Y-139704563D01*
X134373000Y-140231414D01*
X75152000Y-140231414D01*
X75152000Y-136240660D01*
X86473000Y-136240660D01*
X86473000Y-136679340D01*
X86558582Y-137109592D01*
X86726458Y-137514880D01*
X86970176Y-137879630D01*
X87280370Y-138189824D01*
X87645120Y-138433542D01*
X88050408Y-138601418D01*
X88480660Y-138687000D01*
X88919340Y-138687000D01*
X89349592Y-138601418D01*
X89754880Y-138433542D01*
X90104400Y-138200000D01*
X99661928Y-138200000D01*
X99674188Y-138324482D01*
X99710498Y-138444180D01*
X99769463Y-138554494D01*
X99848815Y-138651185D01*
X99945506Y-138730537D01*
X100055820Y-138789502D01*
X100175518Y-138825812D01*
X100300000Y-138838072D01*
X101214250Y-138835000D01*
X101373000Y-138676250D01*
X101373000Y-137127000D01*
X101627000Y-137127000D01*
X101627000Y-138676250D01*
X101785750Y-138835000D01*
X102700000Y-138838072D01*
X102824482Y-138825812D01*
X102944180Y-138789502D01*
X103054494Y-138730537D01*
X103151185Y-138651185D01*
X103230537Y-138554494D01*
X103289502Y-138444180D01*
X103325812Y-138324482D01*
X103338072Y-138200000D01*
X121661928Y-138200000D01*
X121674188Y-138324482D01*
X121710498Y-138444180D01*
X121769463Y-138554494D01*
X121848815Y-138651185D01*
X121945506Y-138730537D01*
X122055820Y-138789502D01*
X122175518Y-138825812D01*
X122300000Y-138838072D01*
X123214250Y-138835000D01*
X123373000Y-138676250D01*
X123373000Y-137127000D01*
X123627000Y-137127000D01*
X123627000Y-138676250D01*
X123785750Y-138835000D01*
X124700000Y-138838072D01*
X124824482Y-138825812D01*
X124944180Y-138789502D01*
X125054494Y-138730537D01*
X125151185Y-138651185D01*
X125230537Y-138554494D01*
X125289502Y-138444180D01*
X125325812Y-138324482D01*
X125338072Y-138200000D01*
X125335000Y-137285750D01*
X125176250Y-137127000D01*
X123627000Y-137127000D01*
X123373000Y-137127000D01*
X121823750Y-137127000D01*
X121665000Y-137285750D01*
X121661928Y-138200000D01*
X103338072Y-138200000D01*
X103335000Y-137285750D01*
X103176250Y-137127000D01*
X101627000Y-137127000D01*
X101373000Y-137127000D01*
X99823750Y-137127000D01*
X99665000Y-137285750D01*
X99661928Y-138200000D01*
X90104400Y-138200000D01*
X90119630Y-138189824D01*
X90429824Y-137879630D01*
X90673542Y-137514880D01*
X90841418Y-137109592D01*
X90927000Y-136679340D01*
X90927000Y-136240660D01*
X90841418Y-135810408D01*
X90837107Y-135800000D01*
X99661928Y-135800000D01*
X99665000Y-136714250D01*
X99823750Y-136873000D01*
X101373000Y-136873000D01*
X101373000Y-135323750D01*
X101627000Y-135323750D01*
X101627000Y-136873000D01*
X103176250Y-136873000D01*
X103335000Y-136714250D01*
X103338072Y-135800000D01*
X121661928Y-135800000D01*
X121665000Y-136714250D01*
X121823750Y-136873000D01*
X123373000Y-136873000D01*
X123373000Y-135323750D01*
X123627000Y-135323750D01*
X123627000Y-136873000D01*
X125176250Y-136873000D01*
X125335000Y-136714250D01*
X125338072Y-135800000D01*
X125325812Y-135675518D01*
X125289502Y-135555820D01*
X125230537Y-135445506D01*
X125151185Y-135348815D01*
X125054494Y-135269463D01*
X124944180Y-135210498D01*
X124824482Y-135174188D01*
X124700000Y-135161928D01*
X123785750Y-135165000D01*
X123627000Y-135323750D01*
X123373000Y-135323750D01*
X123214250Y-135165000D01*
X122300000Y-135161928D01*
X122175518Y-135174188D01*
X122055820Y-135210498D01*
X121945506Y-135269463D01*
X121848815Y-135348815D01*
X121769463Y-135445506D01*
X121710498Y-135555820D01*
X121674188Y-135675518D01*
X121661928Y-135800000D01*
X103338072Y-135800000D01*
X103325812Y-135675518D01*
X103289502Y-135555820D01*
X103230537Y-135445506D01*
X103151185Y-135348815D01*
X103054494Y-135269463D01*
X102944180Y-135210498D01*
X102824482Y-135174188D01*
X102700000Y-135161928D01*
X101785750Y-135165000D01*
X101627000Y-135323750D01*
X101373000Y-135323750D01*
X101214250Y-135165000D01*
X100300000Y-135161928D01*
X100175518Y-135174188D01*
X100055820Y-135210498D01*
X99945506Y-135269463D01*
X99848815Y-135348815D01*
X99769463Y-135445506D01*
X99710498Y-135555820D01*
X99674188Y-135675518D01*
X99661928Y-135800000D01*
X90837107Y-135800000D01*
X90673542Y-135405120D01*
X90429824Y-135040370D01*
X90337851Y-134948397D01*
X182096410Y-134948397D01*
X182171716Y-135190000D01*
X182096410Y-135431603D01*
X182945202Y-136280395D01*
X183793994Y-135431603D01*
X183718688Y-135190000D01*
X183793994Y-134948397D01*
X184636410Y-134948397D01*
X184711716Y-135190000D01*
X184636410Y-135431603D01*
X185485202Y-136280395D01*
X186333994Y-135431603D01*
X186258688Y-135190000D01*
X186333994Y-134948397D01*
X185485202Y-134099605D01*
X184636410Y-134948397D01*
X183793994Y-134948397D01*
X182945202Y-134099605D01*
X182096410Y-134948397D01*
X90337851Y-134948397D01*
X90119630Y-134730176D01*
X89754880Y-134486458D01*
X89349592Y-134318582D01*
X88919340Y-134233000D01*
X88480660Y-134233000D01*
X88050408Y-134318582D01*
X87645120Y-134486458D01*
X87280370Y-134730176D01*
X86970176Y-135040370D01*
X86726458Y-135405120D01*
X86558582Y-135810408D01*
X86473000Y-136240660D01*
X75152000Y-136240660D01*
X75152000Y-133988531D01*
X181454591Y-133988531D01*
X181496603Y-134278019D01*
X181594283Y-134553747D01*
X181667730Y-134691157D01*
X181916805Y-134768792D01*
X182765597Y-133920000D01*
X183124807Y-133920000D01*
X183973599Y-134768792D01*
X184215202Y-134693486D01*
X184456805Y-134768792D01*
X185305597Y-133920000D01*
X185664807Y-133920000D01*
X186513599Y-134768792D01*
X186762674Y-134691157D01*
X186888573Y-134427117D01*
X186960541Y-134143589D01*
X186975813Y-133851469D01*
X186933801Y-133561981D01*
X186836121Y-133286253D01*
X186762674Y-133148843D01*
X186513599Y-133071208D01*
X185664807Y-133920000D01*
X185305597Y-133920000D01*
X184456805Y-133071208D01*
X184215202Y-133146514D01*
X183973599Y-133071208D01*
X183124807Y-133920000D01*
X182765597Y-133920000D01*
X181916805Y-133071208D01*
X181667730Y-133148843D01*
X181541831Y-133412883D01*
X181469863Y-133696411D01*
X181454591Y-133988531D01*
X75152000Y-133988531D01*
X75152000Y-132408397D01*
X182096410Y-132408397D01*
X182171716Y-132650000D01*
X182096410Y-132891603D01*
X182945202Y-133740395D01*
X183793994Y-132891603D01*
X183718688Y-132650000D01*
X183793994Y-132408397D01*
X184636410Y-132408397D01*
X184711716Y-132650000D01*
X184636410Y-132891603D01*
X185485202Y-133740395D01*
X186333994Y-132891603D01*
X186258688Y-132650000D01*
X186333994Y-132408397D01*
X185485202Y-131559605D01*
X184636410Y-132408397D01*
X183793994Y-132408397D01*
X182945202Y-131559605D01*
X182096410Y-132408397D01*
X75152000Y-132408397D01*
X75152000Y-129189040D01*
X172608091Y-129189040D01*
X172702930Y-129453881D01*
X172847615Y-129695131D01*
X173036586Y-129903519D01*
X173262580Y-130071037D01*
X173516913Y-130191246D01*
X173650961Y-130231904D01*
X173873000Y-130109915D01*
X173873000Y-128967000D01*
X174127000Y-128967000D01*
X174127000Y-130109915D01*
X174349039Y-130231904D01*
X174483087Y-130191246D01*
X174737420Y-130071037D01*
X174963414Y-129903519D01*
X175152385Y-129695131D01*
X175297070Y-129453881D01*
X175391909Y-129189040D01*
X175270624Y-128967000D01*
X174127000Y-128967000D01*
X173873000Y-128967000D01*
X172729376Y-128967000D01*
X172608091Y-129189040D01*
X75152000Y-129189040D01*
X75152000Y-125200000D01*
X86467547Y-125200000D01*
X86467547Y-127400000D01*
X86489307Y-127620931D01*
X86553750Y-127833371D01*
X86658400Y-128029157D01*
X86799235Y-128200765D01*
X86970843Y-128341600D01*
X87166629Y-128446250D01*
X87379069Y-128510693D01*
X87600000Y-128532453D01*
X89800000Y-128532453D01*
X90020931Y-128510693D01*
X90085981Y-128490960D01*
X172608091Y-128490960D01*
X172729376Y-128713000D01*
X173873000Y-128713000D01*
X173873000Y-127570085D01*
X174127000Y-127570085D01*
X174127000Y-128713000D01*
X175270624Y-128713000D01*
X175307613Y-128645282D01*
X180968202Y-128645282D01*
X180968202Y-129034718D01*
X181044177Y-129416670D01*
X181193207Y-129776461D01*
X181409566Y-130100264D01*
X181684938Y-130375636D01*
X181914859Y-130529265D01*
X181916803Y-130531209D01*
X181667730Y-130608843D01*
X181541831Y-130872883D01*
X181469863Y-131156411D01*
X181454591Y-131448531D01*
X181496603Y-131738019D01*
X181594283Y-132013747D01*
X181667730Y-132151157D01*
X181916805Y-132228792D01*
X182765597Y-131380000D01*
X182751455Y-131365858D01*
X182931060Y-131186253D01*
X182945202Y-131200395D01*
X182959345Y-131186253D01*
X183138950Y-131365858D01*
X183124807Y-131380000D01*
X183973599Y-132228792D01*
X184215202Y-132153486D01*
X184456805Y-132228792D01*
X185305597Y-131380000D01*
X185291455Y-131365858D01*
X185471060Y-131186253D01*
X185485202Y-131200395D01*
X185499345Y-131186253D01*
X185678950Y-131365858D01*
X185664807Y-131380000D01*
X186513599Y-132228792D01*
X186762674Y-132151157D01*
X186888573Y-131887117D01*
X186960541Y-131603589D01*
X186975813Y-131311469D01*
X186933801Y-131021981D01*
X186836121Y-130746253D01*
X186762674Y-130608843D01*
X186513601Y-130531209D01*
X186515545Y-130529265D01*
X186745466Y-130375636D01*
X187020838Y-130100264D01*
X187237197Y-129776461D01*
X187386227Y-129416670D01*
X187462202Y-129034718D01*
X187462202Y-128645282D01*
X187386227Y-128263330D01*
X187237197Y-127903539D01*
X187020838Y-127579736D01*
X186745466Y-127304364D01*
X186421663Y-127088005D01*
X186061872Y-126938975D01*
X185679920Y-126863000D01*
X185290484Y-126863000D01*
X184908532Y-126938975D01*
X184548741Y-127088005D01*
X184224938Y-127304364D01*
X184215202Y-127314100D01*
X184205466Y-127304364D01*
X183881663Y-127088005D01*
X183521872Y-126938975D01*
X183139920Y-126863000D01*
X182750484Y-126863000D01*
X182368532Y-126938975D01*
X182008741Y-127088005D01*
X181684938Y-127304364D01*
X181409566Y-127579736D01*
X181193207Y-127903539D01*
X181044177Y-128263330D01*
X180968202Y-128645282D01*
X175307613Y-128645282D01*
X175391909Y-128490960D01*
X175297070Y-128226119D01*
X175152385Y-127984869D01*
X174963414Y-127776481D01*
X174737420Y-127608963D01*
X174483087Y-127488754D01*
X174349039Y-127448096D01*
X174127000Y-127570085D01*
X173873000Y-127570085D01*
X173650961Y-127448096D01*
X173516913Y-127488754D01*
X173262580Y-127608963D01*
X173036586Y-127776481D01*
X172847615Y-127984869D01*
X172702930Y-128226119D01*
X172608091Y-128490960D01*
X90085981Y-128490960D01*
X90233371Y-128446250D01*
X90429157Y-128341600D01*
X90600765Y-128200765D01*
X90741600Y-128029157D01*
X90846250Y-127833371D01*
X90910693Y-127620931D01*
X90932453Y-127400000D01*
X90932453Y-126492702D01*
X137186903Y-126492702D01*
X137258486Y-126736671D01*
X137513996Y-126857571D01*
X137788184Y-126926300D01*
X138070512Y-126940217D01*
X138350130Y-126898787D01*
X138616292Y-126803603D01*
X138741514Y-126736671D01*
X138813097Y-126492702D01*
X138000000Y-125679605D01*
X137186903Y-126492702D01*
X90932453Y-126492702D01*
X90932453Y-125200000D01*
X90910693Y-124979069D01*
X90846250Y-124766629D01*
X90741600Y-124570843D01*
X90600765Y-124399235D01*
X90429157Y-124258400D01*
X90233371Y-124153750D01*
X90020931Y-124089307D01*
X89800000Y-124067547D01*
X87600000Y-124067547D01*
X87379069Y-124089307D01*
X87166629Y-124153750D01*
X86970843Y-124258400D01*
X86799235Y-124399235D01*
X86658400Y-124570843D01*
X86553750Y-124766629D01*
X86489307Y-124979069D01*
X86467547Y-125200000D01*
X75152000Y-125200000D01*
X75152000Y-120825000D01*
X82117547Y-120825000D01*
X82117547Y-122575000D01*
X82156120Y-122966635D01*
X82270355Y-123343219D01*
X82455864Y-123690281D01*
X82705516Y-123994484D01*
X83009719Y-124244136D01*
X83356781Y-124429645D01*
X83733365Y-124543880D01*
X84125000Y-124582453D01*
X85875000Y-124582453D01*
X86266635Y-124543880D01*
X86643219Y-124429645D01*
X86990281Y-124244136D01*
X87294484Y-123994484D01*
X87544136Y-123690281D01*
X87729645Y-123343219D01*
X87843880Y-122966635D01*
X87882453Y-122575000D01*
X87882453Y-120825000D01*
X87843880Y-120433365D01*
X87794571Y-120270811D01*
X99173000Y-120270811D01*
X99173000Y-120729189D01*
X99262426Y-121178761D01*
X99437840Y-121602248D01*
X99692501Y-121983376D01*
X100016624Y-122307499D01*
X100397752Y-122562160D01*
X100821239Y-122737574D01*
X101270811Y-122827000D01*
X101729189Y-122827000D01*
X102178761Y-122737574D01*
X102602248Y-122562160D01*
X102983376Y-122307499D01*
X103307499Y-121983376D01*
X103444739Y-121777980D01*
X122401626Y-121777980D01*
X122521514Y-122062836D01*
X122845210Y-122223699D01*
X123194069Y-122318322D01*
X123554684Y-122343067D01*
X123913198Y-122296985D01*
X124201809Y-122200000D01*
X136067547Y-122200000D01*
X136067547Y-123800000D01*
X136089307Y-124020931D01*
X136153750Y-124233371D01*
X136258400Y-124429157D01*
X136399235Y-124600765D01*
X136570843Y-124741600D01*
X136730851Y-124827126D01*
X136642429Y-125013996D01*
X136573700Y-125288184D01*
X136559783Y-125570512D01*
X136601213Y-125850130D01*
X136696397Y-126116292D01*
X136763329Y-126241514D01*
X137007298Y-126313097D01*
X137820395Y-125500000D01*
X137806253Y-125485858D01*
X137985858Y-125306253D01*
X138000000Y-125320395D01*
X138014143Y-125306253D01*
X138193748Y-125485858D01*
X138179605Y-125500000D01*
X138992702Y-126313097D01*
X139236671Y-126241514D01*
X139357571Y-125986004D01*
X139426300Y-125711816D01*
X139440217Y-125429488D01*
X139398787Y-125149870D01*
X139309430Y-124900000D01*
X141767547Y-124900000D01*
X141767547Y-127100000D01*
X141789307Y-127320931D01*
X141853750Y-127533371D01*
X141958400Y-127729157D01*
X142099235Y-127900765D01*
X142270843Y-128041600D01*
X142466629Y-128146250D01*
X142679069Y-128210693D01*
X142900000Y-128232453D01*
X145100000Y-128232453D01*
X145320931Y-128210693D01*
X145533371Y-128146250D01*
X145729157Y-128041600D01*
X145900765Y-127900765D01*
X146041600Y-127729157D01*
X146146250Y-127533371D01*
X146210693Y-127320931D01*
X146232453Y-127100000D01*
X146232453Y-125780660D01*
X151933000Y-125780660D01*
X151933000Y-126219340D01*
X152018582Y-126649592D01*
X152186458Y-127054880D01*
X152430176Y-127419630D01*
X152740370Y-127729824D01*
X153105120Y-127973542D01*
X153510408Y-128141418D01*
X153940660Y-128227000D01*
X154379340Y-128227000D01*
X154809592Y-128141418D01*
X155214880Y-127973542D01*
X155579630Y-127729824D01*
X155889824Y-127419630D01*
X156133542Y-127054880D01*
X156301418Y-126649592D01*
X156387000Y-126219340D01*
X156387000Y-125780660D01*
X156301418Y-125350408D01*
X156133542Y-124945120D01*
X155889824Y-124580370D01*
X155802156Y-124492702D01*
X174186903Y-124492702D01*
X174258486Y-124736671D01*
X174513996Y-124857571D01*
X174788184Y-124926300D01*
X175070512Y-124940217D01*
X175350130Y-124898787D01*
X175616292Y-124803603D01*
X175741514Y-124736671D01*
X175813097Y-124492702D01*
X175000000Y-123679605D01*
X174186903Y-124492702D01*
X155802156Y-124492702D01*
X155579630Y-124270176D01*
X155214880Y-124026458D01*
X154809592Y-123858582D01*
X154379340Y-123773000D01*
X153940660Y-123773000D01*
X153510408Y-123858582D01*
X153105120Y-124026458D01*
X152740370Y-124270176D01*
X152430176Y-124580370D01*
X152186458Y-124945120D01*
X152018582Y-125350408D01*
X151933000Y-125780660D01*
X146232453Y-125780660D01*
X146232453Y-124900000D01*
X146210693Y-124679069D01*
X146146250Y-124466629D01*
X146041600Y-124270843D01*
X145917520Y-124119651D01*
X146047500Y-124132453D01*
X147952500Y-124132453D01*
X148173431Y-124110693D01*
X148385871Y-124046250D01*
X148581657Y-123941600D01*
X148753265Y-123800765D01*
X148894100Y-123629157D01*
X148952117Y-123520616D01*
X149167020Y-123590563D01*
X149413000Y-123470594D01*
X149413000Y-122127000D01*
X149393000Y-122127000D01*
X149393000Y-121873000D01*
X149413000Y-121873000D01*
X149413000Y-120529406D01*
X149667000Y-120529406D01*
X149667000Y-121873000D01*
X149687000Y-121873000D01*
X149687000Y-122127000D01*
X149667000Y-122127000D01*
X149667000Y-123470594D01*
X149912980Y-123590563D01*
X150131094Y-123519571D01*
X150406923Y-123375969D01*
X150451049Y-123340551D01*
X150602457Y-123525043D01*
X150919102Y-123784906D01*
X151280361Y-123978003D01*
X151672348Y-124096911D01*
X152080000Y-124137061D01*
X152487653Y-124096911D01*
X152879640Y-123978003D01*
X153240898Y-123784906D01*
X153557543Y-123525043D01*
X153817406Y-123208398D01*
X154010503Y-122847139D01*
X154129411Y-122455152D01*
X154159500Y-122149651D01*
X154159500Y-121850348D01*
X154129411Y-121544847D01*
X154010503Y-121152860D01*
X153875347Y-120900000D01*
X155767547Y-120900000D01*
X155767547Y-123100000D01*
X155789307Y-123320931D01*
X155853750Y-123533371D01*
X155958400Y-123729157D01*
X156099235Y-123900765D01*
X156270843Y-124041600D01*
X156466629Y-124146250D01*
X156679069Y-124210693D01*
X156900000Y-124232453D01*
X159100000Y-124232453D01*
X159320931Y-124210693D01*
X159533371Y-124146250D01*
X159729157Y-124041600D01*
X159900765Y-123900765D01*
X160041600Y-123729157D01*
X160146250Y-123533371D01*
X160210693Y-123320931D01*
X160232453Y-123100000D01*
X160232453Y-122396122D01*
X166470825Y-122396122D01*
X166535425Y-122609094D01*
X166685469Y-122914329D01*
X166892178Y-123184427D01*
X167147609Y-123409008D01*
X167441946Y-123579442D01*
X167763877Y-123689179D01*
X168033000Y-123571600D01*
X168033000Y-122127000D01*
X168287000Y-122127000D01*
X168287000Y-123571600D01*
X168556123Y-123689179D01*
X168878054Y-123579442D01*
X169172391Y-123409008D01*
X169427822Y-123184427D01*
X169634531Y-122914329D01*
X169784575Y-122609094D01*
X169849175Y-122396122D01*
X169731125Y-122127000D01*
X168287000Y-122127000D01*
X168033000Y-122127000D01*
X166588875Y-122127000D01*
X166470825Y-122396122D01*
X160232453Y-122396122D01*
X160232453Y-121603878D01*
X166470825Y-121603878D01*
X166588875Y-121873000D01*
X168033000Y-121873000D01*
X168033000Y-120428400D01*
X168287000Y-120428400D01*
X168287000Y-121873000D01*
X169731125Y-121873000D01*
X169849175Y-121603878D01*
X169784575Y-121390906D01*
X169634531Y-121085671D01*
X169427822Y-120815573D01*
X169172391Y-120590992D01*
X168878054Y-120420558D01*
X168556123Y-120310821D01*
X168287000Y-120428400D01*
X168033000Y-120428400D01*
X167763877Y-120310821D01*
X167441946Y-120420558D01*
X167147609Y-120590992D01*
X166892178Y-120815573D01*
X166685469Y-121085671D01*
X166535425Y-121390906D01*
X166470825Y-121603878D01*
X160232453Y-121603878D01*
X160232453Y-120900000D01*
X160210693Y-120679069D01*
X160146250Y-120466629D01*
X160041600Y-120270843D01*
X159983461Y-120200000D01*
X173067547Y-120200000D01*
X173067547Y-121800000D01*
X173089307Y-122020931D01*
X173153750Y-122233371D01*
X173258400Y-122429157D01*
X173399235Y-122600765D01*
X173570843Y-122741600D01*
X173730851Y-122827126D01*
X173642429Y-123013996D01*
X173573700Y-123288184D01*
X173559783Y-123570512D01*
X173601213Y-123850130D01*
X173696397Y-124116292D01*
X173763329Y-124241514D01*
X174007298Y-124313097D01*
X174820395Y-123500000D01*
X174806253Y-123485858D01*
X174985858Y-123306253D01*
X175000000Y-123320395D01*
X175014143Y-123306253D01*
X175193748Y-123485858D01*
X175179605Y-123500000D01*
X175992702Y-124313097D01*
X176236671Y-124241514D01*
X176357571Y-123986004D01*
X176426300Y-123711816D01*
X176440217Y-123429488D01*
X176398787Y-123149870D01*
X176303603Y-122883708D01*
X176272424Y-122825376D01*
X176429157Y-122741600D01*
X176600765Y-122600765D01*
X176741600Y-122429157D01*
X176846250Y-122233371D01*
X176910693Y-122020931D01*
X176932453Y-121800000D01*
X176932453Y-120200000D01*
X176910693Y-119979069D01*
X176846250Y-119766629D01*
X176741600Y-119570843D01*
X176600765Y-119399235D01*
X176429157Y-119258400D01*
X176233371Y-119153750D01*
X176020931Y-119089307D01*
X175800000Y-119067547D01*
X174200000Y-119067547D01*
X173979069Y-119089307D01*
X173766629Y-119153750D01*
X173570843Y-119258400D01*
X173399235Y-119399235D01*
X173258400Y-119570843D01*
X173153750Y-119766629D01*
X173089307Y-119979069D01*
X173067547Y-120200000D01*
X159983461Y-120200000D01*
X159900765Y-120099235D01*
X159729157Y-119958400D01*
X159533371Y-119853750D01*
X159320931Y-119789307D01*
X159100000Y-119767547D01*
X156900000Y-119767547D01*
X156679069Y-119789307D01*
X156466629Y-119853750D01*
X156270843Y-119958400D01*
X156099235Y-120099235D01*
X155958400Y-120270843D01*
X155853750Y-120466629D01*
X155789307Y-120679069D01*
X155767547Y-120900000D01*
X153875347Y-120900000D01*
X153817406Y-120791602D01*
X153557543Y-120474957D01*
X153240898Y-120215094D01*
X152879639Y-120021997D01*
X152487652Y-119903089D01*
X152080000Y-119862939D01*
X151672347Y-119903089D01*
X151280360Y-120021997D01*
X150919102Y-120215094D01*
X150602457Y-120474957D01*
X150451049Y-120659449D01*
X150406923Y-120624031D01*
X150131094Y-120480429D01*
X149912980Y-120409437D01*
X149667000Y-120529406D01*
X149413000Y-120529406D01*
X149167020Y-120409437D01*
X148952117Y-120479384D01*
X148894100Y-120370843D01*
X148753265Y-120199235D01*
X148581657Y-120058400D01*
X148385871Y-119953750D01*
X148173431Y-119889307D01*
X147952500Y-119867547D01*
X146047500Y-119867547D01*
X145826569Y-119889307D01*
X145614129Y-119953750D01*
X145418343Y-120058400D01*
X145246735Y-120199235D01*
X145105900Y-120370843D01*
X145001250Y-120566629D01*
X144936807Y-120779069D01*
X144915047Y-121000000D01*
X144915047Y-123000000D01*
X144936807Y-123220931D01*
X145001250Y-123433371D01*
X145105900Y-123629157D01*
X145229980Y-123780349D01*
X145100000Y-123767547D01*
X142900000Y-123767547D01*
X142679069Y-123789307D01*
X142466629Y-123853750D01*
X142270843Y-123958400D01*
X142099235Y-124099235D01*
X141958400Y-124270843D01*
X141853750Y-124466629D01*
X141789307Y-124679069D01*
X141767547Y-124900000D01*
X139309430Y-124900000D01*
X139303603Y-124883708D01*
X139272424Y-124825376D01*
X139429157Y-124741600D01*
X139600765Y-124600765D01*
X139741600Y-124429157D01*
X139846250Y-124233371D01*
X139910693Y-124020931D01*
X139932453Y-123800000D01*
X139932453Y-122200000D01*
X139910693Y-121979069D01*
X139846250Y-121766629D01*
X139741600Y-121570843D01*
X139600765Y-121399235D01*
X139429157Y-121258400D01*
X139233371Y-121153750D01*
X139020931Y-121089307D01*
X138800000Y-121067547D01*
X137200000Y-121067547D01*
X136979069Y-121089307D01*
X136766629Y-121153750D01*
X136570843Y-121258400D01*
X136399235Y-121399235D01*
X136258400Y-121570843D01*
X136153750Y-121766629D01*
X136089307Y-121979069D01*
X136067547Y-122200000D01*
X124201809Y-122200000D01*
X124255833Y-122181846D01*
X124478486Y-122062836D01*
X124598374Y-121777980D01*
X123500000Y-120679605D01*
X122401626Y-121777980D01*
X103444739Y-121777980D01*
X103562160Y-121602248D01*
X103737574Y-121178761D01*
X103827000Y-120729189D01*
X103827000Y-120554684D01*
X121656933Y-120554684D01*
X121703015Y-120913198D01*
X121818154Y-121255833D01*
X121937164Y-121478486D01*
X122222020Y-121598374D01*
X123320395Y-120500000D01*
X123679605Y-120500000D01*
X124777980Y-121598374D01*
X125062836Y-121478486D01*
X125223699Y-121154790D01*
X125318322Y-120805931D01*
X125343067Y-120445316D01*
X125296985Y-120086802D01*
X125181846Y-119744167D01*
X125062836Y-119521514D01*
X124777980Y-119401626D01*
X123679605Y-120500000D01*
X123320395Y-120500000D01*
X122222020Y-119401626D01*
X121937164Y-119521514D01*
X121776301Y-119845210D01*
X121681678Y-120194069D01*
X121656933Y-120554684D01*
X103827000Y-120554684D01*
X103827000Y-120270811D01*
X103737574Y-119821239D01*
X103562160Y-119397752D01*
X103444740Y-119222020D01*
X122401626Y-119222020D01*
X123500000Y-120320395D01*
X124598374Y-119222020D01*
X124478486Y-118937164D01*
X124154790Y-118776301D01*
X123805931Y-118681678D01*
X123445316Y-118656933D01*
X123086802Y-118703015D01*
X122744167Y-118818154D01*
X122521514Y-118937164D01*
X122401626Y-119222020D01*
X103444740Y-119222020D01*
X103307499Y-119016624D01*
X102983376Y-118692501D01*
X102602248Y-118437840D01*
X102178761Y-118262426D01*
X101729189Y-118173000D01*
X101270811Y-118173000D01*
X100821239Y-118262426D01*
X100397752Y-118437840D01*
X100016624Y-118692501D01*
X99692501Y-119016624D01*
X99437840Y-119397752D01*
X99262426Y-119821239D01*
X99173000Y-120270811D01*
X87794571Y-120270811D01*
X87729645Y-120056781D01*
X87636464Y-119882453D01*
X89750000Y-119882453D01*
X89970931Y-119860693D01*
X90183371Y-119796250D01*
X90379157Y-119691600D01*
X90550765Y-119550765D01*
X90691600Y-119379157D01*
X90796250Y-119183371D01*
X90860693Y-118970931D01*
X90882453Y-118750000D01*
X90882453Y-116231414D01*
X134373000Y-116231414D01*
X134373000Y-116768586D01*
X134477797Y-117295437D01*
X134683364Y-117791719D01*
X134981801Y-118238361D01*
X135361639Y-118618199D01*
X135808281Y-118916636D01*
X136304563Y-119122203D01*
X136831414Y-119227000D01*
X137368586Y-119227000D01*
X137895437Y-119122203D01*
X138391719Y-118916636D01*
X138838361Y-118618199D01*
X139218199Y-118238361D01*
X139516636Y-117791719D01*
X139722203Y-117295437D01*
X139827000Y-116768586D01*
X139827000Y-116231414D01*
X159673000Y-116231414D01*
X159673000Y-116768586D01*
X159777797Y-117295437D01*
X159983364Y-117791719D01*
X160281801Y-118238361D01*
X160661639Y-118618199D01*
X161108281Y-118916636D01*
X161604563Y-119122203D01*
X162131414Y-119227000D01*
X162668586Y-119227000D01*
X163195437Y-119122203D01*
X163691719Y-118916636D01*
X164138361Y-118618199D01*
X164518199Y-118238361D01*
X164816636Y-117791719D01*
X165022203Y-117295437D01*
X165127000Y-116768586D01*
X165127000Y-116231414D01*
X165022203Y-115704563D01*
X164816636Y-115208281D01*
X164550652Y-114810207D01*
X169073000Y-114810207D01*
X169073000Y-115189793D01*
X169147053Y-115562085D01*
X169292315Y-115912777D01*
X169503201Y-116228391D01*
X169771609Y-116496799D01*
X170087223Y-116707685D01*
X170437915Y-116852947D01*
X170810207Y-116927000D01*
X171189793Y-116927000D01*
X171562085Y-116852947D01*
X171912777Y-116707685D01*
X172228391Y-116496799D01*
X172496799Y-116228391D01*
X172707685Y-115912777D01*
X172852947Y-115562085D01*
X172927000Y-115189793D01*
X172927000Y-114810207D01*
X172852947Y-114437915D01*
X172707685Y-114087223D01*
X172496799Y-113771609D01*
X172228391Y-113503201D01*
X171912777Y-113292315D01*
X171562085Y-113147053D01*
X171189793Y-113073000D01*
X170810207Y-113073000D01*
X170437915Y-113147053D01*
X170087223Y-113292315D01*
X169771609Y-113503201D01*
X169503201Y-113771609D01*
X169292315Y-114087223D01*
X169147053Y-114437915D01*
X169073000Y-114810207D01*
X164550652Y-114810207D01*
X164518199Y-114761639D01*
X164138361Y-114381801D01*
X163691719Y-114083364D01*
X163195437Y-113877797D01*
X162668586Y-113773000D01*
X162131414Y-113773000D01*
X161604563Y-113877797D01*
X161108281Y-114083364D01*
X160661639Y-114381801D01*
X160281801Y-114761639D01*
X159983364Y-115208281D01*
X159777797Y-115704563D01*
X159673000Y-116231414D01*
X139827000Y-116231414D01*
X139722203Y-115704563D01*
X139516636Y-115208281D01*
X139218199Y-114761639D01*
X138838361Y-114381801D01*
X138391719Y-114083364D01*
X137895437Y-113877797D01*
X137368586Y-113773000D01*
X136831414Y-113773000D01*
X136304563Y-113877797D01*
X135808281Y-114083364D01*
X135361639Y-114381801D01*
X134981801Y-114761639D01*
X134683364Y-115208281D01*
X134477797Y-115704563D01*
X134373000Y-116231414D01*
X90882453Y-116231414D01*
X90882453Y-115250000D01*
X90860693Y-115029069D01*
X90796250Y-114816629D01*
X90691600Y-114620843D01*
X90550765Y-114449235D01*
X90379157Y-114308400D01*
X90183371Y-114203750D01*
X90171009Y-114200000D01*
X99661928Y-114200000D01*
X99674188Y-114324482D01*
X99710498Y-114444180D01*
X99769463Y-114554494D01*
X99848815Y-114651185D01*
X99945506Y-114730537D01*
X100055820Y-114789502D01*
X100175518Y-114825812D01*
X100300000Y-114838072D01*
X101214250Y-114835000D01*
X101373000Y-114676250D01*
X101373000Y-113127000D01*
X101627000Y-113127000D01*
X101627000Y-114676250D01*
X101785750Y-114835000D01*
X102700000Y-114838072D01*
X102824482Y-114825812D01*
X102944180Y-114789502D01*
X103054494Y-114730537D01*
X103151185Y-114651185D01*
X103230537Y-114554494D01*
X103289502Y-114444180D01*
X103325812Y-114324482D01*
X103338072Y-114200000D01*
X103335000Y-113285750D01*
X103176250Y-113127000D01*
X101627000Y-113127000D01*
X101373000Y-113127000D01*
X99823750Y-113127000D01*
X99665000Y-113285750D01*
X99661928Y-114200000D01*
X90171009Y-114200000D01*
X89970931Y-114139307D01*
X89750000Y-114117547D01*
X86250000Y-114117547D01*
X86029069Y-114139307D01*
X85816629Y-114203750D01*
X85620843Y-114308400D01*
X85449235Y-114449235D01*
X85308400Y-114620843D01*
X85203750Y-114816629D01*
X85139307Y-115029069D01*
X85117547Y-115250000D01*
X85117547Y-118750000D01*
X85124200Y-118817547D01*
X84131419Y-118817547D01*
X84138072Y-118750000D01*
X84135000Y-117285750D01*
X83976250Y-117127000D01*
X82127000Y-117127000D01*
X82127000Y-119226250D01*
X82285750Y-119385000D01*
X82729148Y-119386122D01*
X82705516Y-119405516D01*
X82455864Y-119709719D01*
X82270355Y-120056781D01*
X82156120Y-120433365D01*
X82117547Y-120825000D01*
X75152000Y-120825000D01*
X75152000Y-118750000D01*
X79861928Y-118750000D01*
X79874188Y-118874482D01*
X79910498Y-118994180D01*
X79969463Y-119104494D01*
X80048815Y-119201185D01*
X80145506Y-119280537D01*
X80255820Y-119339502D01*
X80375518Y-119375812D01*
X80500000Y-119388072D01*
X81714250Y-119385000D01*
X81873000Y-119226250D01*
X81873000Y-117127000D01*
X80023750Y-117127000D01*
X79865000Y-117285750D01*
X79861928Y-118750000D01*
X75152000Y-118750000D01*
X75152000Y-115250000D01*
X79861928Y-115250000D01*
X79865000Y-116714250D01*
X80023750Y-116873000D01*
X81873000Y-116873000D01*
X81873000Y-114773750D01*
X82127000Y-114773750D01*
X82127000Y-116873000D01*
X83976250Y-116873000D01*
X84135000Y-116714250D01*
X84138072Y-115250000D01*
X84125812Y-115125518D01*
X84089502Y-115005820D01*
X84030537Y-114895506D01*
X83951185Y-114798815D01*
X83854494Y-114719463D01*
X83744180Y-114660498D01*
X83624482Y-114624188D01*
X83500000Y-114611928D01*
X82285750Y-114615000D01*
X82127000Y-114773750D01*
X81873000Y-114773750D01*
X81714250Y-114615000D01*
X80500000Y-114611928D01*
X80375518Y-114624188D01*
X80255820Y-114660498D01*
X80145506Y-114719463D01*
X80048815Y-114798815D01*
X79969463Y-114895506D01*
X79910498Y-115005820D01*
X79874188Y-115125518D01*
X79861928Y-115250000D01*
X75152000Y-115250000D01*
X75152000Y-111800000D01*
X99661928Y-111800000D01*
X99665000Y-112714250D01*
X99823750Y-112873000D01*
X101373000Y-112873000D01*
X101373000Y-111323750D01*
X101627000Y-111323750D01*
X101627000Y-112873000D01*
X103176250Y-112873000D01*
X103335000Y-112714250D01*
X103338072Y-111800000D01*
X121167547Y-111800000D01*
X121167547Y-114200000D01*
X121189307Y-114420931D01*
X121253750Y-114633371D01*
X121358400Y-114829157D01*
X121499235Y-115000765D01*
X121670843Y-115141600D01*
X121866629Y-115246250D01*
X122079069Y-115310693D01*
X122300000Y-115332453D01*
X124700000Y-115332453D01*
X124920931Y-115310693D01*
X125133371Y-115246250D01*
X125329157Y-115141600D01*
X125500765Y-115000765D01*
X125641600Y-114829157D01*
X125746250Y-114633371D01*
X125810693Y-114420931D01*
X125832453Y-114200000D01*
X125832453Y-111800000D01*
X125810693Y-111579069D01*
X125746250Y-111366629D01*
X125641600Y-111170843D01*
X125500765Y-110999235D01*
X125329157Y-110858400D01*
X125133371Y-110753750D01*
X124920931Y-110689307D01*
X124700000Y-110667547D01*
X122300000Y-110667547D01*
X122079069Y-110689307D01*
X121866629Y-110753750D01*
X121670843Y-110858400D01*
X121499235Y-110999235D01*
X121358400Y-111170843D01*
X121253750Y-111366629D01*
X121189307Y-111579069D01*
X121167547Y-111800000D01*
X103338072Y-111800000D01*
X103325812Y-111675518D01*
X103289502Y-111555820D01*
X103230537Y-111445506D01*
X103151185Y-111348815D01*
X103054494Y-111269463D01*
X102944180Y-111210498D01*
X102824482Y-111174188D01*
X102700000Y-111161928D01*
X101785750Y-111165000D01*
X101627000Y-111323750D01*
X101373000Y-111323750D01*
X101214250Y-111165000D01*
X100300000Y-111161928D01*
X100175518Y-111174188D01*
X100055820Y-111210498D01*
X99945506Y-111269463D01*
X99848815Y-111348815D01*
X99769463Y-111445506D01*
X99710498Y-111555820D01*
X99674188Y-111675518D01*
X99661928Y-111800000D01*
X75152000Y-111800000D01*
X75152000Y-107940660D01*
X86573000Y-107940660D01*
X86573000Y-108379340D01*
X86658582Y-108809592D01*
X86826458Y-109214880D01*
X87070176Y-109579630D01*
X87380370Y-109889824D01*
X87745120Y-110133542D01*
X88150408Y-110301418D01*
X88580660Y-110387000D01*
X89019340Y-110387000D01*
X89449592Y-110301418D01*
X89854880Y-110133542D01*
X90219630Y-109889824D01*
X90529824Y-109579630D01*
X90773542Y-109214880D01*
X90941418Y-108809592D01*
X91027000Y-108379340D01*
X91027000Y-107940660D01*
X90941418Y-107510408D01*
X90773542Y-107105120D01*
X90529824Y-106740370D01*
X90219630Y-106430176D01*
X89854880Y-106186458D01*
X89449592Y-106018582D01*
X89019340Y-105933000D01*
X88580660Y-105933000D01*
X88150408Y-106018582D01*
X87745120Y-106186458D01*
X87380370Y-106430176D01*
X87070176Y-106740370D01*
X86826458Y-107105120D01*
X86658582Y-107510408D01*
X86573000Y-107940660D01*
X75152000Y-107940660D01*
X75152000Y-105189040D01*
X169608091Y-105189040D01*
X169702930Y-105453881D01*
X169847615Y-105695131D01*
X170036586Y-105903519D01*
X170262580Y-106071037D01*
X170516913Y-106191246D01*
X170650961Y-106231904D01*
X170873000Y-106109915D01*
X170873000Y-104967000D01*
X171127000Y-104967000D01*
X171127000Y-106109915D01*
X171349039Y-106231904D01*
X171483087Y-106191246D01*
X171737420Y-106071037D01*
X171963414Y-105903519D01*
X172152385Y-105695131D01*
X172297070Y-105453881D01*
X172391909Y-105189040D01*
X172270624Y-104967000D01*
X171127000Y-104967000D01*
X170873000Y-104967000D01*
X169729376Y-104967000D01*
X169608091Y-105189040D01*
X75152000Y-105189040D01*
X75152000Y-101374998D01*
X78292547Y-101374998D01*
X78292547Y-103625002D01*
X78319110Y-103894705D01*
X78397780Y-104154043D01*
X78525532Y-104393051D01*
X78697458Y-104602542D01*
X78906949Y-104774468D01*
X79145957Y-104902220D01*
X79405295Y-104980890D01*
X79674998Y-105007453D01*
X81925002Y-105007453D01*
X82194705Y-104980890D01*
X82454043Y-104902220D01*
X82693051Y-104774468D01*
X82902542Y-104602542D01*
X82994115Y-104490960D01*
X169608091Y-104490960D01*
X169729376Y-104713000D01*
X170873000Y-104713000D01*
X170873000Y-103570085D01*
X171127000Y-103570085D01*
X171127000Y-104713000D01*
X172270624Y-104713000D01*
X172326772Y-104610207D01*
X173273000Y-104610207D01*
X173273000Y-104989793D01*
X173347053Y-105362085D01*
X173492315Y-105712777D01*
X173703201Y-106028391D01*
X173971609Y-106296799D01*
X174287223Y-106507685D01*
X174637915Y-106652947D01*
X175010207Y-106727000D01*
X175073002Y-106727000D01*
X175073001Y-112415550D01*
X174133568Y-113354984D01*
X173971609Y-113463201D01*
X173703201Y-113731609D01*
X173492315Y-114047223D01*
X173347053Y-114397915D01*
X173273000Y-114770207D01*
X173273000Y-115149793D01*
X173347053Y-115522085D01*
X173492315Y-115872777D01*
X173703201Y-116188391D01*
X173971609Y-116456799D01*
X174287223Y-116667685D01*
X174637915Y-116812947D01*
X175010207Y-116887000D01*
X175389793Y-116887000D01*
X175762085Y-116812947D01*
X176112777Y-116667685D01*
X176428391Y-116456799D01*
X176696799Y-116188391D01*
X176805016Y-116026432D01*
X178232106Y-114599344D01*
X178304189Y-114540187D01*
X178540247Y-114252549D01*
X178715654Y-113924386D01*
X178823669Y-113568308D01*
X178851001Y-113290800D01*
X178851001Y-113290799D01*
X178860141Y-113197999D01*
X178851001Y-113105198D01*
X178851001Y-112805282D01*
X180983000Y-112805282D01*
X180983000Y-113194718D01*
X181058975Y-113576670D01*
X181208005Y-113936461D01*
X181424364Y-114260264D01*
X181699736Y-114535636D01*
X182023539Y-114751995D01*
X182383330Y-114901025D01*
X182765282Y-114977000D01*
X183154718Y-114977000D01*
X183536670Y-114901025D01*
X183896461Y-114751995D01*
X184027963Y-114664128D01*
X184131950Y-114749468D01*
X184370958Y-114877220D01*
X184630297Y-114955890D01*
X184900000Y-114982453D01*
X186100000Y-114982453D01*
X186369703Y-114955890D01*
X186629042Y-114877220D01*
X186868050Y-114749468D01*
X187077542Y-114577542D01*
X187249468Y-114368050D01*
X187377220Y-114129042D01*
X187455890Y-113869703D01*
X187482453Y-113600000D01*
X187482453Y-112400000D01*
X187455890Y-112130297D01*
X187377220Y-111870958D01*
X187249468Y-111631950D01*
X187077542Y-111422458D01*
X186868050Y-111250532D01*
X186788506Y-111208015D01*
X186903371Y-110967117D01*
X186975339Y-110683589D01*
X186990611Y-110391469D01*
X186948599Y-110101981D01*
X186850919Y-109826253D01*
X186777472Y-109688843D01*
X186528397Y-109611208D01*
X185679605Y-110460000D01*
X185693748Y-110474143D01*
X185514143Y-110653748D01*
X185500000Y-110639605D01*
X185485858Y-110653748D01*
X185306253Y-110474143D01*
X185320395Y-110460000D01*
X184471603Y-109611208D01*
X184230000Y-109686514D01*
X183988397Y-109611208D01*
X183139605Y-110460000D01*
X183153748Y-110474143D01*
X182974143Y-110653748D01*
X182960000Y-110639605D01*
X182945858Y-110653748D01*
X182766253Y-110474143D01*
X182780395Y-110460000D01*
X181931603Y-109611208D01*
X181682528Y-109688843D01*
X181556629Y-109952883D01*
X181484661Y-110236411D01*
X181469389Y-110528531D01*
X181511401Y-110818019D01*
X181609081Y-111093747D01*
X181682528Y-111231157D01*
X181931601Y-111308791D01*
X181929657Y-111310735D01*
X181699736Y-111464364D01*
X181424364Y-111739736D01*
X181208005Y-112063539D01*
X181058975Y-112423330D01*
X180983000Y-112805282D01*
X178851001Y-112805282D01*
X178851001Y-108948397D01*
X182111208Y-108948397D01*
X182186514Y-109190000D01*
X182111208Y-109431603D01*
X182960000Y-110280395D01*
X183808792Y-109431603D01*
X183733486Y-109190000D01*
X183808792Y-108948397D01*
X184651208Y-108948397D01*
X184726514Y-109190000D01*
X184651208Y-109431603D01*
X185500000Y-110280395D01*
X186348792Y-109431603D01*
X186273486Y-109190000D01*
X186348792Y-108948397D01*
X185500000Y-108099605D01*
X184651208Y-108948397D01*
X183808792Y-108948397D01*
X182960000Y-108099605D01*
X182111208Y-108948397D01*
X178851001Y-108948397D01*
X178851001Y-107988531D01*
X181469389Y-107988531D01*
X181511401Y-108278019D01*
X181609081Y-108553747D01*
X181682528Y-108691157D01*
X181931603Y-108768792D01*
X182780395Y-107920000D01*
X183139605Y-107920000D01*
X183988397Y-108768792D01*
X184230000Y-108693486D01*
X184471603Y-108768792D01*
X185320395Y-107920000D01*
X185679605Y-107920000D01*
X186528397Y-108768792D01*
X186777472Y-108691157D01*
X186903371Y-108427117D01*
X186975339Y-108143589D01*
X186990611Y-107851469D01*
X186948599Y-107561981D01*
X186850919Y-107286253D01*
X186777472Y-107148843D01*
X186528397Y-107071208D01*
X185679605Y-107920000D01*
X185320395Y-107920000D01*
X184471603Y-107071208D01*
X184230000Y-107146514D01*
X183988397Y-107071208D01*
X183139605Y-107920000D01*
X182780395Y-107920000D01*
X181931603Y-107071208D01*
X181682528Y-107148843D01*
X181556629Y-107412883D01*
X181484661Y-107696411D01*
X181469389Y-107988531D01*
X178851001Y-107988531D01*
X178851001Y-106408397D01*
X182111208Y-106408397D01*
X182186514Y-106650000D01*
X182111208Y-106891603D01*
X182960000Y-107740395D01*
X183808792Y-106891603D01*
X183733486Y-106650000D01*
X183808792Y-106408397D01*
X184651208Y-106408397D01*
X184726514Y-106650000D01*
X184651208Y-106891603D01*
X185500000Y-107740395D01*
X186348792Y-106891603D01*
X186273486Y-106650000D01*
X186348792Y-106408397D01*
X185500000Y-105559605D01*
X184651208Y-106408397D01*
X183808792Y-106408397D01*
X182960000Y-105559605D01*
X182111208Y-106408397D01*
X178851001Y-106408397D01*
X178851001Y-105878366D01*
X181133289Y-103596079D01*
X181208005Y-103776461D01*
X181424364Y-104100264D01*
X181699736Y-104375636D01*
X181929657Y-104529265D01*
X181931601Y-104531209D01*
X181682528Y-104608843D01*
X181556629Y-104872883D01*
X181484661Y-105156411D01*
X181469389Y-105448531D01*
X181511401Y-105738019D01*
X181609081Y-106013747D01*
X181682528Y-106151157D01*
X181931603Y-106228792D01*
X182780395Y-105380000D01*
X182766253Y-105365858D01*
X182945858Y-105186253D01*
X182960000Y-105200395D01*
X182974143Y-105186253D01*
X183153748Y-105365858D01*
X183139605Y-105380000D01*
X183988397Y-106228792D01*
X184230000Y-106153486D01*
X184471603Y-106228792D01*
X185320395Y-105380000D01*
X185306253Y-105365858D01*
X185485858Y-105186253D01*
X185500000Y-105200395D01*
X185514143Y-105186253D01*
X185693748Y-105365858D01*
X185679605Y-105380000D01*
X186528397Y-106228792D01*
X186777472Y-106151157D01*
X186903371Y-105887117D01*
X186975339Y-105603589D01*
X186990611Y-105311469D01*
X186948599Y-105021981D01*
X186850919Y-104746253D01*
X186777472Y-104608843D01*
X186528399Y-104531209D01*
X186530343Y-104529265D01*
X186760264Y-104375636D01*
X187035636Y-104100264D01*
X187251995Y-103776461D01*
X187401025Y-103416670D01*
X187477000Y-103034718D01*
X187477000Y-102645282D01*
X187401025Y-102263330D01*
X187251995Y-101903539D01*
X187035636Y-101579736D01*
X187025900Y-101570000D01*
X187035636Y-101560264D01*
X187251995Y-101236461D01*
X187401025Y-100876670D01*
X187477000Y-100494718D01*
X187477000Y-100105282D01*
X187401025Y-99723330D01*
X187251995Y-99363539D01*
X187035636Y-99039736D01*
X187025900Y-99030000D01*
X187035636Y-99020264D01*
X187251995Y-98696461D01*
X187401025Y-98336670D01*
X187477000Y-97954718D01*
X187477000Y-97565282D01*
X187401025Y-97183330D01*
X187251995Y-96823539D01*
X187035636Y-96499736D01*
X187025900Y-96490000D01*
X187035636Y-96480264D01*
X187251995Y-96156461D01*
X187401025Y-95796670D01*
X187477000Y-95414718D01*
X187477000Y-95025282D01*
X187401025Y-94643330D01*
X187251995Y-94283539D01*
X187035636Y-93959736D01*
X186760264Y-93684364D01*
X186436461Y-93468005D01*
X186076670Y-93318975D01*
X185694718Y-93243000D01*
X185305282Y-93243000D01*
X184923330Y-93318975D01*
X184563539Y-93468005D01*
X184239736Y-93684364D01*
X184230000Y-93694100D01*
X184220264Y-93684364D01*
X183896461Y-93468005D01*
X183536670Y-93318975D01*
X183154718Y-93243000D01*
X182765282Y-93243000D01*
X182383330Y-93318975D01*
X182023539Y-93468005D01*
X181699736Y-93684364D01*
X181424364Y-93959736D01*
X181208005Y-94283539D01*
X181058975Y-94643330D01*
X180983000Y-95025282D01*
X180983000Y-95414718D01*
X181058975Y-95796670D01*
X181208005Y-96156461D01*
X181424364Y-96480264D01*
X181434100Y-96490000D01*
X181424364Y-96499736D01*
X181208005Y-96823539D01*
X181058975Y-97183330D01*
X180983000Y-97565282D01*
X180983000Y-97954718D01*
X181058975Y-98336670D01*
X181133068Y-98515546D01*
X181031532Y-98546347D01*
X180703369Y-98721754D01*
X180415731Y-98957812D01*
X180356570Y-99029900D01*
X176221506Y-103164965D01*
X176112777Y-103092315D01*
X175762085Y-102947053D01*
X175389793Y-102873000D01*
X175010207Y-102873000D01*
X174637915Y-102947053D01*
X174287223Y-103092315D01*
X173971609Y-103303201D01*
X173703201Y-103571609D01*
X173492315Y-103887223D01*
X173347053Y-104237915D01*
X173273000Y-104610207D01*
X172326772Y-104610207D01*
X172391909Y-104490960D01*
X172297070Y-104226119D01*
X172152385Y-103984869D01*
X171963414Y-103776481D01*
X171737420Y-103608963D01*
X171483087Y-103488754D01*
X171349039Y-103448096D01*
X171127000Y-103570085D01*
X170873000Y-103570085D01*
X170650961Y-103448096D01*
X170516913Y-103488754D01*
X170262580Y-103608963D01*
X170036586Y-103776481D01*
X169847615Y-103984869D01*
X169702930Y-104226119D01*
X169608091Y-104490960D01*
X82994115Y-104490960D01*
X83074468Y-104393051D01*
X83202220Y-104154043D01*
X83280890Y-103894705D01*
X83307453Y-103625002D01*
X83307453Y-102492702D01*
X137186903Y-102492702D01*
X137258486Y-102736671D01*
X137513996Y-102857571D01*
X137788184Y-102926300D01*
X138070512Y-102940217D01*
X138350130Y-102898787D01*
X138616292Y-102803603D01*
X138741514Y-102736671D01*
X138813097Y-102492702D01*
X138000000Y-101679605D01*
X137186903Y-102492702D01*
X83307453Y-102492702D01*
X83307453Y-101374998D01*
X83280890Y-101105295D01*
X83202220Y-100845957D01*
X83074468Y-100606949D01*
X82902542Y-100397458D01*
X82693051Y-100225532D01*
X82454043Y-100097780D01*
X82194705Y-100019110D01*
X81925002Y-99992547D01*
X79674998Y-99992547D01*
X79405295Y-100019110D01*
X79145957Y-100097780D01*
X78906949Y-100225532D01*
X78697458Y-100397458D01*
X78525532Y-100606949D01*
X78397780Y-100845957D01*
X78319110Y-101105295D01*
X78292547Y-101374998D01*
X75152000Y-101374998D01*
X75152000Y-98502643D01*
X79576962Y-98502643D01*
X79717929Y-98805408D01*
X80071430Y-98983741D01*
X80452929Y-99089682D01*
X80847765Y-99119160D01*
X81240766Y-99071044D01*
X81616828Y-98947181D01*
X81882071Y-98805408D01*
X82023038Y-98502643D01*
X80800000Y-97279605D01*
X79576962Y-98502643D01*
X75152000Y-98502643D01*
X75152000Y-97147765D01*
X78780840Y-97147765D01*
X78828956Y-97540766D01*
X78952819Y-97916828D01*
X79094592Y-98182071D01*
X79397357Y-98323038D01*
X80620395Y-97100000D01*
X80979605Y-97100000D01*
X82202643Y-98323038D01*
X82505408Y-98182071D01*
X82683741Y-97828570D01*
X82789682Y-97447071D01*
X82819160Y-97052235D01*
X82800522Y-96900000D01*
X86567547Y-96900000D01*
X86567547Y-99100000D01*
X86589307Y-99320931D01*
X86653750Y-99533371D01*
X86758400Y-99729157D01*
X86899235Y-99900765D01*
X87070843Y-100041600D01*
X87266629Y-100146250D01*
X87479069Y-100210693D01*
X87700000Y-100232453D01*
X89900000Y-100232453D01*
X90120931Y-100210693D01*
X90333371Y-100146250D01*
X90529157Y-100041600D01*
X90700765Y-99900765D01*
X90841600Y-99729157D01*
X90946250Y-99533371D01*
X91010693Y-99320931D01*
X91032453Y-99100000D01*
X91032453Y-97777980D01*
X100401626Y-97777980D01*
X100521514Y-98062836D01*
X100845210Y-98223699D01*
X101194069Y-98318322D01*
X101554684Y-98343067D01*
X101913198Y-98296985D01*
X102255833Y-98181846D01*
X102478486Y-98062836D01*
X102598374Y-97777980D01*
X122401626Y-97777980D01*
X122521514Y-98062836D01*
X122845210Y-98223699D01*
X123194069Y-98318322D01*
X123554684Y-98343067D01*
X123913198Y-98296985D01*
X124201809Y-98200000D01*
X136067547Y-98200000D01*
X136067547Y-99800000D01*
X136089307Y-100020931D01*
X136153750Y-100233371D01*
X136258400Y-100429157D01*
X136399235Y-100600765D01*
X136570843Y-100741600D01*
X136730851Y-100827126D01*
X136642429Y-101013996D01*
X136573700Y-101288184D01*
X136559783Y-101570512D01*
X136601213Y-101850130D01*
X136696397Y-102116292D01*
X136763329Y-102241514D01*
X137007298Y-102313097D01*
X137820395Y-101500000D01*
X137806253Y-101485858D01*
X137985858Y-101306253D01*
X138000000Y-101320395D01*
X138014143Y-101306253D01*
X138193748Y-101485858D01*
X138179605Y-101500000D01*
X138992702Y-102313097D01*
X139236671Y-102241514D01*
X139357571Y-101986004D01*
X139426300Y-101711816D01*
X139440217Y-101429488D01*
X139398787Y-101149870D01*
X139309430Y-100900000D01*
X141767547Y-100900000D01*
X141767547Y-103100000D01*
X141789307Y-103320931D01*
X141853750Y-103533371D01*
X141958400Y-103729157D01*
X142099235Y-103900765D01*
X142270843Y-104041600D01*
X142466629Y-104146250D01*
X142679069Y-104210693D01*
X142900000Y-104232453D01*
X145100000Y-104232453D01*
X145320931Y-104210693D01*
X145533371Y-104146250D01*
X145729157Y-104041600D01*
X145900765Y-103900765D01*
X146041600Y-103729157D01*
X146146250Y-103533371D01*
X146210693Y-103320931D01*
X146232453Y-103100000D01*
X146232453Y-101780660D01*
X151933000Y-101780660D01*
X151933000Y-102219340D01*
X152018582Y-102649592D01*
X152186458Y-103054880D01*
X152430176Y-103419630D01*
X152740370Y-103729824D01*
X153105120Y-103973542D01*
X153510408Y-104141418D01*
X153940660Y-104227000D01*
X154379340Y-104227000D01*
X154809592Y-104141418D01*
X155214880Y-103973542D01*
X155579630Y-103729824D01*
X155889824Y-103419630D01*
X156133542Y-103054880D01*
X156301418Y-102649592D01*
X156387000Y-102219340D01*
X156387000Y-101780660D01*
X156301418Y-101350408D01*
X156133542Y-100945120D01*
X155889824Y-100580370D01*
X155579630Y-100270176D01*
X155214880Y-100026458D01*
X154809592Y-99858582D01*
X154379340Y-99773000D01*
X153940660Y-99773000D01*
X153510408Y-99858582D01*
X153105120Y-100026458D01*
X152740370Y-100270176D01*
X152430176Y-100580370D01*
X152186458Y-100945120D01*
X152018582Y-101350408D01*
X151933000Y-101780660D01*
X146232453Y-101780660D01*
X146232453Y-100900000D01*
X146210693Y-100679069D01*
X146146250Y-100466629D01*
X146041600Y-100270843D01*
X145917520Y-100119651D01*
X146047500Y-100132453D01*
X147952500Y-100132453D01*
X148173431Y-100110693D01*
X148385871Y-100046250D01*
X148581657Y-99941600D01*
X148753265Y-99800765D01*
X148894100Y-99629157D01*
X148952117Y-99520616D01*
X149167020Y-99590563D01*
X149413000Y-99470594D01*
X149413000Y-98127000D01*
X149393000Y-98127000D01*
X149393000Y-97873000D01*
X149413000Y-97873000D01*
X149413000Y-96529406D01*
X149667000Y-96529406D01*
X149667000Y-97873000D01*
X149687000Y-97873000D01*
X149687000Y-98127000D01*
X149667000Y-98127000D01*
X149667000Y-99470594D01*
X149912980Y-99590563D01*
X150131094Y-99519571D01*
X150406923Y-99375969D01*
X150451049Y-99340551D01*
X150602457Y-99525043D01*
X150919102Y-99784906D01*
X151280361Y-99978003D01*
X151672348Y-100096911D01*
X152080000Y-100137061D01*
X152487653Y-100096911D01*
X152879640Y-99978003D01*
X153240898Y-99784906D01*
X153557543Y-99525043D01*
X153817406Y-99208398D01*
X154010503Y-98847139D01*
X154129411Y-98455152D01*
X154159500Y-98149651D01*
X154159500Y-97850348D01*
X154129411Y-97544847D01*
X154010503Y-97152860D01*
X153875347Y-96900000D01*
X155767547Y-96900000D01*
X155767547Y-99100000D01*
X155789307Y-99320931D01*
X155853750Y-99533371D01*
X155958400Y-99729157D01*
X156099235Y-99900765D01*
X156270843Y-100041600D01*
X156466629Y-100146250D01*
X156679069Y-100210693D01*
X156900000Y-100232453D01*
X159100000Y-100232453D01*
X159320931Y-100210693D01*
X159533371Y-100146250D01*
X159729157Y-100041600D01*
X159900765Y-99900765D01*
X160041600Y-99729157D01*
X160146250Y-99533371D01*
X160210693Y-99320931D01*
X160232453Y-99100000D01*
X160232453Y-98396122D01*
X166470825Y-98396122D01*
X166535425Y-98609094D01*
X166685469Y-98914329D01*
X166892178Y-99184427D01*
X167147609Y-99409008D01*
X167441946Y-99579442D01*
X167763877Y-99689179D01*
X168033000Y-99571600D01*
X168033000Y-98127000D01*
X168287000Y-98127000D01*
X168287000Y-99571600D01*
X168556123Y-99689179D01*
X168878054Y-99579442D01*
X169172391Y-99409008D01*
X169427822Y-99184427D01*
X169634531Y-98914329D01*
X169641574Y-98900000D01*
X170461928Y-98900000D01*
X170474188Y-99024482D01*
X170510498Y-99144180D01*
X170569463Y-99254494D01*
X170648815Y-99351185D01*
X170745506Y-99430537D01*
X170855820Y-99489502D01*
X170975518Y-99525812D01*
X171100000Y-99538072D01*
X171714250Y-99535000D01*
X171873000Y-99376250D01*
X171873000Y-98127000D01*
X170623750Y-98127000D01*
X170465000Y-98285750D01*
X170461928Y-98900000D01*
X169641574Y-98900000D01*
X169784575Y-98609094D01*
X169849175Y-98396122D01*
X169731125Y-98127000D01*
X168287000Y-98127000D01*
X168033000Y-98127000D01*
X166588875Y-98127000D01*
X166470825Y-98396122D01*
X160232453Y-98396122D01*
X160232453Y-97603878D01*
X166470825Y-97603878D01*
X166588875Y-97873000D01*
X168033000Y-97873000D01*
X168033000Y-96428400D01*
X168287000Y-96428400D01*
X168287000Y-97873000D01*
X169731125Y-97873000D01*
X169849175Y-97603878D01*
X169784575Y-97390906D01*
X169641575Y-97100000D01*
X170461928Y-97100000D01*
X170465000Y-97714250D01*
X170623750Y-97873000D01*
X171873000Y-97873000D01*
X171873000Y-96623750D01*
X172127000Y-96623750D01*
X172127000Y-97873000D01*
X172147000Y-97873000D01*
X172147000Y-98127000D01*
X172127000Y-98127000D01*
X172127000Y-99376250D01*
X172285750Y-99535000D01*
X172900000Y-99538072D01*
X173024482Y-99525812D01*
X173144180Y-99489502D01*
X173156373Y-99482984D01*
X173247863Y-99574474D01*
X173579855Y-99796304D01*
X173948746Y-99949104D01*
X174340358Y-100027000D01*
X174739642Y-100027000D01*
X175131254Y-99949104D01*
X175500145Y-99796304D01*
X175832137Y-99574474D01*
X176114474Y-99292137D01*
X176336304Y-98960145D01*
X176489104Y-98591254D01*
X176567000Y-98199642D01*
X176567000Y-97800358D01*
X176489104Y-97408746D01*
X176336304Y-97039855D01*
X176114474Y-96707863D01*
X175832137Y-96425526D01*
X175500145Y-96203696D01*
X175131254Y-96050896D01*
X174739642Y-95973000D01*
X174340358Y-95973000D01*
X173948746Y-96050896D01*
X173579855Y-96203696D01*
X173247863Y-96425526D01*
X173156373Y-96517016D01*
X173144180Y-96510498D01*
X173024482Y-96474188D01*
X172900000Y-96461928D01*
X172285750Y-96465000D01*
X172127000Y-96623750D01*
X171873000Y-96623750D01*
X171714250Y-96465000D01*
X171100000Y-96461928D01*
X170975518Y-96474188D01*
X170855820Y-96510498D01*
X170745506Y-96569463D01*
X170648815Y-96648815D01*
X170569463Y-96745506D01*
X170510498Y-96855820D01*
X170474188Y-96975518D01*
X170461928Y-97100000D01*
X169641575Y-97100000D01*
X169634531Y-97085671D01*
X169427822Y-96815573D01*
X169172391Y-96590992D01*
X168878054Y-96420558D01*
X168556123Y-96310821D01*
X168287000Y-96428400D01*
X168033000Y-96428400D01*
X167763877Y-96310821D01*
X167441946Y-96420558D01*
X167147609Y-96590992D01*
X166892178Y-96815573D01*
X166685469Y-97085671D01*
X166535425Y-97390906D01*
X166470825Y-97603878D01*
X160232453Y-97603878D01*
X160232453Y-96900000D01*
X160210693Y-96679069D01*
X160146250Y-96466629D01*
X160041600Y-96270843D01*
X159900765Y-96099235D01*
X159729157Y-95958400D01*
X159533371Y-95853750D01*
X159320931Y-95789307D01*
X159100000Y-95767547D01*
X156900000Y-95767547D01*
X156679069Y-95789307D01*
X156466629Y-95853750D01*
X156270843Y-95958400D01*
X156099235Y-96099235D01*
X155958400Y-96270843D01*
X155853750Y-96466629D01*
X155789307Y-96679069D01*
X155767547Y-96900000D01*
X153875347Y-96900000D01*
X153817406Y-96791602D01*
X153557543Y-96474957D01*
X153240898Y-96215094D01*
X152879639Y-96021997D01*
X152487652Y-95903089D01*
X152080000Y-95862939D01*
X151672347Y-95903089D01*
X151280360Y-96021997D01*
X150919102Y-96215094D01*
X150602457Y-96474957D01*
X150451049Y-96659449D01*
X150406923Y-96624031D01*
X150131094Y-96480429D01*
X149912980Y-96409437D01*
X149667000Y-96529406D01*
X149413000Y-96529406D01*
X149167020Y-96409437D01*
X148952117Y-96479384D01*
X148894100Y-96370843D01*
X148753265Y-96199235D01*
X148581657Y-96058400D01*
X148385871Y-95953750D01*
X148173431Y-95889307D01*
X147952500Y-95867547D01*
X146047500Y-95867547D01*
X145826569Y-95889307D01*
X145614129Y-95953750D01*
X145418343Y-96058400D01*
X145246735Y-96199235D01*
X145105900Y-96370843D01*
X145001250Y-96566629D01*
X144936807Y-96779069D01*
X144915047Y-97000000D01*
X144915047Y-99000000D01*
X144936807Y-99220931D01*
X145001250Y-99433371D01*
X145105900Y-99629157D01*
X145229980Y-99780349D01*
X145100000Y-99767547D01*
X142900000Y-99767547D01*
X142679069Y-99789307D01*
X142466629Y-99853750D01*
X142270843Y-99958400D01*
X142099235Y-100099235D01*
X141958400Y-100270843D01*
X141853750Y-100466629D01*
X141789307Y-100679069D01*
X141767547Y-100900000D01*
X139309430Y-100900000D01*
X139303603Y-100883708D01*
X139272424Y-100825376D01*
X139429157Y-100741600D01*
X139600765Y-100600765D01*
X139741600Y-100429157D01*
X139846250Y-100233371D01*
X139910693Y-100020931D01*
X139932453Y-99800000D01*
X139932453Y-98200000D01*
X139910693Y-97979069D01*
X139846250Y-97766629D01*
X139741600Y-97570843D01*
X139600765Y-97399235D01*
X139429157Y-97258400D01*
X139233371Y-97153750D01*
X139020931Y-97089307D01*
X138800000Y-97067547D01*
X137200000Y-97067547D01*
X136979069Y-97089307D01*
X136766629Y-97153750D01*
X136570843Y-97258400D01*
X136399235Y-97399235D01*
X136258400Y-97570843D01*
X136153750Y-97766629D01*
X136089307Y-97979069D01*
X136067547Y-98200000D01*
X124201809Y-98200000D01*
X124255833Y-98181846D01*
X124478486Y-98062836D01*
X124598374Y-97777980D01*
X123500000Y-96679605D01*
X122401626Y-97777980D01*
X102598374Y-97777980D01*
X101500000Y-96679605D01*
X100401626Y-97777980D01*
X91032453Y-97777980D01*
X91032453Y-96900000D01*
X91010693Y-96679069D01*
X90972962Y-96554684D01*
X99656933Y-96554684D01*
X99703015Y-96913198D01*
X99818154Y-97255833D01*
X99937164Y-97478486D01*
X100222020Y-97598374D01*
X101320395Y-96500000D01*
X101679605Y-96500000D01*
X102777980Y-97598374D01*
X103062836Y-97478486D01*
X103223699Y-97154790D01*
X103318322Y-96805931D01*
X103335562Y-96554684D01*
X121656933Y-96554684D01*
X121703015Y-96913198D01*
X121818154Y-97255833D01*
X121937164Y-97478486D01*
X122222020Y-97598374D01*
X123320395Y-96500000D01*
X123679605Y-96500000D01*
X124777980Y-97598374D01*
X125062836Y-97478486D01*
X125223699Y-97154790D01*
X125318322Y-96805931D01*
X125343067Y-96445316D01*
X125296985Y-96086802D01*
X125181846Y-95744167D01*
X125062836Y-95521514D01*
X124777980Y-95401626D01*
X123679605Y-96500000D01*
X123320395Y-96500000D01*
X122222020Y-95401626D01*
X121937164Y-95521514D01*
X121776301Y-95845210D01*
X121681678Y-96194069D01*
X121656933Y-96554684D01*
X103335562Y-96554684D01*
X103343067Y-96445316D01*
X103296985Y-96086802D01*
X103181846Y-95744167D01*
X103062836Y-95521514D01*
X102777980Y-95401626D01*
X101679605Y-96500000D01*
X101320395Y-96500000D01*
X100222020Y-95401626D01*
X99937164Y-95521514D01*
X99776301Y-95845210D01*
X99681678Y-96194069D01*
X99656933Y-96554684D01*
X90972962Y-96554684D01*
X90946250Y-96466629D01*
X90841600Y-96270843D01*
X90700765Y-96099235D01*
X90529157Y-95958400D01*
X90333371Y-95853750D01*
X90120931Y-95789307D01*
X89900000Y-95767547D01*
X87700000Y-95767547D01*
X87479069Y-95789307D01*
X87266629Y-95853750D01*
X87070843Y-95958400D01*
X86899235Y-96099235D01*
X86758400Y-96270843D01*
X86653750Y-96466629D01*
X86589307Y-96679069D01*
X86567547Y-96900000D01*
X82800522Y-96900000D01*
X82771044Y-96659234D01*
X82647181Y-96283172D01*
X82505408Y-96017929D01*
X82202643Y-95876962D01*
X80979605Y-97100000D01*
X80620395Y-97100000D01*
X79397357Y-95876962D01*
X79094592Y-96017929D01*
X78916259Y-96371430D01*
X78810318Y-96752929D01*
X78780840Y-97147765D01*
X75152000Y-97147765D01*
X75152000Y-95697357D01*
X79576962Y-95697357D01*
X80800000Y-96920395D01*
X82023038Y-95697357D01*
X81882071Y-95394592D01*
X81539990Y-95222020D01*
X100401626Y-95222020D01*
X101500000Y-96320395D01*
X102598374Y-95222020D01*
X122401626Y-95222020D01*
X123500000Y-96320395D01*
X124598374Y-95222020D01*
X124478486Y-94937164D01*
X124154790Y-94776301D01*
X123805931Y-94681678D01*
X123445316Y-94656933D01*
X123086802Y-94703015D01*
X122744167Y-94818154D01*
X122521514Y-94937164D01*
X122401626Y-95222020D01*
X102598374Y-95222020D01*
X102478486Y-94937164D01*
X102154790Y-94776301D01*
X101805931Y-94681678D01*
X101445316Y-94656933D01*
X101086802Y-94703015D01*
X100744167Y-94818154D01*
X100521514Y-94937164D01*
X100401626Y-95222020D01*
X81539990Y-95222020D01*
X81528570Y-95216259D01*
X81147071Y-95110318D01*
X80752235Y-95080840D01*
X80359234Y-95128956D01*
X79983172Y-95252819D01*
X79717929Y-95394592D01*
X79576962Y-95697357D01*
X75152000Y-95697357D01*
X75152000Y-92231414D01*
X134273000Y-92231414D01*
X134273000Y-92768586D01*
X134377797Y-93295437D01*
X134583364Y-93791719D01*
X134881801Y-94238361D01*
X135261639Y-94618199D01*
X135708281Y-94916636D01*
X136204563Y-95122203D01*
X136731414Y-95227000D01*
X137268586Y-95227000D01*
X137795437Y-95122203D01*
X138291719Y-94916636D01*
X138738361Y-94618199D01*
X139118199Y-94238361D01*
X139416636Y-93791719D01*
X139622203Y-93295437D01*
X139727000Y-92768586D01*
X139727000Y-92231414D01*
X159673000Y-92231414D01*
X159673000Y-92768586D01*
X159777797Y-93295437D01*
X159983364Y-93791719D01*
X160281801Y-94238361D01*
X160661639Y-94618199D01*
X161108281Y-94916636D01*
X161604563Y-95122203D01*
X162131414Y-95227000D01*
X162668586Y-95227000D01*
X163195437Y-95122203D01*
X163691719Y-94916636D01*
X164138361Y-94618199D01*
X164518199Y-94238361D01*
X164816636Y-93791719D01*
X165022203Y-93295437D01*
X165127000Y-92768586D01*
X165127000Y-92231414D01*
X165022203Y-91704563D01*
X164816636Y-91208281D01*
X164811103Y-91200000D01*
X169067547Y-91200000D01*
X169067547Y-92800000D01*
X169089307Y-93020931D01*
X169153750Y-93233371D01*
X169258400Y-93429157D01*
X169399235Y-93600765D01*
X169570843Y-93741600D01*
X169766629Y-93846250D01*
X169979069Y-93910693D01*
X170200000Y-93932453D01*
X171800000Y-93932453D01*
X172020931Y-93910693D01*
X172233371Y-93846250D01*
X172429157Y-93741600D01*
X172600765Y-93600765D01*
X172741600Y-93429157D01*
X172846250Y-93233371D01*
X172910693Y-93020931D01*
X172932453Y-92800000D01*
X172932453Y-91200000D01*
X172910693Y-90979069D01*
X172846250Y-90766629D01*
X172741600Y-90570843D01*
X172600765Y-90399235D01*
X172429157Y-90258400D01*
X172269149Y-90172874D01*
X172357571Y-89986004D01*
X172426300Y-89711816D01*
X172440217Y-89429488D01*
X172398787Y-89149870D01*
X172303603Y-88883708D01*
X172236671Y-88758486D01*
X171992702Y-88686903D01*
X171179605Y-89500000D01*
X171193748Y-89514143D01*
X171014143Y-89693748D01*
X171000000Y-89679605D01*
X170985858Y-89693748D01*
X170806253Y-89514143D01*
X170820395Y-89500000D01*
X170007298Y-88686903D01*
X169763329Y-88758486D01*
X169642429Y-89013996D01*
X169573700Y-89288184D01*
X169559783Y-89570512D01*
X169601213Y-89850130D01*
X169696397Y-90116292D01*
X169727576Y-90174624D01*
X169570843Y-90258400D01*
X169399235Y-90399235D01*
X169258400Y-90570843D01*
X169153750Y-90766629D01*
X169089307Y-90979069D01*
X169067547Y-91200000D01*
X164811103Y-91200000D01*
X164518199Y-90761639D01*
X164138361Y-90381801D01*
X163691719Y-90083364D01*
X163195437Y-89877797D01*
X162668586Y-89773000D01*
X162131414Y-89773000D01*
X161604563Y-89877797D01*
X161108281Y-90083364D01*
X160661639Y-90381801D01*
X160281801Y-90761639D01*
X159983364Y-91208281D01*
X159777797Y-91704563D01*
X159673000Y-92231414D01*
X139727000Y-92231414D01*
X139622203Y-91704563D01*
X139416636Y-91208281D01*
X139118199Y-90761639D01*
X138738361Y-90381801D01*
X138291719Y-90083364D01*
X137795437Y-89877797D01*
X137268586Y-89773000D01*
X136731414Y-89773000D01*
X136204563Y-89877797D01*
X135708281Y-90083364D01*
X135261639Y-90381801D01*
X134881801Y-90761639D01*
X134583364Y-91208281D01*
X134377797Y-91704563D01*
X134273000Y-92231414D01*
X75152000Y-92231414D01*
X75152000Y-85429153D01*
X75233561Y-85839190D01*
X75450435Y-86362771D01*
X75765288Y-86833981D01*
X76166019Y-87234712D01*
X76637229Y-87549565D01*
X77160810Y-87766439D01*
X77716640Y-87877000D01*
X78283360Y-87877000D01*
X78670466Y-87800000D01*
X99167547Y-87800000D01*
X99167547Y-90200000D01*
X99189307Y-90420931D01*
X99253750Y-90633371D01*
X99358400Y-90829157D01*
X99499235Y-91000765D01*
X99670843Y-91141600D01*
X99866629Y-91246250D01*
X100079069Y-91310693D01*
X100300000Y-91332453D01*
X102700000Y-91332453D01*
X102920931Y-91310693D01*
X103133371Y-91246250D01*
X103329157Y-91141600D01*
X103500765Y-91000765D01*
X103641600Y-90829157D01*
X103746250Y-90633371D01*
X103810693Y-90420931D01*
X103832453Y-90200000D01*
X103832453Y-87800000D01*
X121167547Y-87800000D01*
X121167547Y-90200000D01*
X121189307Y-90420931D01*
X121253750Y-90633371D01*
X121358400Y-90829157D01*
X121499235Y-91000765D01*
X121670843Y-91141600D01*
X121866629Y-91246250D01*
X122079069Y-91310693D01*
X122300000Y-91332453D01*
X124700000Y-91332453D01*
X124920931Y-91310693D01*
X125133371Y-91246250D01*
X125329157Y-91141600D01*
X125500765Y-91000765D01*
X125641600Y-90829157D01*
X125746250Y-90633371D01*
X125810693Y-90420931D01*
X125832453Y-90200000D01*
X125832453Y-88507298D01*
X170186903Y-88507298D01*
X171000000Y-89320395D01*
X171813097Y-88507298D01*
X171741514Y-88263329D01*
X171486004Y-88142429D01*
X171211816Y-88073700D01*
X170929488Y-88059783D01*
X170649870Y-88101213D01*
X170383708Y-88196397D01*
X170258486Y-88263329D01*
X170186903Y-88507298D01*
X125832453Y-88507298D01*
X125832453Y-87800000D01*
X125810693Y-87579069D01*
X125746250Y-87366629D01*
X125641600Y-87170843D01*
X125500765Y-86999235D01*
X125329157Y-86858400D01*
X125133371Y-86753750D01*
X124920931Y-86689307D01*
X124700000Y-86667547D01*
X122300000Y-86667547D01*
X122079069Y-86689307D01*
X121866629Y-86753750D01*
X121670843Y-86858400D01*
X121499235Y-86999235D01*
X121358400Y-87170843D01*
X121253750Y-87366629D01*
X121189307Y-87579069D01*
X121167547Y-87800000D01*
X103832453Y-87800000D01*
X103810693Y-87579069D01*
X103746250Y-87366629D01*
X103641600Y-87170843D01*
X103500765Y-86999235D01*
X103329157Y-86858400D01*
X103133371Y-86753750D01*
X102920931Y-86689307D01*
X102700000Y-86667547D01*
X100300000Y-86667547D01*
X100079069Y-86689307D01*
X99866629Y-86753750D01*
X99670843Y-86858400D01*
X99499235Y-86999235D01*
X99358400Y-87170843D01*
X99253750Y-87366629D01*
X99189307Y-87579069D01*
X99167547Y-87800000D01*
X78670466Y-87800000D01*
X78839190Y-87766439D01*
X79362771Y-87549565D01*
X79833981Y-87234712D01*
X80234712Y-86833981D01*
X80549565Y-86362771D01*
X80766439Y-85839190D01*
X80877000Y-85283360D01*
X80877000Y-84716640D01*
X80766439Y-84160810D01*
X80549565Y-83637229D01*
X80234712Y-83166019D01*
X79833981Y-82765288D01*
X79362771Y-82450435D01*
X78839190Y-82233561D01*
X78429153Y-82152000D01*
X186570847Y-82152000D01*
X186160810Y-82233561D01*
G37*
%TD.AperFunction*%
%TD*%
M02*
