M48
; DRILL file {KiCad 5.1.10-88a1d61d58~88~ubuntu20.10.1} date Sun May 16 15:10:52 2021
; FORMAT={-:-/ absolute / inch / decimal}
; #@! TF.CreationDate,2021-05-16T15:10:52+02:00
; #@! TF.GenerationSoftware,Kicad,Pcbnew,5.1.10-88a1d61d58~88~ubuntu20.10.1
; #@! TF.FileFunction,Plated,1,2,PTH
FMAT,2
INCH
T1C0.0315
T2C0.0354
T3C0.0394
T4C0.0433
T5C0.0472
T6C0.0689
T7C0.1181
T8C0.1260
%
G90
G05
T1
X5.4331Y-3.8976
X5.4331Y-3.9961
X5.4331Y-4.8425
X5.4331Y-4.9409
X5.4331Y-5.748
X5.4331Y-5.8465
X6.7323Y-3.5236
X6.7323Y-3.622
X6.7323Y-4.1276
X6.7323Y-4.5276
X6.8504Y-5.0724
X6.8504Y-5.4724
X6.8504Y-5.6496
X6.8504Y-5.748
X6.8898Y-4.7638
X6.8898Y-4.8622
X6.8976Y-4.126
X6.8976Y-4.526
T2
X6.7717Y-3.8583
X6.8717Y-3.8583
T3
X7.2026Y-5.0724
X7.2026Y-5.1724
X7.2026Y-5.2724
X7.2026Y-5.3724
X7.2026Y-5.4724
X7.2031Y-3.7488
X7.2031Y-3.8488
X7.2031Y-3.9488
X7.2031Y-4.0488
X7.2031Y-4.1488
X7.2031Y-4.2488
X7.2031Y-4.3488
X7.2031Y-4.4488
X7.3026Y-5.0724
X7.3026Y-5.1724
X7.3026Y-5.2724
X7.3026Y-5.3724
X7.3026Y-5.4724
X7.3031Y-3.7488
X7.3031Y-3.8488
X7.3031Y-3.9488
X7.3031Y-4.0488
X7.3031Y-4.1488
X7.3031Y-4.2488
X7.3031Y-4.3488
X7.3031Y-4.4488
T4
X3.4921Y-4.9724
X3.4921Y-5.3724
X3.4961Y-3.8583
X3.4961Y-4.2583
X5.663Y-5.9055
X5.6693Y-4.0157
X5.6693Y-4.9606
X5.7874Y-3.8583
X5.7874Y-4.8031
X5.7874Y-5.748
X5.8874Y-3.8583
X5.8874Y-4.8031
X5.8874Y-5.748
X5.9874Y-3.8583
X5.9874Y-4.8031
X5.9874Y-5.748
X6.063Y-5.9055
X6.0693Y-4.0157
X6.0693Y-4.9606
X6.2142Y-5.748
X6.2205Y-3.8583
X6.2205Y-4.8031
X6.6142Y-5.748
X6.6205Y-3.8583
X6.6205Y-4.8031
T5
X3.9961Y-3.5039
X3.9961Y-3.7992
X3.9961Y-4.4488
X3.9961Y-4.7441
X3.9961Y-5.3937
X3.9961Y-5.689
X4.8622Y-3.5039
X4.8622Y-3.7992
X4.8622Y-4.4488
X4.8622Y-4.7441
X4.8622Y-5.3937
X4.8622Y-5.689
T6
X3.1811Y-3.8228
X3.1811Y-4.0354
T7
X5.3937Y-3.6417
X5.3976Y-4.5866
X5.3976Y-5.5315
X6.3937Y-3.6417
X6.3937Y-4.5866
X6.3976Y-5.5315
T8
X3.0709Y-3.3465
X3.0709Y-5.8661
X7.3622Y-3.3465
X7.3622Y-5.8661
T3
G00X3.2283Y-4.5669
M15
G01X3.2283Y-4.6457
M16
G05
G00X3.3071Y-4.7913
M15
G01X3.3858Y-4.7913
M16
G05
G00X3.4646Y-4.5669
M15
G01X3.4646Y-4.6457
M16
G05
T0
M30
