%TF.GenerationSoftware,KiCad,Pcbnew,5.1.10-88a1d61d58~88~ubuntu20.10.1*%
%TF.CreationDate,2021-05-16T15:10:54+02:00*%
%TF.ProjectId,eurorack-psu,6575726f-7261-4636-9b2d-7073752e6b69,v1.0.0*%
%TF.SameCoordinates,Original*%
%TF.FileFunction,Soldermask,Top*%
%TF.FilePolarity,Negative*%
%FSLAX46Y46*%
G04 Gerber Fmt 4.6, Leading zero omitted, Abs format (unit mm)*
G04 Created by KiCad (PCBNEW 5.1.10-88a1d61d58~88~ubuntu20.10.1) date 2021-05-16 15:10:54*
%MOMM*%
%LPD*%
G01*
G04 APERTURE LIST*
%ADD10C,1.600000*%
%ADD11R,1.600000X1.600000*%
%ADD12C,1.700000*%
%ADD13C,2.750000*%
%ADD14C,1.800000*%
%ADD15R,1.800000X1.800000*%
%ADD16R,3.500000X3.500000*%
%ADD17O,1.905000X2.000000*%
%ADD18R,1.905000X2.000000*%
%ADD19O,1.600000X1.600000*%
%ADD20O,2.200000X2.200000*%
%ADD21R,2.200000X2.200000*%
%ADD22C,2.400000*%
%ADD23R,2.400000X2.400000*%
G04 APERTURE END LIST*
D10*
%TO.C,C12*%
X171000000Y-89500000D03*
D11*
X171000000Y-92000000D03*
%TD*%
D10*
%TO.C,C10*%
X174000000Y-143500000D03*
D11*
X174000000Y-146000000D03*
%TD*%
D10*
%TO.C,C9*%
X175000000Y-123500000D03*
D11*
X175000000Y-121000000D03*
%TD*%
D10*
%TO.C,C7*%
X138000000Y-125500000D03*
D11*
X138000000Y-123000000D03*
%TD*%
D12*
%TO.C,J4*%
X182945202Y-128840000D03*
X182945202Y-131380000D03*
X182945202Y-133920000D03*
X182945202Y-136460000D03*
X182945202Y-139000000D03*
X185485202Y-128840000D03*
X185485202Y-131380000D03*
X185485202Y-133920000D03*
X185485202Y-136460000D03*
G36*
G01*
X186335202Y-138400000D02*
X186335202Y-139600000D01*
G75*
G02*
X186085202Y-139850000I-250000J0D01*
G01*
X184885202Y-139850000D01*
G75*
G02*
X184635202Y-139600000I0J250000D01*
G01*
X184635202Y-138400000D01*
G75*
G02*
X184885202Y-138150000I250000J0D01*
G01*
X186085202Y-138150000D01*
G75*
G02*
X186335202Y-138400000I0J-250000D01*
G01*
G37*
%TD*%
D13*
%TO.C,J3*%
X80800000Y-97100000D03*
G36*
G01*
X81925002Y-103875000D02*
X79674998Y-103875000D01*
G75*
G02*
X79425000Y-103625002I0J249998D01*
G01*
X79425000Y-101374998D01*
G75*
G02*
X79674998Y-101125000I249998J0D01*
G01*
X81925002Y-101125000D01*
G75*
G02*
X82175000Y-101374998I0J-249998D01*
G01*
X82175000Y-103625002D01*
G75*
G02*
X81925002Y-103875000I-249998J0D01*
G01*
G37*
%TD*%
D10*
%TO.C,C11*%
X138000000Y-101500000D03*
D11*
X138000000Y-99000000D03*
%TD*%
D14*
%TO.C,D9*%
X174540000Y-98000000D03*
D15*
X172000000Y-98000000D03*
%TD*%
%TO.C,J1*%
G36*
G01*
X83250000Y-122575000D02*
X83250000Y-120825000D01*
G75*
G02*
X84125000Y-119950000I875000J0D01*
G01*
X85875000Y-119950000D01*
G75*
G02*
X86750000Y-120825000I0J-875000D01*
G01*
X86750000Y-122575000D01*
G75*
G02*
X85875000Y-123450000I-875000J0D01*
G01*
X84125000Y-123450000D01*
G75*
G02*
X83250000Y-122575000I0J875000D01*
G01*
G37*
G36*
G01*
X80500000Y-118000000D02*
X80500000Y-116000000D01*
G75*
G02*
X81250000Y-115250000I750000J0D01*
G01*
X82750000Y-115250000D01*
G75*
G02*
X83500000Y-116000000I0J-750000D01*
G01*
X83500000Y-118000000D01*
G75*
G02*
X82750000Y-118750000I-750000J0D01*
G01*
X81250000Y-118750000D01*
G75*
G02*
X80500000Y-118000000I0J750000D01*
G01*
G37*
D16*
X88000000Y-117000000D03*
%TD*%
D17*
%TO.C,U3*%
X152080000Y-98000000D03*
X149540000Y-98000000D03*
D18*
X147000000Y-98000000D03*
%TD*%
D17*
%TO.C,U2*%
X152080000Y-146000000D03*
X149540000Y-146000000D03*
D18*
X147000000Y-146000000D03*
%TD*%
D17*
%TO.C,U1*%
X152080000Y-122000000D03*
X149540000Y-122000000D03*
D18*
X147000000Y-122000000D03*
%TD*%
D19*
%TO.C,R3*%
X175200000Y-114960000D03*
D10*
X175200000Y-104800000D03*
%TD*%
D19*
%TO.C,R2*%
X174000000Y-128840000D03*
D10*
X174000000Y-139000000D03*
%TD*%
D19*
%TO.C,R1*%
X171000000Y-104840000D03*
D10*
X171000000Y-115000000D03*
%TD*%
D12*
%TO.C,J2*%
X182960000Y-95220000D03*
X182960000Y-97760000D03*
X182960000Y-100300000D03*
X182960000Y-102840000D03*
X182960000Y-105380000D03*
X182960000Y-107920000D03*
X182960000Y-110460000D03*
X182960000Y-113000000D03*
X185500000Y-95220000D03*
X185500000Y-97760000D03*
X185500000Y-100300000D03*
X185500000Y-102840000D03*
X185500000Y-105380000D03*
X185500000Y-107920000D03*
X185500000Y-110460000D03*
G36*
G01*
X186350000Y-112400000D02*
X186350000Y-113600000D01*
G75*
G02*
X186100000Y-113850000I-250000J0D01*
G01*
X184900000Y-113850000D01*
G75*
G02*
X184650000Y-113600000I0J250000D01*
G01*
X184650000Y-112400000D01*
G75*
G02*
X184900000Y-112150000I250000J0D01*
G01*
X186100000Y-112150000D01*
G75*
G02*
X186350000Y-112400000I0J-250000D01*
G01*
G37*
%TD*%
D20*
%TO.C,D8*%
X168160000Y-98000000D03*
D21*
X158000000Y-98000000D03*
%TD*%
D20*
%TO.C,D7*%
X154160000Y-102000000D03*
D21*
X144000000Y-102000000D03*
%TD*%
D20*
%TO.C,D6*%
X157840000Y-146000000D03*
D21*
X168000000Y-146000000D03*
%TD*%
D20*
%TO.C,D5*%
X168160000Y-122000000D03*
D21*
X158000000Y-122000000D03*
%TD*%
D20*
%TO.C,D4*%
X143840000Y-150000000D03*
D21*
X154000000Y-150000000D03*
%TD*%
D20*
%TO.C,D3*%
X154160000Y-126000000D03*
D21*
X144000000Y-126000000D03*
%TD*%
D20*
%TO.C,D2*%
X88700000Y-136460000D03*
D21*
X88700000Y-126300000D03*
%TD*%
D20*
%TO.C,D1*%
X88800000Y-108160000D03*
D21*
X88800000Y-98000000D03*
%TD*%
D10*
%TO.C,C8*%
X138000000Y-148500000D03*
D11*
X138000000Y-146000000D03*
%TD*%
D22*
%TO.C,C6*%
X123500000Y-144500000D03*
D23*
X123500000Y-137000000D03*
%TD*%
D22*
%TO.C,C5*%
X101500000Y-96500000D03*
D23*
X101500000Y-89000000D03*
%TD*%
D22*
%TO.C,C4*%
X101500000Y-144500000D03*
D23*
X101500000Y-137000000D03*
%TD*%
D22*
%TO.C,C3*%
X123500000Y-96500000D03*
D23*
X123500000Y-89000000D03*
%TD*%
D22*
%TO.C,C2*%
X101500000Y-120500000D03*
D23*
X101500000Y-113000000D03*
%TD*%
D22*
%TO.C,C1*%
X123500000Y-120500000D03*
D23*
X123500000Y-113000000D03*
%TD*%
M02*
